<svg version="1.1" xmlns="http://www.w3.org/2000/svg" viewBox="0 0 926.3019757952009 656.8548926217206" width="926.3019757952009" height="656.8548926217206">
  <!-- svg-source:excalidraw -->
  
  <defs>
    <style class="style-fonts">
      @font-face {
        font-family: "Virgil";
        src: url("https://file%2B.vscode-resource.vscode-cdn.net/home/ginkgo/.vscode/extensions/pomdtr.excalidraw-editor-3.7.3/public//dist/excalidraw-assets/Virgil.woff2");
      }
      @font-face {
        font-family: "Cascadia";
        src: url("https://file%2B.vscode-resource.vscode-cdn.net/home/ginkgo/.vscode/extensions/pomdtr.excalidraw-editor-3.7.3/public//dist/excalidraw-assets/Cascadia.woff2");
      }
      @font-face {
        font-family: "Assistant";
        src: url("https://file%2B.vscode-resource.vscode-cdn.net/home/ginkgo/.vscode/extensions/pomdtr.excalidraw-editor-3.7.3/public//dist/excalidraw-assets/Assistant-Regular.woff2");
      }
    </style>
    
  </defs>
  <rect x="0" y="0" width="926.3019757952009" height="656.8548926217206" fill="#ffffff"></rect><g stroke-linecap="round" transform="translate(10 10) rotate(0 453.15098789760043 186.43882533482144)"><path d="M32 0 C313.74 0, 595.48 0, 874.3 0 M32 0 C355.18 0, 678.35 0, 874.3 0 M874.3 0 C895.64 0, 906.3 10.67, 906.3 32 M874.3 0 C895.64 0, 906.3 10.67, 906.3 32 M906.3 32 C906.3 128.46, 906.3 224.92, 906.3 340.88 M906.3 32 C906.3 97.71, 906.3 163.42, 906.3 340.88 M906.3 340.88 C906.3 362.21, 895.64 372.88, 874.3 372.88 M906.3 340.88 C906.3 362.21, 895.64 372.88, 874.3 372.88 M874.3 372.88 C648.36 372.88, 422.42 372.88, 32 372.88 M874.3 372.88 C651.92 372.88, 429.53 372.88, 32 372.88 M32 372.88 C10.67 372.88, 0 362.21, 0 340.88 M32 372.88 C10.67 372.88, 0 362.21, 0 340.88 M0 340.88 C0 268.91, 0 196.93, 0 32 M0 340.88 C0 276.92, 0 212.97, 0 32 M0 32 C0 10.67, 10.67 0, 32 0 M0 32 C0 10.67, 10.67 0, 32 0" stroke="#868e96" stroke-width="2" fill="none"></path></g><g transform="translate(370.18712071010043 15) rotate(0 92.9638671875 11.5)"><text x="92.9638671875" y="0" font-family="Helvetica, Segoe UI Emoji" font-size="20px" fill="#868e96" text-anchor="middle" style="white-space: pre;" direction="ltr" dominant-baseline="text-before-edge">Бизнес-архитектура</text></g><g stroke-linecap="round" transform="translate(190.0140145438054 294.33922184535345) rotate(0 91.6905517578125 28)"><path d="M14 0 C59.66 0, 105.32 0, 169.38 0 M14 0 C61.7 0, 109.39 0, 169.38 0 M169.38 0 C178.71 0, 183.38 4.67, 183.38 14 M169.38 0 C178.71 0, 183.38 4.67, 183.38 14 M183.38 14 C183.38 21.69, 183.38 29.38, 183.38 42 M183.38 14 C183.38 21.5, 183.38 29, 183.38 42 M183.38 42 C183.38 51.33, 178.71 56, 169.38 56 M183.38 42 C183.38 51.33, 178.71 56, 169.38 56 M169.38 56 C112.32 56, 55.26 56, 14 56 M169.38 56 C128.38 56, 87.38 56, 14 56 M14 56 C4.67 56, 0 51.33, 0 42 M14 56 C4.67 56, 0 51.33, 0 42 M0 42 C0 33.81, 0 25.61, 0 14 M0 42 C0 31.33, 0 20.66, 0 14 M0 14 C0 4.67, 4.67 0, 14 0 M0 14 C0 4.67, 4.67 0, 14 0" stroke="#1e1e1e" stroke-width="2" fill="none"></path></g><g transform="translate(197.7690194266179 299.33922184535345) rotate(0 83.935546875 23)"><text x="83.935546875" y="0" font-family="Helvetica, Segoe UI Emoji" font-size="20px" fill="#1e1e1e" text-anchor="middle" style="white-space: pre;" direction="ltr" dominant-baseline="text-before-edge">Процессы</text><text x="83.935546875" y="23" font-family="Helvetica, Segoe UI Emoji" font-size="20px" fill="#1e1e1e" text-anchor="middle" style="white-space: pre;" direction="ltr" dominant-baseline="text-before-edge"> seaf.ba.processes</text></g><g stroke-linecap="round" transform="translate(105.83647199358217 567.8548926217206) rotate(0 136.7524871826172 39.5)"><path d="M19.75 0 C100.95 0, 182.15 0, 253.75 0 M19.75 0 C85.92 0, 152.09 0, 253.75 0 M253.75 0 C266.92 0, 273.5 6.58, 273.5 19.75 M253.75 0 C266.92 0, 273.5 6.58, 273.5 19.75 M273.5 19.75 C273.5 32.01, 273.5 44.26, 273.5 59.25 M273.5 19.75 C273.5 28.94, 273.5 38.13, 273.5 59.25 M273.5 59.25 C273.5 72.42, 266.92 79, 253.75 79 M273.5 59.25 C273.5 72.42, 266.92 79, 253.75 79 M253.75 79 C169.31 79, 84.87 79, 19.75 79 M253.75 79 C169.04 79, 84.33 79, 19.75 79 M19.75 79 C6.58 79, 0 72.42, 0 59.25 M19.75 79 C6.58 79, 0 72.42, 0 59.25 M0 59.25 C0 48.74, 0 38.23, 0 19.75 M0 59.25 C0 49.34, 0 39.43, 0 19.75 M0 19.75 C0 6.58, 6.58 0, 19.75 0 M0 19.75 C0 6.58, 6.58 0, 19.75 0" stroke="#1e1e1e" stroke-width="2" fill="none"></path></g><g transform="translate(126.96395917619935 584.3548926217206) rotate(0 115.625 23)"><text x="115.625" y="0" font-family="Helvetica, Segoe UI Emoji" font-size="20px" fill="#1e1e1e" text-anchor="middle" style="white-space: pre;" direction="ltr" dominant-baseline="text-before-edge">Требования</text><text x="115.625" y="23" font-family="Helvetica, Segoe UI Emoji" font-size="20px" fill="#1e1e1e" text-anchor="middle" style="white-space: pre;" direction="ltr" dominant-baseline="text-before-edge">seaf.change.requirements</text></g><g stroke-linecap="round"><g transform="translate(223.95604695130623 354.38679438999634) rotate(0 1.4226556484489095 105.4816687447684)"><path d="M0 0 C0.47 35.16, 2.37 175.8, 2.85 210.96 M0 0 C0.47 35.16, 2.37 175.8, 2.85 210.96" stroke="#1e1e1e" stroke-width="2" fill="none"></path></g><g transform="translate(223.95604695130623 354.38679438999634) rotate(0 1.4226556484489095 105.4816687447684)"><path d="M2.85 210.96 L-3.68 197.46 L9 197.28 L2.85 210.96" stroke="none" stroke-width="0" fill="#1e1e1e" fill-rule="evenodd"></path><path d="M2.85 210.96 C1.32 207.8, -0.21 204.63, -3.68 197.46 M2.85 210.96 C1.42 208.01, -0.01 205.05, -3.68 197.46 M-3.68 197.46 C-0.01 197.41, 3.66 197.36, 9 197.28 M-3.68 197.46 C0.16 197.4, 4.01 197.35, 9 197.28 M9 197.28 C7.17 201.35, 5.34 205.41, 2.85 210.96 M9 197.28 C6.74 202.3, 4.49 207.32, 2.85 210.96 M2.85 210.96 C2.85 210.96, 2.85 210.96, 2.85 210.96 M2.85 210.96 C2.85 210.96, 2.85 210.96, 2.85 210.96" stroke="#1e1e1e" stroke-width="2" fill="none"></path></g></g><mask></mask><g stroke-linecap="round" transform="translate(626.808829607282 394.69623173304876) rotate(0 117.69520568847656 39.5)"><path d="M19.75 0 C81.71 0, 143.66 0, 215.64 0 M19.75 0 C87.86 0, 155.96 0, 215.64 0 M215.64 0 C228.81 0, 235.39 6.58, 235.39 19.75 M215.64 0 C228.81 0, 235.39 6.58, 235.39 19.75 M235.39 19.75 C235.39 30.91, 235.39 42.08, 235.39 59.25 M235.39 19.75 C235.39 34.17, 235.39 48.59, 235.39 59.25 M235.39 59.25 C235.39 72.42, 228.81 79, 215.64 79 M235.39 59.25 C235.39 72.42, 228.81 79, 215.64 79 M215.64 79 C140.27 79, 64.91 79, 19.75 79 M215.64 79 C157.72 79, 99.8 79, 19.75 79 M19.75 79 C6.58 79, 0 72.42, 0 59.25 M19.75 79 C6.58 79, 0 72.42, 0 59.25 M0 59.25 C0 46.66, 0 34.07, 0 19.75 M0 59.25 C0 44.19, 0 29.12, 0 19.75 M0 19.75 C0 6.58, 6.58 0, 19.75 0 M0 19.75 C0 6.58, 6.58 0, 19.75 0" stroke="#1e1e1e" stroke-width="2" fill="none"></path></g><g transform="translate(643.9180977957585 399.69623173304876) rotate(0 100.5859375 34.5)"><text x="100.5859375" y="0" font-family="Helvetica, Segoe UI Emoji" font-size="20px" fill="#1e1e1e" text-anchor="middle" style="white-space: pre;" direction="ltr" dominant-baseline="text-before-edge">Прикладной сервис</text><text x="100.5859375" y="23" font-family="Helvetica, Segoe UI Emoji" font-size="20px" fill="#1e1e1e" text-anchor="middle" style="white-space: pre;" direction="ltr" dominant-baseline="text-before-edge">components:</text><text x="100.5859375" y="46" font-family="Helvetica, Segoe UI Emoji" font-size="20px" fill="#1e1e1e" text-anchor="middle" style="white-space: pre;" direction="ltr" dominant-baseline="text-before-edge">                type: service</text></g><g stroke-linecap="round" transform="translate(628.3944466727116 499.44391239711126) rotate(0 119.218994140625 39.5)"><path d="M19.75 0 C87.66 0, 155.58 0, 218.69 0 M19.75 0 C87.1 0, 154.44 0, 218.69 0 M218.69 0 C231.85 0, 238.44 6.58, 238.44 19.75 M218.69 0 C231.85 0, 238.44 6.58, 238.44 19.75 M238.44 19.75 C238.44 29.11, 238.44 38.46, 238.44 59.25 M238.44 19.75 C238.44 28.2, 238.44 36.66, 238.44 59.25 M238.44 59.25 C238.44 72.42, 231.85 79, 218.69 79 M238.44 59.25 C238.44 72.42, 231.85 79, 218.69 79 M218.69 79 C175.72 79, 132.76 79, 19.75 79 M218.69 79 C147.95 79, 77.21 79, 19.75 79 M19.75 79 C6.58 79, 0 72.42, 0 59.25 M19.75 79 C6.58 79, 0 72.42, 0 59.25 M0 59.25 C0 50.64, 0 42.02, 0 19.75 M0 59.25 C0 50.51, 0 41.78, 0 19.75 M0 19.75 C0 6.58, 6.58 0, 19.75 0 M0 19.75 C0 6.58, 6.58 0, 19.75 0" stroke="#1e1e1e" stroke-width="2" fill="none"></path></g><g transform="translate(635.8800423758366 515.9439123971113) rotate(0 111.7333984375 23)"><text x="111.7333984375" y="0" font-family="Helvetica, Segoe UI Emoji" font-size="20px" fill="#1e1e1e" text-anchor="middle" style="white-space: pre;" direction="ltr" dominant-baseline="text-before-edge">Бизнес-объекты</text><text x="111.7333984375" y="23" font-family="Helvetica, Segoe UI Emoji" font-size="20px" fill="#1e1e1e" text-anchor="middle" style="white-space: pre;" direction="ltr" dominant-baseline="text-before-edge"> seaf.ia.business_objects</text></g><g stroke-linecap="round"><g transform="translate(624.9139931815007 435.8667786359263) rotate(0 -151.82865448904556 -40.912013541763855)"><path d="M0 0 C-85.94 -0.13, -171.87 -0.26, -302.19 -0.46 M0 0 C-74.58 -0.11, -149.16 -0.23, -302.19 -0.46 M-302.19 -0.46 C-302.68 -27.46, -303.17 -54.47, -303.66 -81.82 M-302.19 -0.46 C-302.53 -18.87, -302.86 -37.29, -303.66 -81.82" stroke="#1e1e1e" stroke-width="2" fill="none"></path></g><g transform="translate(624.9139931815007 435.8667786359263) rotate(0 -151.82865448904556 -40.912013541763855)"><path d="M-303.66 -81.82 L-297.07 -68.35 L-309.75 -68.12 L-303.66 -81.82" stroke="none" stroke-width="0" fill="#1e1e1e" fill-rule="evenodd"></path><path d="M-303.66 -81.82 C-301.79 -77.99, -299.91 -74.16, -297.07 -68.35 M-303.66 -81.82 C-302.03 -78.5, -300.41 -75.17, -297.07 -68.35 M-297.07 -68.35 C-301.28 -68.27, -305.49 -68.19, -309.75 -68.12 M-297.07 -68.35 C-299.94 -68.29, -302.81 -68.24, -309.75 -68.12 M-309.75 -68.12 C-308.46 -71.02, -307.17 -73.93, -303.66 -81.82 M-309.75 -68.12 C-308.31 -71.37, -306.86 -74.62, -303.66 -81.82 M-303.66 -81.82 C-303.66 -81.82, -303.66 -81.82, -303.66 -81.82 M-303.66 -81.82 C-303.66 -81.82, -303.66 -81.82, -303.66 -81.82" stroke="#1e1e1e" stroke-width="2" fill="none"></path></g></g><mask></mask><g stroke-linecap="round"><g transform="translate(626.0133139740608 534.8882826942577) rotate(0 -172.95118142518783 -90.08726027692524)"><path d="M0 0 C-102.24 -0.36, -204.48 -0.72, -343.36 -1.21 M0 0 C-125.1 -0.44, -250.2 -0.89, -343.36 -1.21 M-343.36 -1.21 C-343.87 -37.16, -344.38 -73.11, -345.9 -180.17 M-343.36 -1.21 C-344.24 -63.4, -345.13 -125.58, -345.9 -180.17" stroke="#1e1e1e" stroke-width="2" fill="none"></path></g><g transform="translate(626.0133139740608 534.8882826942577) rotate(0 -172.95118142518783 -90.08726027692524)"><path d="M-345.9 -180.17 L-339.37 -166.67 L-352.05 -166.49 L-345.9 -180.17" stroke="none" stroke-width="0" fill="#1e1e1e" fill-rule="evenodd"></path><path d="M-345.9 -180.17 C-343.96 -176.15, -342.01 -172.13, -339.37 -166.67 M-345.9 -180.17 C-343.52 -175.25, -341.14 -170.34, -339.37 -166.67 M-339.37 -166.67 C-341.92 -166.64, -344.46 -166.6, -352.05 -166.49 M-339.37 -166.67 C-343.78 -166.61, -348.18 -166.55, -352.05 -166.49 M-352.05 -166.49 C-350.19 -170.63, -348.33 -174.76, -345.9 -180.17 M-352.05 -166.49 C-350.72 -169.46, -349.39 -172.42, -345.9 -180.17 M-345.9 -180.17 C-345.9 -180.17, -345.9 -180.17, -345.9 -180.17 M-345.9 -180.17 C-345.9 -180.17, -345.9 -180.17, -345.9 -180.17" stroke="#1e1e1e" stroke-width="2" fill="none"></path></g></g><mask></mask><g stroke-linecap="round"><g transform="translate(370.38981343375195 137.65040085970776) rotate(0 152.25722994955797 77.83731352177159)"><path d="M0 0 C50.75 25.95, 253.76 129.73, 304.51 155.67 M0 0 C50.75 25.95, 253.76 129.73, 304.51 155.67" stroke="#1e1e1e" stroke-width="2" fill="none"></path></g><g transform="translate(370.38981343375195 137.65040085970776) rotate(0 152.25722994955797 77.83731352177159)"><path d="M304.51 155.67 L289.52 155.13 L295.3 143.84 L304.51 155.67" stroke="none" stroke-width="0" fill="#1e1e1e" fill-rule="evenodd"></path><path d="M304.51 155.67 C300.1 155.51, 295.69 155.35, 289.52 155.13 M304.51 155.67 C300.43 155.53, 296.36 155.38, 289.52 155.13 M289.52 155.13 C291.4 151.47, 293.27 147.81, 295.3 143.84 M289.52 155.13 C291.24 151.78, 292.95 148.43, 295.3 143.84 M295.3 143.84 C297.58 146.78, 299.87 149.71, 304.51 155.67 M295.3 143.84 C297.45 146.6, 299.6 149.36, 304.51 155.67 M304.51 155.67 C304.51 155.67, 304.51 155.67, 304.51 155.67 M304.51 155.67 C304.51 155.67, 304.51 155.67, 304.51 155.67" stroke="#1e1e1e" stroke-width="2" fill="none"></path></g></g><mask></mask><g stroke-linecap="round"><g transform="translate(218.71457125594213 290.59642399379095) rotate(0 -0.7208521010945788 -72.9334487915039)"><path d="M0 0 C-0.24 -24.31, -1.2 -121.56, -1.44 -145.87 M0 0 C-0.24 -24.31, -1.2 -121.56, -1.44 -145.87" stroke="#1e1e1e" stroke-width="2" fill="none"></path></g><g transform="translate(218.71457125594213 290.59642399379095) rotate(0 -0.7208521010945788 -72.9334487915039)"><path d="M-1.44 -145.87 L5.03 -132.34 L-7.65 -132.21 L-1.44 -145.87" stroke="none" stroke-width="0" fill="#1e1e1e" fill-rule="evenodd"></path><path d="M-1.44 -145.87 C0.02 -142.81, 1.49 -139.74, 5.03 -132.34 M-1.44 -145.87 C0.13 -142.58, 1.71 -139.29, 5.03 -132.34 M5.03 -132.34 C0.26 -132.29, -4.52 -132.24, -7.65 -132.21 M5.03 -132.34 C2.3 -132.31, -0.44 -132.28, -7.65 -132.21 M-7.65 -132.21 C-5.17 -137.67, -2.68 -143.13, -1.44 -145.87 M-7.65 -132.21 C-5.51 -136.92, -3.37 -141.63, -1.44 -145.87 M-1.44 -145.87 C-1.44 -145.87, -1.44 -145.87, -1.44 -145.87 M-1.44 -145.87 C-1.44 -145.87, -1.44 -145.87, -1.44 -145.87" stroke="#1e1e1e" stroke-width="2" fill="none"></path></g></g><mask></mask><g stroke-linecap="round"><g transform="translate(725.4713643591801 282.3721960885175) rotate(0 -177.29785825729675 -85.4270085940312)"><path d="M0 0 C-0.8 -40.24, -1.59 -80.48, -3.36 -169.66 M0 0 C-0.78 -39.22, -1.55 -78.44, -3.36 -169.66 M-3.36 -169.66 C-116.49 -170.04, -229.62 -170.43, -354.6 -170.85 M-3.36 -169.66 C-122.36 -170.06, -241.36 -170.47, -354.6 -170.85" stroke="#1e1e1e" stroke-width="2" fill="none"></path></g><g transform="translate(725.4713643591801 282.3721960885175) rotate(0 -177.29785825729675 -85.4270085940312)"><path d="M-354.6 -170.85 L-340.98 -177.15 L-341.02 -164.47 L-354.6 -170.85" stroke="none" stroke-width="0" fill="#1e1e1e" fill-rule="evenodd"></path><path d="M-354.6 -170.85 C-351.37 -172.35, -348.14 -173.84, -340.98 -177.15 M-354.6 -170.85 C-351.45 -172.31, -348.3 -173.76, -340.98 -177.15 M-340.98 -177.15 C-340.99 -173.06, -341.01 -168.98, -341.02 -164.47 M-340.98 -177.15 C-340.99 -172.85, -341.01 -168.56, -341.02 -164.47 M-341.02 -164.47 C-344.67 -166.19, -348.32 -167.9, -354.6 -170.85 M-341.02 -164.47 C-344.26 -165.99, -347.5 -167.52, -354.6 -170.85 M-354.6 -170.85 C-354.6 -170.85, -354.6 -170.85, -354.6 -170.85 M-354.6 -170.85 C-354.6 -170.85, -354.6 -170.85, -354.6 -170.85" stroke="#1e1e1e" stroke-width="2" fill="none"></path></g></g><mask></mask><g stroke-linecap="round"><g transform="translate(374.1844268798824 319.6105156452061) rotate(0 148.08821977887834 -0.882525523617403)"><path d="M0 0 C49.36 -0.29, 246.81 -1.47, 296.18 -1.77 M0 0 C49.36 -0.29, 246.81 -1.47, 296.18 -1.77" stroke="#1e1e1e" stroke-width="2" fill="none"></path></g><g transform="translate(374.1844268798824 319.6105156452061) rotate(0 148.08821977887834 -0.882525523617403)"><path d="M296.18 -1.77 L282.62 4.66 L282.54 -8.02 L296.18 -1.77" stroke="none" stroke-width="0" fill="#1e1e1e" fill-rule="evenodd"></path><path d="M296.18 -1.77 C291.09 0.65, 285.99 3.06, 282.62 4.66 M296.18 -1.77 C293.09 -0.3, 290 1.16, 282.62 4.66 M282.62 4.66 C282.59 0.26, 282.57 -4.14, 282.54 -8.02 M282.62 4.66 C282.6 2.09, 282.59 -0.47, 282.54 -8.02 M282.54 -8.02 C286.33 -6.29, 290.12 -4.55, 296.18 -1.77 M282.54 -8.02 C286.99 -5.98, 291.43 -3.94, 296.18 -1.77 M296.18 -1.77 C296.18 -1.77, 296.18 -1.77, 296.18 -1.77 M296.18 -1.77 C296.18 -1.77, 296.18 -1.77, 296.18 -1.77" stroke="#1e1e1e" stroke-width="2" fill="none"></path></g></g><mask></mask><g stroke-linecap="round" transform="translate(184.50400477818044 79.47235477992376) rotate(0 91.6905517578125 30)"><path d="M15 0 C45.92 0, 76.85 0, 168.38 0 M15 0 C69.23 0, 123.46 0, 168.38 0 M168.38 0 C178.38 0, 183.38 5, 183.38 15 M168.38 0 C178.38 0, 183.38 5, 183.38 15 M183.38 15 C183.38 23.66, 183.38 32.33, 183.38 45 M183.38 15 C183.38 21.38, 183.38 27.76, 183.38 45 M183.38 45 C183.38 55, 178.38 60, 168.38 60 M183.38 45 C183.38 55, 178.38 60, 168.38 60 M168.38 60 C132.36 60, 96.34 60, 15 60 M168.38 60 C121.55 60, 74.73 60, 15 60 M15 60 C5 60, 0 55, 0 45 M15 60 C5 60, 0 55, 0 45 M0 45 C0 37.46, 0 29.91, 0 15 M0 45 C0 34.17, 0 23.34, 0 15 M0 15 C0 5, 5 0, 15 0 M0 15 C0 5, 5 0, 15 0" stroke="#1e1e1e" stroke-width="2" fill="none"></path></g><g transform="translate(207.82053309849294 86.47235477992376) rotate(0 68.3740234375 23)"><text x="68.3740234375" y="0" font-family="Helvetica, Segoe UI Emoji" font-size="20px" fill="#1e1e1e" text-anchor="middle" style="white-space: pre;" direction="ltr" dominant-baseline="text-before-edge">Участники</text><text x="68.3740234375" y="23" font-family="Helvetica, Segoe UI Emoji" font-size="20px" fill="#1e1e1e" text-anchor="middle" style="white-space: pre;" direction="ltr" dominant-baseline="text-before-edge"> seaf.ba.parties</text></g><g stroke-linecap="round"><g transform="translate(234.66221694447955 77.66527317592045) rotate(0 32.7654874541295 -12.0916603088382)"><path d="M0 0 C5.43 -4.17, 21.66 -25.12, 32.58 -24.99 C43.5 -24.86, 60.04 -3.49, 65.53 0.81 M0 0 C5.43 -4.17, 21.66 -25.12, 32.58 -24.99 C43.5 -24.86, 60.04 -3.49, 65.53 0.81" stroke="#1e1e1e" stroke-width="2" fill="none"></path></g><g transform="translate(234.66221694447955 77.66527317592045) rotate(0 32.7654874541295 -12.0916603088382)"><path d="M65.53 0.81 L51.42 -4.29 L60.37 -13.28 L65.53 0.81" stroke="none" stroke-width="0" fill="#1e1e1e" fill-rule="evenodd"></path><path d="M65.53 0.81 C60.41 -1.04, 55.3 -2.89, 51.42 -4.29 M65.53 0.81 C61.9 -0.51, 58.27 -1.82, 51.42 -4.29 M51.42 -4.29 C54.47 -7.35, 57.52 -10.42, 60.37 -13.28 M51.42 -4.29 C54.19 -7.07, 56.96 -9.85, 60.37 -13.28 M60.37 -13.28 C61.67 -9.73, 62.97 -6.19, 65.53 0.81 M60.37 -13.28 C62.05 -8.69, 63.73 -4.1, 65.53 0.81 M65.53 0.81 C65.53 0.81, 65.53 0.81, 65.53 0.81 M65.53 0.81 C65.53 0.81, 65.53 0.81, 65.53 0.81" stroke="#1e1e1e" stroke-width="2" fill="none"></path></g></g><mask></mask><g transform="translate(225.0230538504464 27.851000104631368) rotate(0 42.90234375 9.2)"><text x="0" y="0" font-family="Helvetica, Segoe UI Emoji" font-size="16px" fill="#1e1e1e" text-anchor="start" style="white-space: pre;" direction="ltr" dominant-baseline="text-before-edge">относится к</text></g><g transform="translate(446.7492196219307 91.084322248186) rotate(0.9943074148522117 35.734375 9.200000000000003)"><text x="0" y="0" font-family="Helvetica, Segoe UI Emoji" font-size="16px" fill="#1e1e1e" text-anchor="start" style="white-space: pre;" direction="ltr" dominant-baseline="text-before-edge">владелец</text></g><g stroke-linecap="round" transform="translate(674.489997209821 287.82477177211126) rotate(0 91.6905517578125 28)"><path d="M14 0 C58.9 0, 103.8 0, 169.38 0 M14 0 C75.92 0, 137.83 0, 169.38 0 M169.38 0 C178.71 0, 183.38 4.67, 183.38 14 M169.38 0 C178.71 0, 183.38 4.67, 183.38 14 M183.38 14 C183.38 23.96, 183.38 33.91, 183.38 42 M183.38 14 C183.38 22.6, 183.38 31.2, 183.38 42 M183.38 42 C183.38 51.33, 178.71 56, 169.38 56 M183.38 42 C183.38 51.33, 178.71 56, 169.38 56 M169.38 56 C132.77 56, 96.17 56, 14 56 M169.38 56 C133.97 56, 98.57 56, 14 56 M14 56 C4.67 56, 0 51.33, 0 42 M14 56 C4.67 56, 0 51.33, 0 42 M0 42 C0 36.16, 0 30.31, 0 14 M0 42 C0 32.62, 0 23.25, 0 14 M0 14 C0 4.67, 4.67 0, 14 0 M0 14 C0 4.67, 4.67 0, 14 0" stroke="#1e1e1e" stroke-width="2" fill="none"></path></g><g transform="translate(689.4666817801335 292.82477177211126) rotate(0 76.7138671875 23)"><text x="76.7138671875" y="0" font-family="Helvetica, Segoe UI Emoji" font-size="20px" fill="#1e1e1e" text-anchor="middle" style="white-space: pre;" direction="ltr" dominant-baseline="text-before-edge">Продукты</text><text x="76.7138671875" y="23" font-family="Helvetica, Segoe UI Emoji" font-size="20px" fill="#1e1e1e" text-anchor="middle" style="white-space: pre;" direction="ltr" dominant-baseline="text-before-edge"> seaf.ba.products</text></g><g stroke-linecap="round"><g transform="translate(770.2255076457541 286.2641447884696) rotate(0 31.489793031226554 -12.396469879150686)"><path d="M0 0 C5 -4.22, 19.53 -25.38, 30.03 -25.3 C40.53 -25.21, 57.49 -3.8, 62.98 0.5 M0 0 C5 -4.22, 19.53 -25.38, 30.03 -25.3 C40.53 -25.21, 57.49 -3.8, 62.98 0.5" stroke="#1e1e1e" stroke-width="2" fill="none"></path></g><g transform="translate(770.2255076457541 286.2641447884696) rotate(0 31.489793031226554 -12.396469879150686)"><path d="M62.98 0.5 L48.85 -4.53 L57.75 -13.56 L62.98 0.5" stroke="none" stroke-width="0" fill="#1e1e1e" fill-rule="evenodd"></path><path d="M62.98 0.5 C57.82 -1.33, 52.67 -3.17, 48.85 -4.53 M62.98 0.5 C58 -1.27, 53.03 -3.04, 48.85 -4.53 M48.85 -4.53 C50.92 -6.63, 52.99 -8.72, 57.75 -13.56 M48.85 -4.53 C50.79 -6.5, 52.73 -8.47, 57.75 -13.56 M57.75 -13.56 C59.55 -8.71, 61.36 -3.86, 62.98 0.5 M57.75 -13.56 C59.61 -8.57, 61.46 -3.58, 62.98 0.5 M62.98 0.5 C62.98 0.5, 62.98 0.5, 62.98 0.5 M62.98 0.5 C62.98 0.5, 62.98 0.5, 62.98 0.5" stroke="#1e1e1e" stroke-width="2" fill="none"></path></g></g><mask></mask><g transform="translate(742.9587838309151 221.2117430550711) rotate(0 56.86328125 18.400000000000006)"><text x="56.86328125" y="0" font-family="Helvetica, Segoe UI Emoji" font-size="16px" fill="#1e1e1e" text-anchor="middle" style="white-space: pre;" direction="ltr" dominant-baseline="text-before-edge">потребляется в</text><text x="56.86328125" y="18.4" font-family="Helvetica, Segoe UI Emoji" font-size="16px" fill="#1e1e1e" text-anchor="middle" style="white-space: pre;" direction="ltr" dominant-baseline="text-before-edge">составе</text></g><g transform="translate(166.2410409109932 214.7510397774829) rotate(267.7531676809026 35.734375 9.200000000000003)"><text x="0" y="0" font-family="Helvetica, Segoe UI Emoji" font-size="16px" fill="#1e1e1e" text-anchor="start" style="white-space: pre;" direction="ltr" dominant-baseline="text-before-edge">владелец</text></g><g transform="translate(436.30501115733375 177.61531702606172) rotate(28.251793212812707 55.4921875 9.200000000000003)"><text x="0" y="0" font-family="Helvetica, Segoe UI Emoji" font-size="16px" fill="#1e1e1e" text-anchor="start" style="white-space: pre;" direction="ltr" dominant-baseline="text-before-edge">заинтересован</text></g><g stroke-linecap="round"><g transform="translate(263.7505140878816 290.71186817714147) rotate(0 24.109924426035974 -5.091660308838186)"><path d="M0 0 C3.79 -2, 14.71 -12.29, 22.75 -11.99 C30.79 -11.69, 43.98 -0.49, 48.22 1.81" stroke="#1e1e1e" stroke-width="2.5" fill="none" stroke-dasharray="1.5 8"></path></g><g transform="translate(263.7505140878816 290.71186817714147) rotate(0 24.109924426035974 -5.091660308838186)"><path d="M48.22 1.81 L33.4 -0.52 L40.48 -11.04 L48.22 1.81" stroke="none" stroke-width="0" fill="#1e1e1e" fill-rule="evenodd"></path><path d="M48.22 1.81 C42.59 0.92, 36.95 0.04, 33.4 -0.52 M33.4 -0.52 C35.95 -4.31, 38.5 -8.09, 40.48 -11.04 M40.48 -11.04 C42.15 -8.27, 43.82 -5.49, 48.22 1.81 M48.22 1.81 C48.22 1.81, 48.22 1.81, 48.22 1.81" stroke="#1e1e1e" stroke-width="2.5" fill="none"></path></g></g><mask></mask><g transform="translate(244.28272792271196 253.89759510585236) rotate(0 42.90234375 9.199999999999989)"><text x="0" y="0" font-family="Helvetica, Segoe UI Emoji" font-size="16px" fill="#1e1e1e" text-anchor="start" style="white-space: pre;" direction="ltr" dominant-baseline="text-before-edge">относится к</text></g><g stroke-linecap="round"><g transform="translate(162.63691822786973 334.8262555049848) rotate(268.4677385933702 16.52566799469392 -7.399394099959721)"><path d="M0 0 C1.19 -2.95, 1.66 -18.18, 7.17 -17.7 C12.68 -17.21, 28.74 -0.53, 33.05 2.9" stroke="#1e1e1e" stroke-width="2.5" fill="none" stroke-dasharray="1.5 8"></path></g><g transform="translate(162.63691822786973 334.8262555049848) rotate(268.4677385933702 16.52566799469392 -7.399394099959721)"><path d="M33.05 2.9 L18.73 -1.56 L27.26 -10.94 L33.05 2.9" stroke="none" stroke-width="0" fill="#1e1e1e" fill-rule="evenodd"></path><path d="M33.05 2.9 C27.63 1.21, 22.2 -0.48, 18.73 -1.56 M18.73 -1.56 C21.12 -4.19, 23.52 -6.82, 27.26 -10.94 M27.26 -10.94 C28.77 -7.34, 30.28 -3.73, 33.05 2.9 M33.05 2.9 C33.05 2.9, 33.05 2.9, 33.05 2.9" stroke="#1e1e1e" stroke-width="2.5" fill="none"></path></g></g><mask></mask><g transform="translate(69.78889471194023 326.8218364671495) rotate(359.32801003628407 43.76953125 9.199999999999989)"><text x="0" y="0" font-family="Helvetica, Segoe UI Emoji" font-size="16px" fill="#1e1e1e" text-anchor="start" style="white-space: pre;" direction="ltr" dominant-baseline="text-before-edge">поток работ</text></g><g transform="translate(459.24014081616065 414.33741741796155) rotate(359.68742604288525 53.1171875 9.199999999999989)"><text x="0" y="0" font-family="Helvetica, Segoe UI Emoji" font-size="16px" fill="#1e1e1e" text-anchor="start" style="white-space: pre;" direction="ltr" dominant-baseline="text-before-edge">поддерживает</text></g><g transform="translate(459.6679207938057 298.10334995814696) rotate(359.93565833778115 53.1171875 9.199999999999989)"><text x="0" y="0" font-family="Helvetica, Segoe UI Emoji" font-size="16px" fill="#1e1e1e" text-anchor="start" style="white-space: pre;" direction="ltr" dominant-baseline="text-before-edge">поддерживает</text></g><g stroke-linecap="round"><g transform="translate(344.3867923180097 141.12030021779924) rotate(0 2.109925821055839 75.87554037414131)"><path d="M0 0 C0.7 25.29, 3.52 126.46, 4.22 151.75" stroke="#1e1e1e" stroke-width="2.5" fill="none" stroke-dasharray="1.5 8"></path></g><g transform="translate(344.3867923180097 141.12030021779924) rotate(0 2.109925821055839 75.87554037414131)"><path d="M4.22 151.75 L-2.49 138.34 L10.18 137.99 L4.22 151.75" stroke="none" stroke-width="0" fill="#1e1e1e" fill-rule="evenodd"></path><path d="M4.22 151.75 C1.66 146.63, -0.91 141.51, -2.49 138.34 M-2.49 138.34 C1.66 138.22, 5.82 138.11, 10.18 137.99 M10.18 137.99 C8.11 142.76, 6.04 147.54, 4.22 151.75 M4.22 151.75 C4.22 151.75, 4.22 151.75, 4.22 151.75" stroke="#1e1e1e" stroke-width="2.5" fill="none"></path></g></g><mask></mask><g transform="translate(294.83352153154607 209.90777189872452) rotate(267.84912216245453 59.65234375 9.200000000000003)"><text x="0" y="0" font-family="Helvetica, Segoe UI Emoji" font-size="16px" fill="#1e1e1e" text-anchor="start" style="white-space: pre;" direction="ltr" dominant-baseline="text-before-edge">выполняет роль</text></g><g transform="translate(460.32481054411306 508.487909356401) rotate(359.68742604288525 55.96093749999997 9.199999999999989)"><text x="0" y="0" font-family="Helvetica, Segoe UI Emoji" font-size="16px" fill="#1e1e1e" text-anchor="start" style="white-space: pre;" direction="ltr" dominant-baseline="text-before-edge">используется в</text></g><g transform="translate(178.88785639097753 453.2907722584113) rotate(267.7531676809026 28.636718749999986 9.199999999999989)"><text x="0" y="0" font-family="Helvetica, Segoe UI Emoji" font-size="16px" fill="#1e1e1e" text-anchor="start" style="white-space: pre;" direction="ltr" dominant-baseline="text-before-edge">требует</text></g></svg>