<svg version="1.1" xmlns="http://www.w3.org/2000/svg" viewBox="0 0 1002.1552403041298 656.8548926217206" width="1002.1552403041298" height="656.8548926217206">
  <!-- svg-source:excalidraw -->
  
  <defs>
    <style class="style-fonts">
      @font-face {
        font-family: "Virgil";
        src: url("https://file%2B.vscode-resource.vscode-cdn.net/home/ginkgo/.vscode/extensions/pomdtr.excalidraw-editor-3.7.4/public//dist/excalidraw-assets/Virgil.woff2");
      }
      @font-face {
        font-family: "Cascadia";
        src: url("https://file%2B.vscode-resource.vscode-cdn.net/home/ginkgo/.vscode/extensions/pomdtr.excalidraw-editor-3.7.4/public//dist/excalidraw-assets/Cascadia.woff2");
      }
      @font-face {
        font-family: "Assistant";
        src: url("https://file%2B.vscode-resource.vscode-cdn.net/home/ginkgo/.vscode/extensions/pomdtr.excalidraw-editor-3.7.4/public//dist/excalidraw-assets/Assistant-Regular.woff2");
      }
    </style>
    
  </defs>
  <rect x="0" y="0" width="1002.1552403041298" height="656.8548926217206" fill="#ffffff"></rect><g stroke-linecap="round" transform="translate(85.85326450892899 10) rotate(0 453.15098789760043 186.43882533482144)"><path d="M32 0 C313.74 0, 595.48 0, 874.3 0 M32 0 C355.18 0, 678.35 0, 874.3 0 M874.3 0 C895.64 0, 906.3 10.67, 906.3 32 M874.3 0 C895.64 0, 906.3 10.67, 906.3 32 M906.3 32 C906.3 128.46, 906.3 224.92, 906.3 340.88 M906.3 32 C906.3 97.71, 906.3 163.42, 906.3 340.88 M906.3 340.88 C906.3 362.21, 895.64 372.88, 874.3 372.88 M906.3 340.88 C906.3 362.21, 895.64 372.88, 874.3 372.88 M874.3 372.88 C648.36 372.88, 422.42 372.88, 32 372.88 M874.3 372.88 C651.92 372.88, 429.53 372.88, 32 372.88 M32 372.88 C10.67 372.88, 0 362.21, 0 340.88 M32 372.88 C10.67 372.88, 0 362.21, 0 340.88 M0 340.88 C0 268.91, 0 196.93, 0 32 M0 340.88 C0 276.92, 0 212.97, 0 32 M0 32 C0 10.67, 10.67 0, 32 0 M0 32 C0 10.67, 10.67 0, 32 0" stroke="#868e96" stroke-width="2" fill="none"></path></g><g transform="translate(446.0403852190294 15) rotate(0 92.9638671875 11.5)"><text x="92.9638671875" y="0" font-family="Helvetica, Segoe UI Emoji" font-size="20px" fill="#868e96" text-anchor="middle" style="white-space: pre;" direction="ltr" dominant-baseline="text-before-edge">Бизнес-архитектура</text></g><g stroke-linecap="round" transform="translate(265.8672790527344 294.33922184535345) rotate(0 91.6905517578125 28)"><path d="M14 0 C59.66 0, 105.32 0, 169.38 0 M14 0 C61.7 0, 109.39 0, 169.38 0 M169.38 0 C178.71 0, 183.38 4.67, 183.38 14 M169.38 0 C178.71 0, 183.38 4.67, 183.38 14 M183.38 14 C183.38 21.69, 183.38 29.38, 183.38 42 M183.38 14 C183.38 21.5, 183.38 29, 183.38 42 M183.38 42 C183.38 51.33, 178.71 56, 169.38 56 M183.38 42 C183.38 51.33, 178.71 56, 169.38 56 M169.38 56 C112.32 56, 55.26 56, 14 56 M169.38 56 C128.38 56, 87.38 56, 14 56 M14 56 C4.67 56, 0 51.33, 0 42 M14 56 C4.67 56, 0 51.33, 0 42 M0 42 C0 33.81, 0 25.61, 0 14 M0 42 C0 31.33, 0 20.66, 0 14 M0 14 C0 4.67, 4.67 0, 14 0 M0 14 C0 4.67, 4.67 0, 14 0" stroke="#1e1e1e" stroke-width="2" fill="none"></path></g><g transform="translate(273.6222839355469 299.33922184535345) rotate(0 83.935546875 23)"><text x="83.935546875" y="0" font-family="Helvetica, Segoe UI Emoji" font-size="20px" fill="#1e1e1e" text-anchor="middle" style="white-space: pre;" direction="ltr" dominant-baseline="text-before-edge">Процессы</text><text x="83.935546875" y="23" font-family="Helvetica, Segoe UI Emoji" font-size="20px" fill="#1e1e1e" text-anchor="middle" style="white-space: pre;" direction="ltr" dominant-baseline="text-before-edge"> seaf.ba.processes</text></g><g stroke-linecap="round" transform="translate(217.68973650251115 567.8548926217206) rotate(0 136.7524871826172 39.5)"><path d="M19.75 0 C100.95 0, 182.15 0, 253.75 0 M19.75 0 C85.92 0, 152.09 0, 253.75 0 M253.75 0 C266.92 0, 273.5 6.58, 273.5 19.75 M253.75 0 C266.92 0, 273.5 6.58, 273.5 19.75 M273.5 19.75 C273.5 32.01, 273.5 44.26, 273.5 59.25 M273.5 19.75 C273.5 28.94, 273.5 38.13, 273.5 59.25 M273.5 59.25 C273.5 72.42, 266.92 79, 253.75 79 M273.5 59.25 C273.5 72.42, 266.92 79, 253.75 79 M253.75 79 C169.31 79, 84.87 79, 19.75 79 M253.75 79 C169.04 79, 84.33 79, 19.75 79 M19.75 79 C6.58 79, 0 72.42, 0 59.25 M19.75 79 C6.58 79, 0 72.42, 0 59.25 M0 59.25 C0 48.74, 0 38.23, 0 19.75 M0 59.25 C0 49.34, 0 39.43, 0 19.75 M0 19.75 C0 6.58, 6.58 0, 19.75 0 M0 19.75 C0 6.58, 6.58 0, 19.75 0" stroke="#1e1e1e" stroke-width="2" fill="none"></path></g><g transform="translate(238.81722368512834 584.3548926217206) rotate(0 115.625 23)"><text x="115.625" y="0" font-family="Helvetica, Segoe UI Emoji" font-size="20px" fill="#1e1e1e" text-anchor="middle" style="white-space: pre;" direction="ltr" dominant-baseline="text-before-edge">Требования</text><text x="115.625" y="23" font-family="Helvetica, Segoe UI Emoji" font-size="20px" fill="#1e1e1e" text-anchor="middle" style="white-space: pre;" direction="ltr" dominant-baseline="text-before-edge">seaf.change.requirements</text></g><g stroke-linecap="round"><g transform="translate(314.257940597243 354.0820458548401) rotate(0 3.130140175977175 104.41503361293246)"><path d="M0 0 C1.04 34.81, 5.22 174.03, 6.26 208.83 M0 0 C1.04 34.81, 5.22 174.03, 6.26 208.83" stroke="#1e1e1e" stroke-width="2" fill="none"></path></g><g transform="translate(314.257940597243 354.0820458548401) rotate(0 3.130140175977175 104.41503361293246)"><path d="M6.26 208.83 L-0.48 195.43 L12.19 195.05 L6.26 208.83" stroke="none" stroke-width="0" fill="#1e1e1e" fill-rule="evenodd"></path><path d="M6.26 208.83 C4.68 205.69, 3.1 202.55, -0.48 195.43 M6.26 208.83 C4.78 205.9, 3.31 202.96, -0.48 195.43 M-0.48 195.43 C3.18 195.32, 6.85 195.21, 12.19 195.05 M-0.48 195.43 C3.36 195.32, 7.2 195.2, 12.19 195.05 M12.19 195.05 C10.43 199.15, 8.67 203.24, 6.26 208.83 M12.19 195.05 C10.01 200.11, 7.84 205.16, 6.26 208.83 M6.26 208.83 C6.26 208.83, 6.26 208.83, 6.26 208.83 M6.26 208.83 C6.26 208.83, 6.26 208.83, 6.26 208.83" stroke="#1e1e1e" stroke-width="2" fill="none"></path></g></g><mask></mask><g stroke-linecap="round" transform="translate(702.6620941162109 394.69623173304876) rotate(0 117.69520568847656 39.5)"><path d="M19.75 0 C81.71 0, 143.66 0, 215.64 0 M19.75 0 C87.86 0, 155.96 0, 215.64 0 M215.64 0 C228.81 0, 235.39 6.58, 235.39 19.75 M215.64 0 C228.81 0, 235.39 6.58, 235.39 19.75 M235.39 19.75 C235.39 30.91, 235.39 42.08, 235.39 59.25 M235.39 19.75 C235.39 34.17, 235.39 48.59, 235.39 59.25 M235.39 59.25 C235.39 72.42, 228.81 79, 215.64 79 M235.39 59.25 C235.39 72.42, 228.81 79, 215.64 79 M215.64 79 C140.27 79, 64.91 79, 19.75 79 M215.64 79 C157.72 79, 99.8 79, 19.75 79 M19.75 79 C6.58 79, 0 72.42, 0 59.25 M19.75 79 C6.58 79, 0 72.42, 0 59.25 M0 59.25 C0 46.66, 0 34.07, 0 19.75 M0 59.25 C0 44.19, 0 29.12, 0 19.75 M0 19.75 C0 6.58, 6.58 0, 19.75 0 M0 19.75 C0 6.58, 6.58 0, 19.75 0" stroke="#1e1e1e" stroke-width="2" fill="none"></path></g><g transform="translate(719.7713623046875 399.69623173304876) rotate(0 100.5859375 34.5)"><text x="100.5859375" y="0" font-family="Helvetica, Segoe UI Emoji" font-size="20px" fill="#1e1e1e" text-anchor="middle" style="white-space: pre;" direction="ltr" dominant-baseline="text-before-edge">Прикладной сервис</text><text x="100.5859375" y="23" font-family="Helvetica, Segoe UI Emoji" font-size="20px" fill="#1e1e1e" text-anchor="middle" style="white-space: pre;" direction="ltr" dominant-baseline="text-before-edge">components:</text><text x="100.5859375" y="46" font-family="Helvetica, Segoe UI Emoji" font-size="20px" fill="#1e1e1e" text-anchor="middle" style="white-space: pre;" direction="ltr" dominant-baseline="text-before-edge">                type: service</text></g><g stroke-linecap="round" transform="translate(10 473.234378705705) rotate(0 119.21899414062503 39.5)"><path d="M19.75 0 C87.66 0, 155.58 0, 218.69 0 M19.75 0 C87.1 0, 154.44 0, 218.69 0 M218.69 0 C231.85 0, 238.44 6.58, 238.44 19.75 M218.69 0 C231.85 0, 238.44 6.58, 238.44 19.75 M238.44 19.75 C238.44 29.11, 238.44 38.46, 238.44 59.25 M238.44 19.75 C238.44 28.2, 238.44 36.66, 238.44 59.25 M238.44 59.25 C238.44 72.42, 231.85 79, 218.69 79 M238.44 59.25 C238.44 72.42, 231.85 79, 218.69 79 M218.69 79 C175.72 79, 132.76 79, 19.75 79 M218.69 79 C147.95 79, 77.21 79, 19.75 79 M19.75 79 C6.58 79, 0 72.42, 0 59.25 M19.75 79 C6.58 79, 0 72.42, 0 59.25 M0 59.25 C0 50.64, 0 42.02, 0 19.75 M0 59.25 C0 50.51, 0 41.78, 0 19.75 M0 19.75 C0 6.58, 6.58 0, 19.75 0 M0 19.75 C0 6.58, 6.58 0, 19.75 0" stroke="#1e1e1e" stroke-width="2" fill="none"></path></g><g transform="translate(49.73168945312503 489.734378705705) rotate(0 79.4873046875 23)"><text x="79.4873046875" y="0" font-family="Helvetica, Segoe UI Emoji" font-size="20px" fill="#1e1e1e" text-anchor="middle" style="white-space: pre;" direction="ltr" dominant-baseline="text-before-edge">Ресурсы</text><text x="79.4873046875" y="23" font-family="Helvetica, Segoe UI Emoji" font-size="20px" fill="#1e1e1e" text-anchor="middle" style="white-space: pre;" direction="ltr" dominant-baseline="text-before-edge">seaf.ba.resources</text></g><g stroke-linecap="round"><g transform="translate(700.7672576904297 435.8667786359263) rotate(0 -137.6048080534987 -42.58819152027948)"><path d="M0 0 C-78.02 -0.22, -156.04 -0.43, -274.36 -0.76 M0 0 C-67.71 -0.19, -135.42 -0.38, -274.36 -0.76 M-274.36 -0.76 C-274.64 -28.78, -274.92 -56.8, -275.21 -85.18 M-274.36 -0.76 C-274.55 -19.87, -274.74 -38.97, -275.21 -85.18" stroke="#1e1e1e" stroke-width="2" fill="none"></path></g><g transform="translate(700.7672576904297 435.8667786359263) rotate(0 -137.6048080534987 -42.58819152027948)"><path d="M-275.21 -85.18 L-268.73 -71.65 L-281.41 -71.52 L-275.21 -85.18" stroke="none" stroke-width="0" fill="#1e1e1e" fill-rule="evenodd"></path><path d="M-275.21 -85.18 C-273.37 -81.33, -271.53 -77.48, -268.73 -71.65 M-275.21 -85.18 C-273.61 -81.84, -272.01 -78.5, -268.73 -71.65 M-268.73 -71.65 C-272.94 -71.6, -277.15 -71.56, -281.41 -71.52 M-268.73 -71.65 C-271.6 -71.62, -274.47 -71.59, -281.41 -71.52 M-281.41 -71.52 C-280.1 -74.42, -278.78 -77.31, -275.21 -85.18 M-281.41 -71.52 C-279.94 -74.76, -278.47 -77.99, -275.21 -85.18 M-275.21 -85.18 C-275.21 -85.18, -275.21 -85.18, -275.21 -85.18 M-275.21 -85.18 C-275.21 -85.18, -275.21 -85.18, -275.21 -85.18" stroke="#1e1e1e" stroke-width="2" fill="none"></path></g></g><mask></mask><g stroke-linecap="round"><g transform="translate(247.98113880216656 514.9200943180379) rotate(0 15.143688869180451 -81.47454975580752)"><path d="M0 0 C9.02 -0.13, 18.04 -0.27, 30.29 -0.45 M0 0 C11.03 -0.16, 22.07 -0.33, 30.29 -0.45 M30.29 -0.45 C30.1 -33.09, 29.92 -65.73, 29.36 -162.95 M30.29 -0.45 C29.97 -56.91, 29.65 -113.37, 29.36 -162.95" stroke="#1e1e1e" stroke-width="2" fill="none"></path></g><g transform="translate(247.98113880216656 514.9200943180379) rotate(0 15.143688869180451 -81.47454975580752)"><path d="M29.36 -162.95 L35.78 -149.39 L23.1 -149.32 L29.36 -162.95" stroke="none" stroke-width="0" fill="#1e1e1e" fill-rule="evenodd"></path><path d="M29.36 -162.95 C31.27 -158.91, 33.19 -154.87, 35.78 -149.39 M29.36 -162.95 C31.7 -158.01, 34.04 -153.07, 35.78 -149.39 M35.78 -149.39 C33.23 -149.38, 30.69 -149.36, 23.1 -149.32 M35.78 -149.39 C31.38 -149.37, 26.97 -149.34, 23.1 -149.32 M23.1 -149.32 C24.99 -153.44, 26.89 -157.55, 29.36 -162.95 M23.1 -149.32 C24.46 -152.27, 25.82 -155.22, 29.36 -162.95 M29.36 -162.95 C29.36 -162.95, 29.36 -162.95, 29.36 -162.95 M29.36 -162.95 C29.36 -162.95, 29.36 -162.95, 29.36 -162.95" stroke="#1e1e1e" stroke-width="2" fill="none"></path></g></g><mask></mask><g stroke-linecap="round"><g transform="translate(446.24307794268094 137.65040085970776) rotate(0 152.25722994955797 77.83731352177159)"><path d="M0 0 C50.75 25.95, 253.76 129.73, 304.51 155.67 M0 0 C50.75 25.95, 253.76 129.73, 304.51 155.67" stroke="#1e1e1e" stroke-width="2" fill="none"></path></g><g transform="translate(446.24307794268094 137.65040085970776) rotate(0 152.25722994955797 77.83731352177159)"><path d="M304.51 155.67 L289.52 155.13 L295.3 143.84 L304.51 155.67" stroke="none" stroke-width="0" fill="#1e1e1e" fill-rule="evenodd"></path><path d="M304.51 155.67 C300.1 155.51, 295.69 155.35, 289.52 155.13 M304.51 155.67 C300.43 155.53, 296.36 155.38, 289.52 155.13 M289.52 155.13 C291.4 151.47, 293.27 147.81, 295.3 143.84 M289.52 155.13 C291.24 151.78, 292.95 148.43, 295.3 143.84 M295.3 143.84 C297.58 146.78, 299.87 149.71, 304.51 155.67 M295.3 143.84 C297.45 146.6, 299.6 149.36, 304.51 155.67 M304.51 155.67 C304.51 155.67, 304.51 155.67, 304.51 155.67 M304.51 155.67 C304.51 155.67, 304.51 155.67, 304.51 155.67" stroke="#1e1e1e" stroke-width="2" fill="none"></path></g></g><mask></mask><g stroke-linecap="round"><g transform="translate(294.5678357648711 290.59642399379095) rotate(0 -0.7208521010945788 -72.9334487915039)"><path d="M0 0 C-0.24 -24.31, -1.2 -121.56, -1.44 -145.87 M0 0 C-0.24 -24.31, -1.2 -121.56, -1.44 -145.87" stroke="#1e1e1e" stroke-width="2" fill="none"></path></g><g transform="translate(294.5678357648711 290.59642399379095) rotate(0 -0.7208521010945788 -72.9334487915039)"><path d="M-1.44 -145.87 L5.03 -132.34 L-7.65 -132.21 L-1.44 -145.87" stroke="none" stroke-width="0" fill="#1e1e1e" fill-rule="evenodd"></path><path d="M-1.44 -145.87 C0.02 -142.81, 1.49 -139.74, 5.03 -132.34 M-1.44 -145.87 C0.13 -142.58, 1.71 -139.29, 5.03 -132.34 M5.03 -132.34 C0.26 -132.29, -4.52 -132.24, -7.65 -132.21 M5.03 -132.34 C2.3 -132.31, -0.44 -132.28, -7.65 -132.21 M-7.65 -132.21 C-5.17 -137.67, -2.68 -143.13, -1.44 -145.87 M-7.65 -132.21 C-5.51 -136.92, -3.37 -141.63, -1.44 -145.87 M-1.44 -145.87 C-1.44 -145.87, -1.44 -145.87, -1.44 -145.87 M-1.44 -145.87 C-1.44 -145.87, -1.44 -145.87, -1.44 -145.87" stroke="#1e1e1e" stroke-width="2" fill="none"></path></g></g><mask></mask><g stroke-linecap="round"><g transform="translate(801.3246288681091 282.3721960885175) rotate(0 -177.29785825729675 -85.4270085940312)"><path d="M0 0 C-0.8 -40.24, -1.59 -80.48, -3.36 -169.66 M0 0 C-0.78 -39.22, -1.55 -78.44, -3.36 -169.66 M-3.36 -169.66 C-116.49 -170.04, -229.62 -170.43, -354.6 -170.85 M-3.36 -169.66 C-122.36 -170.06, -241.36 -170.47, -354.6 -170.85" stroke="#1e1e1e" stroke-width="2" fill="none"></path></g><g transform="translate(801.3246288681091 282.3721960885175) rotate(0 -177.29785825729675 -85.4270085940312)"><path d="M-354.6 -170.85 L-340.98 -177.15 L-341.02 -164.47 L-354.6 -170.85" stroke="none" stroke-width="0" fill="#1e1e1e" fill-rule="evenodd"></path><path d="M-354.6 -170.85 C-351.37 -172.35, -348.14 -173.84, -340.98 -177.15 M-354.6 -170.85 C-351.45 -172.31, -348.3 -173.76, -340.98 -177.15 M-340.98 -177.15 C-340.99 -173.06, -341.01 -168.98, -341.02 -164.47 M-340.98 -177.15 C-340.99 -172.85, -341.01 -168.56, -341.02 -164.47 M-341.02 -164.47 C-344.67 -166.19, -348.32 -167.9, -354.6 -170.85 M-341.02 -164.47 C-344.26 -165.99, -347.5 -167.52, -354.6 -170.85 M-354.6 -170.85 C-354.6 -170.85, -354.6 -170.85, -354.6 -170.85 M-354.6 -170.85 C-354.6 -170.85, -354.6 -170.85, -354.6 -170.85" stroke="#1e1e1e" stroke-width="2" fill="none"></path></g></g><mask></mask><g stroke-linecap="round"><g transform="translate(450.03769138881137 319.6105156452061) rotate(0 148.08821977887834 -0.882525523617403)"><path d="M0 0 C49.36 -0.29, 246.81 -1.47, 296.18 -1.77 M0 0 C49.36 -0.29, 246.81 -1.47, 296.18 -1.77" stroke="#1e1e1e" stroke-width="2" fill="none"></path></g><g transform="translate(450.03769138881137 319.6105156452061) rotate(0 148.08821977887834 -0.882525523617403)"><path d="M296.18 -1.77 L282.62 4.66 L282.54 -8.02 L296.18 -1.77" stroke="none" stroke-width="0" fill="#1e1e1e" fill-rule="evenodd"></path><path d="M296.18 -1.77 C291.09 0.65, 285.99 3.06, 282.62 4.66 M296.18 -1.77 C293.09 -0.3, 290 1.16, 282.62 4.66 M282.62 4.66 C282.59 0.26, 282.57 -4.14, 282.54 -8.02 M282.62 4.66 C282.6 2.09, 282.59 -0.47, 282.54 -8.02 M282.54 -8.02 C286.33 -6.29, 290.12 -4.55, 296.18 -1.77 M282.54 -8.02 C286.99 -5.98, 291.43 -3.94, 296.18 -1.77 M296.18 -1.77 C296.18 -1.77, 296.18 -1.77, 296.18 -1.77 M296.18 -1.77 C296.18 -1.77, 296.18 -1.77, 296.18 -1.77" stroke="#1e1e1e" stroke-width="2" fill="none"></path></g></g><mask></mask><g stroke-linecap="round" transform="translate(260.35726928710943 79.47235477992376) rotate(0 91.6905517578125 30)"><path d="M15 0 C45.92 0, 76.85 0, 168.38 0 M15 0 C69.23 0, 123.46 0, 168.38 0 M168.38 0 C178.38 0, 183.38 5, 183.38 15 M168.38 0 C178.38 0, 183.38 5, 183.38 15 M183.38 15 C183.38 23.66, 183.38 32.33, 183.38 45 M183.38 15 C183.38 21.38, 183.38 27.76, 183.38 45 M183.38 45 C183.38 55, 178.38 60, 168.38 60 M183.38 45 C183.38 55, 178.38 60, 168.38 60 M168.38 60 C132.36 60, 96.34 60, 15 60 M168.38 60 C121.55 60, 74.73 60, 15 60 M15 60 C5 60, 0 55, 0 45 M15 60 C5 60, 0 55, 0 45 M0 45 C0 37.46, 0 29.91, 0 15 M0 45 C0 34.17, 0 23.34, 0 15 M0 15 C0 5, 5 0, 15 0 M0 15 C0 5, 5 0, 15 0" stroke="#1e1e1e" stroke-width="2" fill="none"></path></g><g transform="translate(283.67379760742193 86.47235477992376) rotate(0 68.3740234375 23)"><text x="68.3740234375" y="0" font-family="Helvetica, Segoe UI Emoji" font-size="20px" fill="#1e1e1e" text-anchor="middle" style="white-space: pre;" direction="ltr" dominant-baseline="text-before-edge">Участники</text><text x="68.3740234375" y="23" font-family="Helvetica, Segoe UI Emoji" font-size="20px" fill="#1e1e1e" text-anchor="middle" style="white-space: pre;" direction="ltr" dominant-baseline="text-before-edge"> seaf.ba.parties</text></g><g stroke-linecap="round"><g transform="translate(310.51548145340854 77.66527317592045) rotate(0 32.7654874541295 -12.0916603088382)"><path d="M0 0 C5.43 -4.17, 21.66 -25.12, 32.58 -24.99 C43.5 -24.86, 60.04 -3.49, 65.53 0.81 M0 0 C5.43 -4.17, 21.66 -25.12, 32.58 -24.99 C43.5 -24.86, 60.04 -3.49, 65.53 0.81" stroke="#1e1e1e" stroke-width="2" fill="none"></path></g><g transform="translate(310.51548145340854 77.66527317592045) rotate(0 32.7654874541295 -12.0916603088382)"><path d="M65.53 0.81 L51.42 -4.29 L60.37 -13.28 L65.53 0.81" stroke="none" stroke-width="0" fill="#1e1e1e" fill-rule="evenodd"></path><path d="M65.53 0.81 C60.41 -1.04, 55.3 -2.89, 51.42 -4.29 M65.53 0.81 C61.9 -0.51, 58.27 -1.82, 51.42 -4.29 M51.42 -4.29 C54.47 -7.35, 57.52 -10.42, 60.37 -13.28 M51.42 -4.29 C54.19 -7.07, 56.96 -9.85, 60.37 -13.28 M60.37 -13.28 C61.67 -9.73, 62.97 -6.19, 65.53 0.81 M60.37 -13.28 C62.05 -8.69, 63.73 -4.1, 65.53 0.81 M65.53 0.81 C65.53 0.81, 65.53 0.81, 65.53 0.81 M65.53 0.81 C65.53 0.81, 65.53 0.81, 65.53 0.81" stroke="#1e1e1e" stroke-width="2" fill="none"></path></g></g><mask></mask><g transform="translate(300.8763183593754 27.851000104631368) rotate(0 62.16015625 9.2)"><text x="0" y="0" font-family="Helvetica, Segoe UI Emoji" font-size="16px" fill="#1e1e1e" text-anchor="start" style="white-space: pre;" direction="ltr" dominant-baseline="text-before-edge">является частью</text></g><g transform="translate(522.6024841308597 91.084322248186) rotate(0.9943074148522117 35.734375 9.200000000000003)"><text x="0" y="0" font-family="Helvetica, Segoe UI Emoji" font-size="16px" fill="#1e1e1e" text-anchor="start" style="white-space: pre;" direction="ltr" dominant-baseline="text-before-edge">владелец</text></g><g stroke-linecap="round" transform="translate(750.34326171875 287.82477177211126) rotate(0 91.6905517578125 28)"><path d="M14 0 C58.9 0, 103.8 0, 169.38 0 M14 0 C75.92 0, 137.83 0, 169.38 0 M169.38 0 C178.71 0, 183.38 4.67, 183.38 14 M169.38 0 C178.71 0, 183.38 4.67, 183.38 14 M183.38 14 C183.38 23.96, 183.38 33.91, 183.38 42 M183.38 14 C183.38 22.6, 183.38 31.2, 183.38 42 M183.38 42 C183.38 51.33, 178.71 56, 169.38 56 M183.38 42 C183.38 51.33, 178.71 56, 169.38 56 M169.38 56 C132.77 56, 96.17 56, 14 56 M169.38 56 C133.97 56, 98.57 56, 14 56 M14 56 C4.67 56, 0 51.33, 0 42 M14 56 C4.67 56, 0 51.33, 0 42 M0 42 C0 36.16, 0 30.31, 0 14 M0 42 C0 32.62, 0 23.25, 0 14 M0 14 C0 4.67, 4.67 0, 14 0 M0 14 C0 4.67, 4.67 0, 14 0" stroke="#1e1e1e" stroke-width="2" fill="none"></path></g><g transform="translate(765.3199462890625 292.82477177211126) rotate(0 76.7138671875 23)"><text x="76.7138671875" y="0" font-family="Helvetica, Segoe UI Emoji" font-size="20px" fill="#1e1e1e" text-anchor="middle" style="white-space: pre;" direction="ltr" dominant-baseline="text-before-edge">Продукты</text><text x="76.7138671875" y="23" font-family="Helvetica, Segoe UI Emoji" font-size="20px" fill="#1e1e1e" text-anchor="middle" style="white-space: pre;" direction="ltr" dominant-baseline="text-before-edge"> seaf.ba.products</text></g><g stroke-linecap="round"><g transform="translate(846.0787721546831 286.2641447884696) rotate(0 31.489793031226554 -12.396469879150686)"><path d="M0 0 C5 -4.22, 19.53 -25.38, 30.03 -25.3 C40.53 -25.21, 57.49 -3.8, 62.98 0.5 M0 0 C5 -4.22, 19.53 -25.38, 30.03 -25.3 C40.53 -25.21, 57.49 -3.8, 62.98 0.5" stroke="#1e1e1e" stroke-width="2" fill="none"></path></g><g transform="translate(846.0787721546831 286.2641447884696) rotate(0 31.489793031226554 -12.396469879150686)"><path d="M62.98 0.5 L48.85 -4.53 L57.75 -13.56 L62.98 0.5" stroke="none" stroke-width="0" fill="#1e1e1e" fill-rule="evenodd"></path><path d="M62.98 0.5 C57.82 -1.33, 52.67 -3.17, 48.85 -4.53 M62.98 0.5 C58 -1.27, 53.03 -3.04, 48.85 -4.53 M48.85 -4.53 C50.92 -6.63, 52.99 -8.72, 57.75 -13.56 M48.85 -4.53 C50.79 -6.5, 52.73 -8.47, 57.75 -13.56 M57.75 -13.56 C59.55 -8.71, 61.36 -3.86, 62.98 0.5 M57.75 -13.56 C59.61 -8.57, 61.46 -3.58, 62.98 0.5 M62.98 0.5 C62.98 0.5, 62.98 0.5, 62.98 0.5 M62.98 0.5 C62.98 0.5, 62.98 0.5, 62.98 0.5" stroke="#1e1e1e" stroke-width="2" fill="none"></path></g></g><mask></mask><g transform="translate(818.8120483398441 221.2117430550711) rotate(0 56.86328125 18.400000000000006)"><text x="56.86328125" y="0" font-family="Helvetica, Segoe UI Emoji" font-size="16px" fill="#1e1e1e" text-anchor="middle" style="white-space: pre;" direction="ltr" dominant-baseline="text-before-edge">потребляется в</text><text x="56.86328125" y="18.4" font-family="Helvetica, Segoe UI Emoji" font-size="16px" fill="#1e1e1e" text-anchor="middle" style="white-space: pre;" direction="ltr" dominant-baseline="text-before-edge">составе</text></g><g transform="translate(242.0943054199222 214.7510397774829) rotate(267.7531676809026 35.734375 9.200000000000003)"><text x="0" y="0" font-family="Helvetica, Segoe UI Emoji" font-size="16px" fill="#1e1e1e" text-anchor="start" style="white-space: pre;" direction="ltr" dominant-baseline="text-before-edge">владелец</text></g><g transform="translate(512.1582756662627 177.61531702606172) rotate(28.251793212812707 55.4921875 9.200000000000003)"><text x="0" y="0" font-family="Helvetica, Segoe UI Emoji" font-size="16px" fill="#1e1e1e" text-anchor="start" style="white-space: pre;" direction="ltr" dominant-baseline="text-before-edge">заинтересован</text></g><g stroke-linecap="round"><g transform="translate(325.3873531260117 292.2121092660086) rotate(0 37.998352204384844 -12.535726928710915)"><path d="M0 0 C5.95 -4.18, 23.04 -24.63, 35.71 -25.07 C48.38 -25.51, 69.28 -6.39, 76 -2.65 M0 0 C5.95 -4.18, 23.04 -24.63, 35.71 -25.07 C48.38 -25.51, 69.28 -6.39, 76 -2.65" stroke="#1e1e1e" stroke-width="2" fill="none"></path></g><g transform="translate(325.3873531260117 292.2121092660086) rotate(0 37.998352204384844 -12.535726928710915)"><path d="M76 -2.65 L61.24 -5.34 L68.58 -15.69 L76 -2.65" stroke="none" stroke-width="0" fill="#1e1e1e" fill-rule="evenodd"></path><path d="M76 -2.65 C70.39 -3.67, 64.78 -4.7, 61.24 -5.34 M76 -2.65 C70.68 -3.62, 65.37 -4.59, 61.24 -5.34 M61.24 -5.34 C62.82 -7.58, 64.41 -9.81, 68.58 -15.69 M61.24 -5.34 C63.71 -8.82, 66.17 -12.29, 68.58 -15.69 M68.58 -15.69 C71.04 -11.36, 73.5 -7.03, 76 -2.65 M68.58 -15.69 C71.5 -10.55, 74.42 -5.42, 76 -2.65 M76 -2.65 C76 -2.65, 76 -2.65, 76 -2.65 M76 -2.65 C76 -2.65, 76 -2.65, 76 -2.65" stroke="#1e1e1e" stroke-width="2" fill="none"></path></g></g><mask></mask><g transform="translate(330.4412292480472 222.50735157557892) rotate(0 33.48828125 18.400000000000006)"><text x="0" y="0" font-family="Helvetica, Segoe UI Emoji" font-size="16px" fill="#1e1e1e" text-anchor="start" style="white-space: pre;" direction="ltr" dominant-baseline="text-before-edge">является</text><text x="0" y="18.4" font-family="Helvetica, Segoe UI Emoji" font-size="16px" fill="#1e1e1e" text-anchor="start" style="white-space: pre;" direction="ltr" dominant-baseline="text-before-edge">частью</text></g><g stroke-linecap="round"><g transform="translate(350.6997774633612 372.9405438350629) rotate(180.48121914619563 16.52566799469392 -7.399394099959721)"><path d="M0 0 C1.19 -2.95, 1.66 -18.18, 7.17 -17.7 C12.68 -17.21, 28.74 -0.53, 33.05 2.9 M0 0 C1.19 -2.95, 1.66 -18.18, 7.17 -17.7 C12.68 -17.21, 28.74 -0.53, 33.05 2.9" stroke="#1e1e1e" stroke-width="2" fill="none"></path></g><g transform="translate(350.6997774633612 372.9405438350629) rotate(180.48121914619563 16.52566799469392 -7.399394099959721)"><path d="M33.05 2.9 L18.73 -1.56 L27.26 -10.94 L33.05 2.9" stroke="none" stroke-width="0" fill="#1e1e1e" fill-rule="evenodd"></path><path d="M33.05 2.9 C27.63 1.21, 22.2 -0.48, 18.73 -1.56 M33.05 2.9 C29.03 1.65, 25.02 0.39, 18.73 -1.56 M18.73 -1.56 C20.95 -4.01, 23.17 -6.45, 27.26 -10.94 M18.73 -1.56 C20.68 -3.71, 22.63 -5.85, 27.26 -10.94 M27.26 -10.94 C28.57 -7.82, 29.87 -4.7, 33.05 2.9 M27.26 -10.94 C29.1 -6.56, 30.93 -2.17, 33.05 2.9 M33.05 2.9 C33.05 2.9, 33.05 2.9, 33.05 2.9 M33.05 2.9 C33.05 2.9, 33.05 2.9, 33.05 2.9" stroke="#1e1e1e" stroke-width="2" fill="none"></path></g></g><mask></mask><g transform="translate(318.88050150602544 373.2886943773058) rotate(359.32801003628407 43.76953125 9.199999999999989)"><text x="0" y="0" font-family="Helvetica, Segoe UI Emoji" font-size="16px" fill="#1e1e1e" text-anchor="start" style="white-space: pre;" direction="ltr" dominant-baseline="text-before-edge">поток работ</text></g><g transform="translate(535.0934053250896 414.33741741796155) rotate(359.68742604288525 53.1171875 9.199999999999989)"><text x="0" y="0" font-family="Helvetica, Segoe UI Emoji" font-size="16px" fill="#1e1e1e" text-anchor="start" style="white-space: pre;" direction="ltr" dominant-baseline="text-before-edge">поддерживает</text></g><g transform="translate(535.5211853027347 298.10334995814696) rotate(359.93565833778115 53.1171875 9.199999999999989)"><text x="0" y="0" font-family="Helvetica, Segoe UI Emoji" font-size="16px" fill="#1e1e1e" text-anchor="start" style="white-space: pre;" direction="ltr" dominant-baseline="text-before-edge">поддерживает</text></g><g stroke-linecap="round"><g transform="translate(420.2400568269387 141.12030021779924) rotate(0 2.109925821055839 75.87554037414131)"><path d="M0 0 C0.7 25.29, 3.52 126.46, 4.22 151.75" stroke="#1e1e1e" stroke-width="2.5" fill="none" stroke-dasharray="1.5 8"></path></g><g transform="translate(420.2400568269387 141.12030021779924) rotate(0 2.109925821055839 75.87554037414131)"><path d="M4.22 151.75 L-2.49 138.34 L10.18 137.99 L4.22 151.75" stroke="none" stroke-width="0" fill="#1e1e1e" fill-rule="evenodd"></path><path d="M4.22 151.75 C1.66 146.63, -0.91 141.51, -2.49 138.34 M-2.49 138.34 C1.66 138.22, 5.82 138.11, 10.18 137.99 M10.18 137.99 C8.11 142.76, 6.04 147.54, 4.22 151.75 M4.22 151.75 C4.22 151.75, 4.22 151.75, 4.22 151.75" stroke="#1e1e1e" stroke-width="2.5" fill="none"></path></g></g><mask></mask><g transform="translate(370.68678604047506 209.90777189872452) rotate(267.84912216245453 59.65234375 9.200000000000003)"><text x="0" y="0" font-family="Helvetica, Segoe UI Emoji" font-size="16px" fill="#1e1e1e" text-anchor="start" style="white-space: pre;" direction="ltr" dominant-baseline="text-before-edge">выполняет роль</text></g><g transform="translate(536.1781173706061 508.50342320033485) rotate(359.68742604288525 53.11718750000003 9.199999999999989)"><text x="0" y="0" font-family="Helvetica, Segoe UI Emoji" font-size="16px" fill="#1e1e1e" text-anchor="start" style="white-space: pre;" direction="ltr" dominant-baseline="text-before-edge">поддерживает</text></g><g transform="translate(281.36020048975024 456.0336921802863) rotate(269.90863080975294 28.636718749999986 9.199999999999989)"><text x="0" y="0" font-family="Helvetica, Segoe UI Emoji" font-size="16px" fill="#1e1e1e" text-anchor="start" style="white-space: pre;" direction="ltr" dominant-baseline="text-before-edge">требует</text></g><g mask="url(#mask-RzxgCJJQx4R8qlDtyfoh6)" stroke-linecap="round"><g transform="translate(927.4745651335771 583.2155008290124) rotate(0 -166.86674042654556 0.38318299143929835)"><path d="M0 0 C-121.24 0.28, -242.48 0.56, -333.73 0.77" stroke="#1e1e1e" stroke-width="2.5" fill="none" stroke-dasharray="1.5 8"></path></g><g transform="translate(927.4745651335771 583.2155008290124) rotate(0 -166.86674042654556 0.38318299143929835)"><path d="M-333.73 0.77 L-320.15 -5.6 L-320.12 7.07 L-333.73 0.77" stroke="none" stroke-width="0" fill="#1e1e1e" fill-rule="evenodd"></path><path d="M-333.73 0.77 C-328.8 -1.55, -323.87 -3.86, -320.15 -5.6 M-320.15 -5.6 C-320.15 -2.28, -320.14 1.04, -320.12 7.07 M-320.12 7.07 C-323.89 5.33, -327.66 3.58, -333.73 0.77 M-333.73 0.77 C-333.73 0.77, -333.73 0.77, -333.73 0.77" stroke="#1e1e1e" stroke-width="2.5" fill="none"></path></g></g><mask id="mask-RzxgCJJQx4R8qlDtyfoh6"><rect x="0" y="0" fill="#fff" width="1361.2080459866684" height="683.981866811891"></rect><rect x="673.1703247070317" y="574.3986838204517" fill="#000" width="174.875" height="18.4" opacity="1"></rect></mask><g transform="translate(673.1703247070316 574.3986838204517) rotate(0 87.4375 9.200000000000045)"><text x="87.4375" y="0" font-family="Helvetica, Segoe UI Emoji" font-size="16px" fill="#1e1e1e" text-anchor="middle" style="white-space: pre;" direction="ltr" dominant-baseline="text-before-edge">в процессе реализации</text></g><g mask="url(#mask-PVtTZhM7AZFbhfarM5zlV)" stroke-linecap="round"><g transform="translate(927.7503219695146 618.024964329989) rotate(0 -166.86674042654556 0.38318299143929835)"><path d="M0 0 C-69.12 0.16, -138.25 0.32, -333.73 0.77 M0 0 C-133.26 0.31, -266.52 0.61, -333.73 0.77" stroke="#1e1e1e" stroke-width="2" fill="none"></path></g><g transform="translate(927.7503219695146 618.024964329989) rotate(0 -166.86674042654556 0.38318299143929835)"><path d="M-333.73 0.77 L-320.15 -5.6 L-320.12 7.07 L-333.73 0.77" stroke="none" stroke-width="0" fill="#1e1e1e" fill-rule="evenodd"></path><path d="M-333.73 0.77 C-330.92 -0.55, -328.11 -1.87, -320.15 -5.6 M-333.73 0.77 C-328.31 -1.78, -322.89 -4.32, -320.15 -5.6 M-320.15 -5.6 C-320.14 -1.18, -320.13 3.24, -320.12 7.07 M-320.15 -5.6 C-320.15 -2.37, -320.14 0.87, -320.12 7.07 M-320.12 7.07 C-323.15 5.67, -326.18 4.27, -333.73 0.77 M-320.12 7.07 C-323.18 5.66, -326.23 4.25, -333.73 0.77 M-333.73 0.77 C-333.73 0.77, -333.73 0.77, -333.73 0.77 M-333.73 0.77 C-333.73 0.77, -333.73 0.77, -333.73 0.77" stroke="#1e1e1e" stroke-width="2" fill="none"></path></g></g><mask id="mask-PVtTZhM7AZFbhfarM5zlV"><rect x="0" y="0" fill="#fff" width="1361.4838028226059" height="718.7913303128676"></rect><rect x="712.8953002929692" y="609.2081473214282" fill="#000" width="95.9765625" height="18.4" opacity="1"></rect></mask><g transform="translate(712.8953002929691 609.2081473214282) rotate(0 47.98828125 9.200000000000045)"><text x="47.98828125" y="0" font-family="Helvetica, Segoe UI Emoji" font-size="16px" fill="#1e1e1e" text-anchor="middle" style="white-space: pre;" direction="ltr" dominant-baseline="text-before-edge">реализовано</text></g><g stroke-linecap="round"><g transform="translate(106.66473568614313 467.30041399513857) rotate(0 78.07248629120035 -77.6327125642926)"><path d="M0 0 C0.21 -40.67, 0.43 -81.34, 0.82 -155.27 M0 0 C0.31 -57.75, 0.61 -115.49, 0.82 -155.27 M0.82 -155.27 C42.98 -155.2, 85.13 -155.14, 156.14 -155.03 M0.82 -155.27 C33.53 -155.21, 66.23 -155.16, 156.14 -155.03" stroke="#1e1e1e" stroke-width="2" fill="none"></path></g><g transform="translate(106.66473568614313 467.30041399513857) rotate(0 78.07248629120035 -77.6327125642926)"><path d="M156.14 -155.03 L142.54 -148.71 L142.56 -161.39 L156.14 -155.03" stroke="none" stroke-width="0" fill="#1e1e1e" fill-rule="evenodd"></path><path d="M156.14 -155.03 C152.58 -153.37, 149.02 -151.72, 142.54 -148.71 M156.14 -155.03 C151.09 -152.68, 146.03 -150.33, 142.54 -148.71 M142.54 -148.71 C142.55 -152.15, 142.55 -155.59, 142.56 -161.39 M142.54 -148.71 C142.54 -151.38, 142.55 -154.05, 142.56 -161.39 M142.56 -161.39 C146.2 -159.68, 149.83 -157.98, 156.14 -155.03 M142.56 -161.39 C146.38 -159.6, 150.2 -157.81, 156.14 -155.03 M156.14 -155.03 C156.14 -155.03, 156.14 -155.03, 156.14 -155.03 M156.14 -155.03 C156.14 -155.03, 156.14 -155.03, 156.14 -155.03" stroke="#1e1e1e" stroke-width="2" fill="none"></path></g></g><mask></mask><g stroke-linecap="round"><g transform="translate(266.11540670938865 461.0862542619919) rotate(270.3422495562599 -66.78385419114002 -61.09600110030132)"><path d="M0 0 C-0.02 -31.49, -0.04 -62.98, -0.08 -122.19 M0 0 C-0.02 -33.05, -0.05 -66.11, -0.08 -122.19 M-0.08 -122.19 C-48.49 -122.12, -96.89 -122.04, -133.57 -121.99 M-0.08 -122.19 C-45.66 -122.12, -91.24 -122.05, -133.57 -121.99" stroke="#1e1e1e" stroke-width="2" fill="none"></path></g><g transform="translate(266.11540670938865 461.0862542619919) rotate(270.3422495562599 -66.78385419114002 -61.09600110030132)"><path d="M-133.57 -121.99 L-119.98 -128.35 L-119.96 -115.67 L-133.57 -121.99" stroke="none" stroke-width="0" fill="#1e1e1e" fill-rule="evenodd"></path><path d="M-133.57 -121.99 C-130.07 -123.63, -126.57 -125.26, -119.98 -128.35 M-133.57 -121.99 C-129.89 -123.71, -126.22 -125.43, -119.98 -128.35 M-119.98 -128.35 C-119.98 -123.75, -119.97 -119.15, -119.96 -115.67 M-119.98 -128.35 C-119.98 -124.02, -119.97 -119.69, -119.96 -115.67 M-119.96 -115.67 C-125.4 -118.19, -130.84 -120.72, -133.57 -121.99 M-119.96 -115.67 C-124.18 -117.62, -128.39 -119.58, -133.57 -121.99 M-133.57 -121.99 C-133.57 -121.99, -133.57 -121.99, -133.57 -121.99 M-133.57 -121.99 C-133.57 -121.99, -133.57 -121.99, -133.57 -121.99" stroke="#1e1e1e" stroke-width="2" fill="none"></path></g></g><mask></mask><g transform="translate(41.55437951550758 404.2623970268749) rotate(269.90863080975294 50.390625 9.199999999999989)"><text x="0" y="0" font-family="Helvetica, Segoe UI Emoji" font-size="16px" fill="#1e1e1e" text-anchor="start" style="white-space: pre;" direction="ltr" dominant-baseline="text-before-edge">потребляется</text></g><g transform="translate(110.77162696509852 396.73864730410924) rotate(269.90863080975294 42.60156249999999 9.199999999999989)"><text x="0" y="0" font-family="Helvetica, Segoe UI Emoji" font-size="16px" fill="#1e1e1e" text-anchor="start" style="white-space: pre;" direction="ltr" dominant-baseline="text-before-edge">производит</text></g></svg>