<svg version="1.1" xmlns="http://www.w3.org/2000/svg" viewBox="0 0 672.619384765625 313.0381851196289" width="672.619384765625" height="313.0381851196289">
  <!-- svg-source:excalidraw -->
  
  <defs>
    <style class="style-fonts">
      @font-face {
        font-family: "Virgil";
        src: url("https://file%2B.vscode-resource.vscode-cdn.net/home/ginkgo/.vscode/extensions/pomdtr.excalidraw-editor-3.7.3/public//dist/excalidraw-assets/Virgil.woff2");
      }
      @font-face {
        font-family: "Cascadia";
        src: url("https://file%2B.vscode-resource.vscode-cdn.net/home/ginkgo/.vscode/extensions/pomdtr.excalidraw-editor-3.7.3/public//dist/excalidraw-assets/Cascadia.woff2");
      }
      @font-face {
        font-family: "Assistant";
        src: url("https://file%2B.vscode-resource.vscode-cdn.net/home/ginkgo/.vscode/extensions/pomdtr.excalidraw-editor-3.7.3/public//dist/excalidraw-assets/Assistant-Regular.woff2");
      }
    </style>
    
  </defs>
  <rect x="0" y="0" width="672.619384765625" height="313.0381851196289" fill="#ffffff"></rect><g stroke-linecap="round" transform="translate(10 34.42968826293918) rotate(0 91.6905517578125 132.40005111694336)"><path d="M32 0 C71.74 0, 111.48 0, 151.38 0 M32 0 C67.08 0, 102.15 0, 151.38 0 M151.38 0 C172.71 0, 183.38 10.67, 183.38 32 M151.38 0 C172.71 0, 183.38 10.67, 183.38 32 M183.38 32 C183.38 89.19, 183.38 146.37, 183.38 232.8 M183.38 32 C183.38 105.18, 183.38 178.37, 183.38 232.8 M183.38 232.8 C183.38 254.13, 172.71 264.8, 151.38 264.8 M183.38 232.8 C183.38 254.13, 172.71 264.8, 151.38 264.8 M151.38 264.8 C120.48 264.8, 89.58 264.8, 32 264.8 M151.38 264.8 C110.95 264.8, 70.52 264.8, 32 264.8 M32 264.8 C10.67 264.8, 0 254.13, 0 232.8 M32 264.8 C10.67 264.8, 0 254.13, 0 232.8 M0 232.8 C0 171.55, 0 110.3, 0 32 M0 232.8 C0 186.87, 0 140.95, 0 32 M0 32 C0 10.67, 10.67 0, 32 0 M0 32 C0 10.67, 10.67 0, 32 0" stroke="#1e1e1e" stroke-width="2" fill="none"></path></g><g transform="translate(59.72059631347656 39.42968826293918) rotate(0 41.96995544433594 12.5)"><text x="41.96995544433594" y="0" font-family="Virgil, Segoe UI Emoji" font-size="20px" fill="#1e1e1e" text-anchor="middle" style="white-space: pre;" direction="ltr" dominant-baseline="text-before-edge">Участник</text></g><g stroke-linecap="round" transform="translate(479.23828125 36.504791259765625) rotate(0 91.6905517578125 129.65716552734375)"><path d="M32 0 C79.37 0, 126.74 0, 151.38 0 M32 0 C65.3 0, 98.59 0, 151.38 0 M151.38 0 C172.71 0, 183.38 10.67, 183.38 32 M151.38 0 C172.71 0, 183.38 10.67, 183.38 32 M183.38 32 C183.38 105.06, 183.38 178.11, 183.38 227.31 M183.38 32 C183.38 82, 183.38 131.99, 183.38 227.31 M183.38 227.31 C183.38 248.65, 172.71 259.31, 151.38 259.31 M183.38 227.31 C183.38 248.65, 172.71 259.31, 151.38 259.31 M151.38 259.31 C109.34 259.31, 67.3 259.31, 32 259.31 M151.38 259.31 C121.6 259.31, 91.82 259.31, 32 259.31 M32 259.31 C10.67 259.31, 0 248.65, 0 227.31 M32 259.31 C10.67 259.31, 0 248.65, 0 227.31 M0 227.31 C0 161.15, 0 94.99, 0 32 M0 227.31 C0 172.45, 0 117.58, 0 32 M0 32 C0 10.67, 10.67 0, 32 0 M0 32 C0 10.67, 10.67 0, 32 0" stroke="#1e1e1e" stroke-width="2" fill="none"></path></g><g transform="translate(528.9588775634766 41.504791259765625) rotate(0 41.96995544433594 12.5)"><text x="41.96995544433594" y="0" font-family="Virgil, Segoe UI Emoji" font-size="20px" fill="#1e1e1e" text-anchor="middle" style="white-space: pre;" direction="ltr" dominant-baseline="text-before-edge">Участник</text></g><g stroke-linecap="round"><g transform="translate(144.1337890625 89.57880297291263) rotate(0 187.60001373291016 -24.775364818100172)"><path d="M0.2 0.86 C30.43 -8.04, 119.37 -53.65, 181.92 -53.22 C244.48 -52.79, 343.43 -5.83, 375.55 3.46 M-1.16 0.27 C28.86 -8.54, 118.25 -52.46, 180.94 -52.24 C243.63 -52.03, 342.7 -7.73, 374.96 1.56" stroke="#1e1e1e" stroke-width="2" fill="none"></path></g><g transform="translate(144.1337890625 89.57880297291263) rotate(0 187.60001373291016 -24.775364818100172)"><path d="M344.96 1.83 C356.78 1.57, 363.93 2.17, 374.96 1.56 M344.96 1.83 C356.47 2.52, 367.18 2.63, 374.96 1.56" stroke="#1e1e1e" stroke-width="2" fill="none"></path></g><g transform="translate(144.1337890625 89.57880297291263) rotate(0 187.60001373291016 -24.775364818100172)"><path d="M351.81 -17.52 C361.29 -11.07, 366.08 -3.78, 374.96 1.56 M351.81 -17.52 C360.68 -9.65, 368.84 -2.36, 374.96 1.56" stroke="#1e1e1e" stroke-width="2" fill="none"></path></g></g><mask></mask><g stroke-linecap="round" transform="translate(280.68121337890625 10) rotate(0 38.26678466796875 32.15239715576172)"><path d="M16.08 0 C28.2 2.57, 37.95 4.11, 60.46 0 C71.51 -0.04, 75.12 7.07, 76.53 16.08 C78.59 27.38, 73.85 37.86, 76.53 48.23 C76.37 61.31, 71.04 67.29, 60.46 64.3 C46.77 66.03, 36.97 63.69, 16.08 64.3 C4.54 62.81, 0.62 56.58, 0 48.23 C-3.22 32.16, 1.74 20.27, 0 16.08 C2.97 6.57, 2.88 3.05, 16.08 0" stroke="none" stroke-width="0" fill="#ffffff"></path><path d="M16.08 0 C30.6 -0.72, 44.15 -0.27, 60.46 0 M16.08 0 C24.42 0.36, 35.29 -0.34, 60.46 0 M60.46 0 C71.02 -0.14, 75.75 4.38, 76.53 16.08 M60.46 0 C70.76 0.1, 76.58 4.17, 76.53 16.08 M76.53 16.08 C77.46 30.17, 77.88 42.72, 76.53 48.23 M76.53 16.08 C76.14 24.12, 76.67 33.29, 76.53 48.23 M76.53 48.23 C78.32 57.49, 71.57 63.53, 60.46 64.3 M76.53 48.23 C76.87 61.12, 71.73 62.26, 60.46 64.3 M60.46 64.3 C46.25 63.12, 34.44 63.14, 16.08 64.3 M60.46 64.3 C47.48 64.38, 32.5 63.58, 16.08 64.3 M16.08 64.3 C3.49 65.15, 1.47 60.38, 0 48.23 M16.08 64.3 C6.28 63.07, 1.27 61.07, 0 48.23 M0 48.23 C-1.14 41, 1.54 29.46, 0 16.08 M0 48.23 C0.57 37.99, -0.16 29.69, 0 16.08 M0 16.08 C-0.7 6.02, 5.64 -0.74, 16.08 0 M0 16.08 C1.95 3.29, 3.57 2.2, 16.08 0" stroke="#1e1e1e" stroke-width="2" fill="none"></path></g><g transform="translate(286.7980270385742 17.15239715576172) rotate(0 32.14997100830078 25)"><text x="32.14997100830078" y="0" font-family="Virgil, Segoe UI Emoji" font-size="20px" fill="#1e1e1e" text-anchor="middle" style="white-space: pre;" direction="ltr" dominant-baseline="text-before-edge">Ресурс</text><text x="32.14997100830078" y="25" font-family="Virgil, Segoe UI Emoji" font-size="20px" fill="#1e1e1e" text-anchor="middle" style="white-space: pre;" direction="ltr" dominant-baseline="text-before-edge">А</text></g><g stroke-linecap="round"><g transform="translate(526.1621856689453 230.81975062499146) rotate(0 -185.35769309997542 17.982911060022374)"><path d="M0.37 0.06 C-31.9 7.09, -131.77 42.37, -193.64 41.34 C-255.51 40.3, -341.43 1.54, -370.84 -6.15 M-0.89 -0.95 C-33.22 6.33, -132.22 43.44, -194.02 42.75 C-255.81 42.06, -342.42 3.17, -371.68 -5.11" stroke="#1e1e1e" stroke-width="2" fill="none"></path></g><g transform="translate(526.1621856689453 230.81975062499146) rotate(0 -185.35769309997542 17.982911060022374)"><path d="M-341.68 -5.48 C-350.55 -3.48, -360.03 -5.38, -371.68 -5.11 M-341.68 -5.48 C-349.47 -4.52, -356.27 -5.32, -371.68 -5.11" stroke="#1e1e1e" stroke-width="2" fill="none"></path></g><g transform="translate(526.1621856689453 230.81975062499146) rotate(0 -185.35769309997542 17.982911060022374)"><path d="M-348.46 13.89 C-355.18 10.08, -362.63 2.38, -371.68 -5.11 M-348.46 13.89 C-354.62 9.85, -359.68 4.1, -371.68 -5.11" stroke="#1e1e1e" stroke-width="2" fill="none"></path></g></g><mask></mask><g stroke-linecap="round" transform="translate(297.53851318359375 238.73339080810547) rotate(0 38.26678466796875 32.15239715576172)"><path d="M16.08 0 C23.42 -1.52, 35.15 -0.04, 60.46 0 C67.7 1.12, 78.49 7.04, 76.53 16.08 C77.04 24.48, 73.35 31.78, 76.53 48.23 C74.59 61.35, 73.94 65.97, 60.46 64.3 C46.72 63, 30.34 65.45, 16.08 64.3 C6.43 61.49, 1 60.01, 0 48.23 C3.1 37.73, -2.29 28.77, 0 16.08 C2.33 3.5, 6.2 -0.39, 16.08 0" stroke="none" stroke-width="0" fill="#ffffff"></path><path d="M16.08 0 C29.64 -2.26, 44.41 -1.26, 60.46 0 M16.08 0 C25.55 -0.78, 36.68 -1.08, 60.46 0 M60.46 0 C71.69 -0.93, 77.96 6.84, 76.53 16.08 M60.46 0 C72.9 0.86, 76.31 6.47, 76.53 16.08 M76.53 16.08 C75.45 23.21, 74.41 34.33, 76.53 48.23 M76.53 16.08 C76.62 26.82, 77.26 38.04, 76.53 48.23 M76.53 48.23 C76.99 60.69, 69.37 63.89, 60.46 64.3 M76.53 48.23 C76.31 58.85, 70.83 62.19, 60.46 64.3 M60.46 64.3 C44.01 62.88, 27.83 62.58, 16.08 64.3 M60.46 64.3 C47.63 63.77, 35.36 64.86, 16.08 64.3 M16.08 64.3 C4.64 62.39, 1.21 57.94, 0 48.23 M16.08 64.3 C5.06 62.25, -0.35 59.46, 0 48.23 M0 48.23 C-0.8 43.53, -1.98 35.11, 0 16.08 M0 48.23 C1.05 35.92, -0.23 24.81, 0 16.08 M0 16.08 C0.83 5.58, 6.41 0.48, 16.08 0 M0 16.08 C-1.92 5.8, 6.47 2.1, 16.08 0" stroke="#1e1e1e" stroke-width="2" fill="none"></path></g><g transform="translate(303.6553268432617 245.8857879638672) rotate(0 32.14997100830078 25)"><text x="32.14997100830078" y="0" font-family="Virgil, Segoe UI Emoji" font-size="20px" fill="#1e1e1e" text-anchor="middle" style="white-space: pre;" direction="ltr" dominant-baseline="text-before-edge">Ресурс</text><text x="32.14997100830078" y="25" font-family="Virgil, Segoe UI Emoji" font-size="20px" fill="#1e1e1e" text-anchor="middle" style="white-space: pre;" direction="ltr" dominant-baseline="text-before-edge">B</text></g><g stroke-linecap="round" transform="translate(46.57623291015625 70.9048080444336) rotate(0 47.62864685058594 25)"><path d="M12.5 0 C26.16 3.34, 45.54 1.79, 82.76 0 C89.91 2.79, 95.05 4, 95.26 12.5 C95.94 19.86, 97.43 32.73, 95.26 37.5 C92.47 46.86, 88.5 49.46, 82.76 50 C64.03 52.97, 50.23 47.33, 12.5 50 C5.01 49.84, -1.89 49.38, 0 37.5 C3.25 32.19, -0.05 25.26, 0 12.5 C1.33 2.27, 4.58 -2.08, 12.5 0" stroke="none" stroke-width="0" fill="#fff5f5"></path><path d="M12.5 0 C36.27 -0.36, 62.25 0.46, 82.76 0 M12.5 0 C37.64 0.03, 64.06 -1.46, 82.76 0 M82.76 0 C90.68 -0.87, 94.87 3.52, 95.26 12.5 M82.76 0 C91.5 -0.52, 94.61 6.16, 95.26 12.5 M95.26 12.5 C95.94 22.25, 93.91 29.43, 95.26 37.5 M95.26 12.5 C95.45 22.42, 96.09 32.11, 95.26 37.5 M95.26 37.5 C96.23 44.73, 92.83 50.82, 82.76 50 M95.26 37.5 C93.95 47.64, 90.51 49.21, 82.76 50 M82.76 50 C60.76 49.7, 38.04 51.6, 12.5 50 M82.76 50 C56.68 48.71, 28.8 48.99, 12.5 50 M12.5 50 C2.63 48.72, 1.89 43.96, 0 37.5 M12.5 50 C3.48 50.43, 0.86 45.45, 0 37.5 M0 37.5 C-0.7 33.11, 1.01 27.18, 0 12.5 M0 37.5 C0.17 31.22, 0.49 22.64, 0 12.5 M0 12.5 C-0.51 4.19, 3.1 -0.31, 12.5 0 M0 12.5 C2.27 4.87, 4.19 -1.12, 12.5 0" stroke="#e03131" stroke-width="2" fill="none"></path></g><g transform="translate(54.91680145263672 75.9048080444336) rotate(0 39.28807830810547 20)"><text x="39.28807830810547" y="0" font-family="Virgil, Segoe UI Emoji" font-size="16px" fill="#e03131" text-anchor="middle" style="white-space: pre;" direction="ltr" dominant-baseline="text-before-edge">Ценность </text><text x="39.28807830810547" y="20" font-family="Virgil, Segoe UI Emoji" font-size="16px" fill="#e03131" text-anchor="middle" style="white-space: pre;" direction="ltr" dominant-baseline="text-before-edge">ресурса А</text></g><g stroke-linecap="round" transform="translate(526.1668853759766 80.18099975585938) rotate(0 47.62864685058594 25)"><path d="M12.5 0 C27.17 0.03, 51.14 -1.11, 82.76 0 C88.24 3.53, 98.2 2.89, 95.26 12.5 C98.7 20.52, 99.08 28.27, 95.26 37.5 C94.61 44.7, 94.08 52.64, 82.76 50 C61.98 48.04, 45.77 46.94, 12.5 50 C1.3 53.41, -2.12 48.76, 0 37.5 C-1.87 32.54, -2.78 22.89, 0 12.5 C-2.02 1.09, 3.16 -2.81, 12.5 0" stroke="none" stroke-width="0" fill="#ebfbee"></path><path d="M12.5 0 C30.77 1.97, 52.17 0.03, 82.76 0 M12.5 0 C34.2 -0.21, 56.33 -0.06, 82.76 0 M82.76 0 C92.65 -1.78, 93.26 5.19, 95.26 12.5 M82.76 0 C93.04 -0.68, 94.76 6.18, 95.26 12.5 M95.26 12.5 C94.89 20.25, 94.01 26.51, 95.26 37.5 M95.26 12.5 C94.16 21.96, 95.63 31.95, 95.26 37.5 M95.26 37.5 C94.03 46.19, 90.31 51.86, 82.76 50 M95.26 37.5 C95.84 44.89, 89.52 49.39, 82.76 50 M82.76 50 C58.05 52.26, 34.48 50.78, 12.5 50 M82.76 50 C66.09 50.28, 50.12 50.57, 12.5 50 M12.5 50 C5.94 48.7, 1.51 45.85, 0 37.5 M12.5 50 C5.45 51.41, -0.46 47.34, 0 37.5 M0 37.5 C-0.29 30.48, 0.73 23.48, 0 12.5 M0 37.5 C0.42 31.19, -0.11 24.43, 0 12.5 M0 12.5 C1.57 4.24, 4.46 1.02, 12.5 0 M0 12.5 C-1.56 3.54, 2.56 1.45, 12.5 0" stroke="#2f9e44" stroke-width="2" fill="none"></path></g><g transform="translate(534.507453918457 85.18099975585938) rotate(0 39.28807830810547 20)"><text x="39.28807830810547" y="0" font-family="Virgil, Segoe UI Emoji" font-size="16px" fill="#2f9e44" text-anchor="middle" style="white-space: pre;" direction="ltr" dominant-baseline="text-before-edge">Ценность </text><text x="39.28807830810547" y="20" font-family="Virgil, Segoe UI Emoji" font-size="16px" fill="#2f9e44" text-anchor="middle" style="white-space: pre;" direction="ltr" dominant-baseline="text-before-edge">ресурса А</text></g><g stroke-linecap="round" transform="translate(52.16664123535156 194.05722045898438) rotate(0 47.62864685058594 25)"><path d="M12.5 0 C37.73 0.11, 69.27 -1.69, 82.76 0 C89.79 -2.85, 93.3 7.26, 95.26 12.5 C94.09 15.66, 97.26 22.48, 95.26 37.5 C92.59 46.67, 87.69 46.91, 82.76 50 C60.51 53.05, 38.7 47.34, 12.5 50 C4.58 48.73, -0.03 46.29, 0 37.5 C-3.17 30.81, 1.51 29.65, 0 12.5 C0.49 1.07, 5.92 3.25, 12.5 0" stroke="none" stroke-width="0" fill="#ebfbee"></path><path d="M12.5 0 C30.48 2.3, 52.83 -1.02, 82.76 0 M12.5 0 C38.9 1.26, 65.26 -0.09, 82.76 0 M82.76 0 C89.83 0.99, 95.98 5.1, 95.26 12.5 M82.76 0 C89.7 -1.38, 97.26 5.36, 95.26 12.5 M95.26 12.5 C95.69 19.67, 96.21 26.68, 95.26 37.5 M95.26 12.5 C95.2 21.71, 94.29 30.02, 95.26 37.5 M95.26 37.5 C93.52 46.78, 89.44 48.46, 82.76 50 M95.26 37.5 C93.31 44.86, 90.96 51.34, 82.76 50 M82.76 50 C67.11 49.48, 48.02 51.22, 12.5 50 M82.76 50 C57.59 50.38, 30 48.52, 12.5 50 M12.5 50 C4.04 48.76, 0.61 47.69, 0 37.5 M12.5 50 C2.89 49.65, 0.61 45.9, 0 37.5 M0 37.5 C-0.56 27.63, 0.73 22.39, 0 12.5 M0 37.5 C0.8 27.71, -0.56 18.49, 0 12.5 M0 12.5 C1.62 5.7, 5.09 0.24, 12.5 0 M0 12.5 C1.23 2.89, 5.24 -1.35, 12.5 0" stroke="#2f9e44" stroke-width="2" fill="none"></path></g><g transform="translate(59.939208984375 199.05722045898438) rotate(0 39.8560791015625 20)"><text x="39.8560791015625" y="0" font-family="Virgil, Segoe UI Emoji" font-size="16px" fill="#2f9e44" text-anchor="middle" style="white-space: pre;" direction="ltr" dominant-baseline="text-before-edge">Ценность </text><text x="39.8560791015625" y="20" font-family="Virgil, Segoe UI Emoji" font-size="16px" fill="#2f9e44" text-anchor="middle" style="white-space: pre;" direction="ltr" dominant-baseline="text-before-edge">ресурса B</text></g><g stroke-linecap="round" transform="translate(530.6048126220703 209.29527282714844) rotate(0 47.62864685058594 25)"><path d="M12.5 0 C40.08 -0.5, 66.73 0.37, 82.76 0 C88.91 -3.5, 94.08 3.85, 95.26 12.5 C95.74 17.17, 95.86 26.41, 95.26 37.5 C95.82 48.98, 87.97 49.79, 82.76 50 C63.35 48.18, 34.91 52.08, 12.5 50 C6.57 50.99, -3.14 47.31, 0 37.5 C2.5 32.22, -0.08 21.5, 0 12.5 C0.58 2.38, 6.13 2.23, 12.5 0" stroke="none" stroke-width="0" fill="#fff5f5"></path><path d="M12.5 0 C41.33 -0.96, 67.08 1.11, 82.76 0 M12.5 0 C29.32 0.17, 46.25 -0.22, 82.76 0 M82.76 0 C90.04 -1.01, 93.56 3.34, 95.26 12.5 M82.76 0 C91.61 -0.53, 93.92 3.17, 95.26 12.5 M95.26 12.5 C95.68 21.67, 95.92 27.93, 95.26 37.5 M95.26 12.5 C94.54 18.19, 96.21 23.45, 95.26 37.5 M95.26 37.5 C96.12 46.55, 90.49 50.69, 82.76 50 M95.26 37.5 C93.04 44.74, 90.44 48.32, 82.76 50 M82.76 50 C63.28 52.29, 45.93 48.8, 12.5 50 M82.76 50 C66.97 49.69, 50.66 49.69, 12.5 50 M12.5 50 C4.13 51.64, -0.37 47.59, 0 37.5 M12.5 50 C5.19 48.39, -0.71 47.81, 0 37.5 M0 37.5 C-1.45 30.73, -1.87 26.4, 0 12.5 M0 37.5 C0.47 28.29, 0.73 20.51, 0 12.5 M0 12.5 C-1.62 3.59, 5.26 0.16, 12.5 0 M0 12.5 C0.35 3.97, 2.62 -0.23, 12.5 0" stroke="#e03131" stroke-width="2" fill="none"></path></g><g transform="translate(538.3773803710938 214.29527282714844) rotate(0 39.8560791015625 20)"><text x="39.8560791015625" y="0" font-family="Virgil, Segoe UI Emoji" font-size="16px" fill="#e03131" text-anchor="middle" style="white-space: pre;" direction="ltr" dominant-baseline="text-before-edge">Ценность </text><text x="39.8560791015625" y="20" font-family="Virgil, Segoe UI Emoji" font-size="16px" fill="#e03131" text-anchor="middle" style="white-space: pre;" direction="ltr" dominant-baseline="text-before-edge">ресурса B</text></g><g mask="url(#mask-87a56bkudqaGyMGsEfI8C)" stroke-linecap="round"><g transform="translate(97.48110961914062 191.0286102294922) rotate(0 -0.2190093994140625 -34.590476989746094)"><path d="M1.14 0.48 C1.16 -10.83, -0.37 -56.55, -0.72 -68.15 M0.28 -0.31 C0.18 -11.92, -1.43 -58.48, -1.82 -69.74" stroke="#1e1e1e" stroke-width="2" fill="none"></path></g><g transform="translate(97.48110961914062 191.0286102294922) rotate(0 -0.2190093994140625 -34.590476989746094)"><path d="M-0.79 -71.54 L3.37 -55.65 L-8.43 -54.23 L-2.49 -70.06" stroke="none" stroke-width="0" fill="#1e1e1e" fill-rule="evenodd"></path><path d="M-1.82 -69.74 C0.32 -67.07, 2.58 -64.32, 4.98 -56.37 M-1.82 -69.74 C-0.07 -65.71, 2.9 -61.77, 4.98 -56.37 M4.98 -56.37 C1.49 -55.65, -0.71 -55.4, -7.69 -55.93 M4.98 -56.37 C0.37 -56.07, -4.92 -56.06, -7.69 -55.93 M-7.69 -55.93 C-5.91 -62.33, -3.44 -67.39, -1.82 -69.74 M-7.69 -55.93 C-6.06 -61.48, -4.08 -64.98, -1.82 -69.74 M-1.82 -69.74 C-1.82 -69.74, -1.82 -69.74, -1.82 -69.74 M-1.82 -69.74 C-1.82 -69.74, -1.82 -69.74, -1.82 -69.74" stroke="#1e1e1e" stroke-width="2" fill="none"></path></g></g><mask id="mask-87a56bkudqaGyMGsEfI8C"><rect x="0" y="0" fill="#fff" width="197.91912841796875" height="360.2095642089844"></rect><rect x="52.36366271972656" y="147.2381332397461" fill="#000" width="89.796875" height="18.4" opacity="1"></rect></mask><g transform="translate(52.36366271972656 147.2381332397461) rotate(0 44.7769249502538 9.163982324600198)"><text x="44.8984375" y="0" font-family="Helvetica, Segoe UI Emoji" font-size="16px" fill="#1e1e1e" text-anchor="middle" style="white-space: pre;" direction="ltr" dominant-baseline="text-before-edge">больше чем</text></g><g mask="url(#mask-piQha-evKJvK_rFxSK5RY)" stroke-linecap="round"><g transform="translate(574.501282269888 132.36941458702086) rotate(0 0.8962059728335703 37.33332061767578)"><path d="M1.01 -0.23 C1.26 12.34, 1.08 63.35, 1.31 75.68 M0.08 -1.4 C0.14 10.83, -0.19 61.43, 0.1 74.08" stroke="#1e1e1e" stroke-width="2" fill="none"></path></g><g transform="translate(574.501282269888 132.36941458702086) rotate(0 0.8962059728335703 37.33332061767578)"><path d="M-0.14 74.9 L-4.6 60.41 L7.95 59.38 L1.29 75.55" stroke="none" stroke-width="0" fill="#1e1e1e" fill-rule="evenodd"></path><path d="M0.1 74.08 C-2.04 69.67, -2.32 67.11, -6.32 60.53 M0.1 74.08 C-1.63 71.09, -3.11 68.2, -6.32 60.53 M-6.32 60.53 C-3.98 60.66, -1.82 61.42, 6.36 60.45 M-6.32 60.53 C-2.93 60.54, -0.1 60.12, 6.36 60.45 M6.36 60.45 C4.6 63.83, 0.77 69.57, 0.1 74.08 M6.36 60.45 C4.5 64.78, 2.57 68.32, 0.1 74.08 M0.1 74.08 C0.1 74.08, 0.1 74.08, 0.1 74.08 M0.1 74.08 C0.1 74.08, 0.1 74.08, 0.1 74.08" stroke="#1e1e1e" stroke-width="2" fill="none"></path></g></g><mask id="mask-piQha-evKJvK_rFxSK5RY"><rect x="0" y="0" fill="#fff" width="676.2936942155551" height="307.0360558223724"></rect><rect x="530.4990507427216" y="160.50273520469665" fill="#000" width="89.796875" height="18.4" opacity="1"></rect></mask><g transform="translate(530.4990507427216 160.50273520469665) rotate(0 44.64539099960922 9.006001545786859)"><text x="44.8984375" y="0" font-family="Helvetica, Segoe UI Emoji" font-size="16px" fill="#1e1e1e" text-anchor="middle" style="white-space: pre;" direction="ltr" dominant-baseline="text-before-edge">больше чем</text></g></svg>