<svg version="1.1" xmlns="http://www.w3.org/2000/svg" viewBox="0 0 1360.205006917317 1213.6546147664378" width="1360.205006917317" height="1213.6546147664378">
  <!-- svg-source:excalidraw -->
  
  <defs>
    <style class="style-fonts">
      @font-face {
        font-family: "Virgil";
        src: url("https://file%2B.vscode-resource.vscode-cdn.net/home/ginkgo/.vscode/extensions/pomdtr.excalidraw-editor-3.7.4/public//dist/excalidraw-assets/Virgil.woff2");
      }
      @font-face {
        font-family: "Cascadia";
        src: url("https://file%2B.vscode-resource.vscode-cdn.net/home/ginkgo/.vscode/extensions/pomdtr.excalidraw-editor-3.7.4/public//dist/excalidraw-assets/Cascadia.woff2");
      }
      @font-face {
        font-family: "Assistant";
        src: url("https://file%2B.vscode-resource.vscode-cdn.net/home/ginkgo/.vscode/extensions/pomdtr.excalidraw-editor-3.7.4/public//dist/excalidraw-assets/Assistant-Regular.woff2");
      }
    </style>
    
  </defs>
  <rect x="0" y="0" width="1360.205006917317" height="1213.6546147664378" fill="#ffffff"></rect><g stroke-linecap="round" transform="translate(10 107.32703145345022) rotate(0 76.98577880859375 27.580963134765625)"><path d="M13.79 0 C55.66 2.18, 93.69 1.94, 140.18 0 M13.79 0 C43.49 -1.29, 73.7 -0.15, 140.18 0 M140.18 0 C149.13 -1.34, 155.44 4.52, 153.97 13.79 M140.18 0 C148.04 0.46, 156.2 3.5, 153.97 13.79 M153.97 13.79 C154.56 20.49, 152.18 27.16, 153.97 41.37 M153.97 13.79 C154.17 23.45, 153.42 30.44, 153.97 41.37 M153.97 41.37 C152.11 49.34, 148.54 55.52, 140.18 55.16 M153.97 41.37 C155.19 50.42, 149.97 55.39, 140.18 55.16 M140.18 55.16 C104.69 55.67, 70.05 56.02, 13.79 55.16 M140.18 55.16 C104.49 56.25, 68.63 54.91, 13.79 55.16 M13.79 55.16 C4.5 57.11, 1.49 51.24, 0 41.37 M13.79 55.16 C3.66 55.37, -1.2 49.04, 0 41.37 M0 41.37 C0.29 34.29, -1.85 26.89, 0 13.79 M0 41.37 C-0.72 30.95, -0.09 22.11, 0 13.79 M0 13.79 C0.18 6.58, 3.01 1.87, 13.79 0 M0 13.79 C-1.23 3.08, 4.08 1.46, 13.79 0" stroke="#f08c00" stroke-width="2" fill="none"></path></g><g transform="translate(33.455833435058594 122.40799458821584) rotate(0 53.529945373535156 12.5)"><text x="53.529945373535156" y="0" font-family="Virgil, Segoe UI Emoji" font-size="20px" fill="#f08c00" text-anchor="middle" style="white-space: pre;" direction="ltr" dominant-baseline="text-before-edge">Участник А</text></g><g stroke-linecap="round" transform="translate(377.07471720377623 107.32703145345022) rotate(0 76.98577880859375 27.580963134765625)"><path d="M13.79 0 C61.38 -0.47, 113.12 -0.77, 140.18 0 M13.79 0 C47.36 -1.69, 81.91 -1.06, 140.18 0 M140.18 0 C148.21 0.4, 155.91 3.64, 153.97 13.79 M140.18 0 C147.33 1.25, 154.16 5.1, 153.97 13.79 M153.97 13.79 C154.05 23.27, 155.18 33.17, 153.97 41.37 M153.97 13.79 C152.89 23.98, 153.4 35.57, 153.97 41.37 M153.97 41.37 C155.03 50.44, 149.89 55.36, 140.18 55.16 M153.97 41.37 C153.39 51.29, 150.36 54.31, 140.18 55.16 M140.18 55.16 C102.22 56.52, 65.95 56.53, 13.79 55.16 M140.18 55.16 C97.86 54.89, 56.38 54.25, 13.79 55.16 M13.79 55.16 C3.78 55.35, -1.05 49.24, 0 41.37 M13.79 55.16 C4.46 56.15, 2.1 51.03, 0 41.37 M0 41.37 C1.3 31.54, -0.27 20.52, 0 13.79 M0 41.37 C0.12 35.95, -0.76 29.48, 0 13.79 M0 13.79 C-1.07 3.28, 4.15 1.27, 13.79 0 M0 13.79 C-0.99 3.66, 5.95 1.16, 13.79 0" stroke="#f08c00" stroke-width="2" fill="none"></path></g><g transform="translate(401.7805506388348 122.40799458821584) rotate(0 52.279945373535156 12.5)"><text x="52.279945373535156" y="0" font-family="Virgil, Segoe UI Emoji" font-size="20px" fill="#f08c00" text-anchor="middle" style="white-space: pre;" direction="ltr" dominant-baseline="text-before-edge">Участник Б</text></g><g mask="url(#mask-rWEi4w9zAbqwO5iV-QE0X)" stroke-linecap="round"><g transform="translate(167.25717163085938 136.42391726342066) rotate(0 103.14934285481775 -0.7764452111257469)"><path d="M0.11 -0.4 C34.58 -0.65, 172.79 -0.26, 207.13 -0.58 M-1.29 -1.66 C33.07 -2.31, 172.19 -2.23, 206.62 -2.19" stroke="#f08c00" stroke-width="2" fill="none"></path></g><g transform="translate(167.25717163085938 136.42391726342066) rotate(0 103.14934285481775 -0.7764452111257469)"><path d="M3.03 -7.45 C4.7 -6.86, 7.66 -5.51, 8.51 -4.05 C9.36 -2.59, 8.83 -0.5, 8.12 1.31 C7.41 3.12, 5.68 5.62, 4.23 6.81 C2.78 8, 0.98 8.78, -0.58 8.46 C-2.14 8.15, -3.94 6.39, -5.1 4.92 C-6.26 3.46, -7.14 1.45, -7.54 -0.34 C-7.94 -2.13, -8.54 -4.31, -7.5 -5.82 C-6.47 -7.33, -3.37 -9.21, -1.32 -9.39 C0.73 -9.58, 3.46 -7.54, 4.81 -6.91 C6.16 -6.28, 6.71 -5.6, 6.76 -5.62 M1.19 -9.99 C3.05 -10.16, 4.06 -9.84, 5.5 -8.17 C6.94 -6.49, 9.41 -1.9, 9.83 0.03 C10.26 1.96, 9.16 2.23, 8.04 3.41 C6.91 4.58, 4.84 6.22, 3.06 7.08 C1.29 7.95, -0.72 9.2, -2.62 8.58 C-4.52 7.95, -7.47 5.02, -8.33 3.35 C-9.19 1.67, -8.3 0.29, -7.79 -1.49 C-7.28 -3.26, -6.89 -6.13, -5.27 -7.28 C-3.65 -8.43, 0.97 -8.15, 1.93 -8.4 C2.9 -8.65, 1 -8.97, 0.54 -8.78" stroke="none" stroke-width="0" fill="#f08c00"></path></g><g transform="translate(167.25717163085938 136.42391726342066) rotate(0 103.14934285481775 -0.7764452111257469)"><path d="M209.54 -9.25 C211.21 -8.66, 214.17 -7.3, 215.02 -5.84 C215.87 -4.38, 215.34 -2.3, 214.63 -0.49 C213.92 1.32, 212.19 3.83, 210.74 5.02 C209.29 6.21, 207.49 6.98, 205.93 6.67 C204.38 6.36, 202.57 4.6, 201.41 3.13 C200.25 1.66, 199.37 -0.34, 198.97 -2.13 C198.57 -3.92, 197.97 -6.11, 199.01 -7.61 C200.05 -9.12, 203.14 -11, 205.19 -11.19 C207.24 -11.37, 209.98 -9.33, 211.32 -8.7 C212.67 -8.07, 213.22 -7.39, 213.27 -7.42 M207.7 -11.79 C209.56 -11.95, 210.57 -11.63, 212.01 -9.96 C213.45 -8.29, 215.92 -3.69, 216.34 -1.76 C216.77 0.17, 215.67 0.44, 214.55 1.62 C213.42 2.79, 211.35 4.43, 209.57 5.29 C207.8 6.15, 205.79 7.41, 203.89 6.78 C201.99 6.16, 199.04 3.23, 198.18 1.55 C197.32 -0.12, 198.21 -1.51, 198.72 -3.28 C199.23 -5.05, 199.62 -7.92, 201.24 -9.07 C202.86 -10.22, 207.48 -9.94, 208.44 -10.19 C209.41 -10.44, 207.51 -10.76, 207.05 -10.57" stroke="none" stroke-width="0" fill="#f08c00"></path></g></g><mask id="mask-rWEi4w9zAbqwO5iV-QE0X"><rect x="0" y="0" fill="#fff" width="473.55585734049487" height="237.97680768567227"></rect><rect x="222.4065602620443" y="110.64747205229492" fill="#000" width="95.99990844726562" height="50" opacity="1"></rect></mask><g transform="translate(222.4065602620443 110.64747205229492) rotate(0 47.76932853454258 24.46846019331315)"><text x="47.99995422363281" y="0" font-family="Virgil, Segoe UI Emoji" font-size="20px" fill="#f08c00" text-anchor="middle" style="white-space: pre;" direction="ltr" dominant-baseline="text-before-edge">отношение</text><text x="47.99995422363281" y="25" font-family="Virgil, Segoe UI Emoji" font-size="20px" fill="#f08c00" text-anchor="middle" style="white-space: pre;" direction="ltr" dominant-baseline="text-before-edge">обмена</text></g><g stroke-linecap="round" transform="translate(10 287.363586425781) rotate(0 76.98577880859375 27.580963134765625)"><path d="M13.79 0 C56.21 0.85, 98.35 0.01, 140.18 0 M13.79 0 C59.97 0.32, 105.98 0.33, 140.18 0 M140.18 0 C149.53 -1.01, 155.21 5.96, 153.97 13.79 M140.18 0 C147.47 2.14, 153.44 4.91, 153.97 13.79 M153.97 13.79 C153.86 19.9, 155.65 29.42, 153.97 41.37 M153.97 13.79 C154.15 23.83, 153.34 34.84, 153.97 41.37 M153.97 41.37 C154.59 51.46, 150.49 54.17, 140.18 55.16 M153.97 41.37 C153.47 52.52, 150.89 55.01, 140.18 55.16 M140.18 55.16 C100.07 54.63, 60.04 57.93, 13.79 55.16 M140.18 55.16 C112.64 56.45, 86.18 54.76, 13.79 55.16 M13.79 55.16 C6.04 56.46, 1.07 52.05, 0 41.37 M13.79 55.16 C4.42 55.42, -0.23 48.47, 0 41.37 M0 41.37 C-0.62 32.45, -0.56 20.21, 0 13.79 M0 41.37 C-0.41 33.1, 0.4 25.71, 0 13.79 M0 13.79 C0.23 6.31, 4.9 1.62, 13.79 0 M0 13.79 C1.27 2.87, 5.44 1.58, 13.79 0" stroke="#f08c00" stroke-width="2" fill="none"></path></g><g transform="translate(32.74583435058594 302.44454956054665) rotate(0 54.23994445800781 12.5)"><text x="54.23994445800781" y="0" font-family="Virgil, Segoe UI Emoji" font-size="20px" fill="#f08c00" text-anchor="middle" style="white-space: pre;" direction="ltr" dominant-baseline="text-before-edge">Участник В</text></g><g stroke-linecap="round" transform="translate(377.07471720377623 287.363586425781) rotate(0 76.98577880859375 27.580963134765625)"><path d="M13.79 0 C44.54 0.11, 75.75 -0.63, 140.18 0 M13.79 0 C44.65 -1.09, 76.39 0.81, 140.18 0 M140.18 0 C147.47 -0.42, 152.43 4.88, 153.97 13.79 M140.18 0 C148.21 0.46, 153.84 2.5, 153.97 13.79 M153.97 13.79 C152.95 19.68, 154.86 27.32, 153.97 41.37 M153.97 13.79 C153.78 20.28, 154.12 28.39, 153.97 41.37 M153.97 41.37 C155.36 52.32, 149.44 55.76, 140.18 55.16 M153.97 41.37 C152.05 51.91, 149.81 53.19, 140.18 55.16 M140.18 55.16 C102.78 56.44, 68.6 53.74, 13.79 55.16 M140.18 55.16 C109.61 54.81, 79.31 54.87, 13.79 55.16 M13.79 55.16 C5.93 55.57, -0.53 50.81, 0 41.37 M13.79 55.16 C6.64 54.17, -1.06 50.4, 0 41.37 M0 41.37 C-2.02 35.76, 0.72 25.39, 0 13.79 M0 41.37 C-0.15 32.81, -0.05 24.51, 0 13.79 M0 13.79 C-0.13 6.43, 4.44 0.35, 13.79 0 M0 13.79 C-1.61 3.92, 4.87 1.24, 13.79 0" stroke="#1e1e1e" stroke-width="2" fill="none"></path></g><g transform="translate(401.60055033365904 302.44454956054665) rotate(0 52.45994567871094 12.5)"><text x="52.45994567871094" y="0" font-family="Virgil, Segoe UI Emoji" font-size="20px" fill="#1e1e1e" text-anchor="middle" style="white-space: pre;" direction="ltr" dominant-baseline="text-before-edge">Участник Г</text></g><g mask="url(#mask-8T6CmbSKpxlGt-aJuIfio)" stroke-linecap="round"><g transform="translate(92.05028171127339 172.77378991933392) rotate(0 0.9108199126148406 53.52512949590539)"><path d="M0.45 -0.51 C0.67 17.17, 0.97 88.62, 1.1 106.43 M-0.77 -1.83 C-0.14 15.97, 3.28 89.45, 3.43 107.64" stroke="#f08c00" stroke-width="2" fill="none"></path></g><g transform="translate(92.05028171127339 172.77378991933392) rotate(0 0.9108199126148406 53.52512949590539)"><path d="M-1.94 -8.11 C-0.19 -8.88, 2.38 -9.12, 3.94 -8.52 C5.49 -7.93, 6.45 -6.03, 7.41 -4.52 C8.37 -3.01, 10.1 -1.37, 9.7 0.52 C9.3 2.41, 6.54 5.46, 4.98 6.83 C3.42 8.19, 2 8.7, 0.34 8.69 C-1.32 8.68, -3.76 7.94, -5 6.78 C-6.25 5.62, -6.83 3.71, -7.12 1.72 C-7.4 -0.26, -7.77 -3.51, -6.72 -5.13 C-5.66 -6.75, -1.94 -7.27, -0.78 -8.01 C0.39 -8.75, 0.28 -9.7, 0.28 -9.56 M3.72 -7.72 C5.67 -7.09, 8.01 -6.05, 8.85 -4.53 C9.69 -3, 9.27 -0.23, 8.76 1.43 C8.25 3.08, 7.08 4.47, 5.78 5.41 C4.49 6.36, 2.72 7.1, 0.99 7.07 C-0.74 7.03, -3.36 6.22, -4.6 5.21 C-5.84 4.19, -5.9 2.82, -6.45 1 C-7 -0.82, -8.31 -4.07, -7.9 -5.71 C-7.5 -7.34, -5.73 -8.18, -4.03 -8.81 C-2.32 -9.45, 1.36 -9.48, 2.33 -9.5 C3.3 -9.53, 1.47 -9.12, 1.8 -8.95" stroke="none" stroke-width="0" fill="#f08c00"></path></g><g transform="translate(92.05028171127339 172.77378991933392) rotate(0 0.9108199126148406 53.52512949590539)"><path d="M1.03 100.04 C2.79 99.27, 5.36 99.03, 6.91 99.63 C8.47 100.22, 9.42 102.12, 10.38 103.63 C11.35 105.14, 13.08 106.78, 12.68 108.67 C12.27 110.56, 9.52 113.61, 7.96 114.98 C6.4 116.34, 4.98 116.85, 3.32 116.84 C1.66 116.83, -0.78 116.09, -2.02 114.93 C-3.27 113.77, -3.86 111.86, -4.14 109.87 C-4.43 107.89, -4.79 104.64, -3.74 103.02 C-2.68 101.4, 1.03 100.88, 2.2 100.14 C3.37 99.4, 3.26 98.45, 3.26 98.59 M6.7 100.43 C8.65 101.05, 10.98 102.1, 11.82 103.62 C12.67 105.15, 12.25 107.92, 11.74 109.57 C11.23 111.23, 10.06 112.62, 8.76 113.56 C7.47 114.51, 5.7 115.25, 3.97 115.22 C2.24 115.18, -0.38 114.37, -1.62 113.35 C-2.86 112.34, -2.92 110.97, -3.47 109.15 C-4.02 107.33, -5.33 104.08, -4.92 102.44 C-4.52 100.81, -2.76 99.97, -1.05 99.34 C0.66 98.7, 4.34 98.67, 5.31 98.65 C6.28 98.62, 4.45 99.03, 4.78 99.2" stroke="none" stroke-width="0" fill="#f08c00"></path></g></g><mask id="mask-8T6CmbSKpxlGt-aJuIfio"><rect x="0" y="0" fill="#fff" width="193.87192153650307" height="379.8240489111447"></rect><rect x="44.96114740025541" y="201.2989194152392" fill="#000" width="95.99990844726562" height="50" opacity="1"></rect></mask><g transform="translate(44.96114740025541 201.2989194152392) rotate(0 48.41935029982591 24.377993916133505)"><text x="47.99995422363281" y="0" font-family="Virgil, Segoe UI Emoji" font-size="20px" fill="#f08c00" text-anchor="middle" style="white-space: pre;" direction="ltr" dominant-baseline="text-before-edge">отношение</text><text x="47.99995422363281" y="25" font-family="Virgil, Segoe UI Emoji" font-size="20px" fill="#f08c00" text-anchor="middle" style="white-space: pre;" direction="ltr" dominant-baseline="text-before-edge">обмена</text></g><g mask="url(#mask-e6hh35w7ILE651g4hhCnw)" stroke-linecap="round"><g transform="translate(452.3071283277102 166.26892442829921) rotate(0 2.670935235627951 56.71398240661847)"><path d="M-0.33 0.86 C0.64 19.46, 3.89 93.9, 4.7 112.51 M1.69 0.27 C3.16 18.92, 6.19 94.71, 7.08 113.56" stroke="#1e1e1e" stroke-width="2" fill="none"></path></g><g transform="translate(452.3071283277102 166.26892442829921) rotate(0 2.670935235627951 56.71398240661847)"><path d="M1.12 -8.86 C2.62 -8.6, 4.3 -6.03, 5.31 -4.72 C6.32 -3.41, 7.07 -2.78, 7.18 -1 C7.28 0.78, 6.98 4.31, 5.96 5.96 C4.94 7.61, 2.56 8.45, 1.06 8.9 C-0.45 9.35, -1.78 9.34, -3.08 8.68 C-4.38 8.01, -5.75 6.41, -6.73 4.92 C-7.71 3.42, -9.2 1.44, -8.94 -0.32 C-8.69 -2.07, -7.01 -4.47, -5.2 -5.6 C-3.4 -6.73, 0.3 -7.18, 1.88 -7.12 C3.46 -7.06, 4.2 -5.21, 4.26 -5.24 M3.57 -8.49 C4.91 -7.73, 5.38 -4.31, 6.07 -2.42 C6.75 -0.54, 7.87 1.15, 7.68 2.79 C7.48 4.43, 6.15 6.11, 4.89 7.42 C3.64 8.72, 1.82 10.62, 0.17 10.63 C-1.47 10.64, -3.54 8.74, -4.98 7.47 C-6.42 6.2, -8.3 4.98, -8.47 2.99 C-8.63 1.01, -6.74 -2.68, -5.97 -4.42 C-5.2 -6.15, -5.15 -6.95, -3.84 -7.44 C-2.53 -7.93, 0.59 -7.27, 1.89 -7.34 C3.2 -7.4, 3.7 -8.03, 4 -7.83" stroke="none" stroke-width="0" fill="#1e1e1e"></path></g><g transform="translate(452.3071283277102 166.26892442829921) rotate(0 2.670935235627951 56.71398240661847)"><path d="M8.53 103.83 C10.03 104.1, 11.71 106.66, 12.72 107.97 C13.73 109.28, 14.48 109.91, 14.59 111.69 C14.7 113.47, 14.39 117.01, 13.37 118.66 C12.35 120.31, 9.98 121.14, 8.47 121.59 C6.96 122.05, 5.63 122.04, 4.33 121.37 C3.04 120.71, 1.66 119.11, 0.68 117.61 C-0.29 116.11, -1.78 114.13, -1.53 112.38 C-1.27 110.63, 0.41 108.23, 2.21 107.1 C4.01 105.96, 7.72 105.51, 9.29 105.57 C10.87 105.63, 11.61 107.49, 11.68 107.45 M10.98 104.2 C12.32 104.96, 12.8 108.39, 13.48 110.27 C14.17 112.15, 15.29 113.85, 15.09 115.49 C14.9 117.13, 13.56 118.8, 12.31 120.11 C11.06 121.42, 9.23 123.32, 7.59 123.33 C5.94 123.34, 3.87 121.44, 2.43 120.17 C0.99 118.89, -0.89 117.67, -1.05 115.69 C-1.22 113.71, 0.67 110.02, 1.44 108.28 C2.21 106.54, 2.26 105.74, 3.57 105.26 C4.88 104.77, 8 105.43, 9.31 105.36 C10.61 105.29, 11.11 104.67, 11.41 104.86" stroke="none" stroke-width="0" fill="#1e1e1e"></path></g></g><mask id="mask-e6hh35w7ILE651g4hhCnw"><rect x="0" y="0" fill="#fff" width="557.6489987989661" height="379.69688924153604"></rect><rect x="406.9781093397054" y="197.98290683491769" fill="#000" width="95.99990844726562" height="50" opacity="1"></rect></mask><g transform="translate(406.9781093397054 197.98290683491757) rotate(0 48.700822624652574 25.202820844026178)"><text x="47.99995422363281" y="0" font-family="Virgil, Segoe UI Emoji" font-size="20px" fill="#1e1e1e" text-anchor="middle" style="white-space: pre;" direction="ltr" dominant-baseline="text-before-edge">отношение</text><text x="47.99995422363281" y="25" font-family="Virgil, Segoe UI Emoji" font-size="20px" fill="#1e1e1e" text-anchor="middle" style="white-space: pre;" direction="ltr" dominant-baseline="text-before-edge">обмена</text></g><g stroke-linecap="round" transform="translate(809.3176269531247 108.78861159687904) rotate(0 76.98577880859375 27.580963134765625)"><path d="M13.79 0 C55.7 -2.17, 98.12 0, 140.18 0 M13.79 0 C52.69 -1.08, 89.69 0.06, 140.18 0 M140.18 0 C147.64 -0.38, 155.59 5.37, 153.97 13.79 M140.18 0 C148.43 1.57, 153.4 6.68, 153.97 13.79 M153.97 13.79 C156.01 24.28, 153.55 32.61, 153.97 41.37 M153.97 13.79 C153.5 23.54, 154.03 33.8, 153.97 41.37 M153.97 41.37 C153.23 51.87, 148.82 54.68, 140.18 55.16 M153.97 41.37 C152.29 51, 149.08 55.44, 140.18 55.16 M140.18 55.16 C104.29 55.39, 68.65 52.67, 13.79 55.16 M140.18 55.16 C88.99 55.57, 38.82 54.72, 13.79 55.16 M13.79 55.16 C5.4 56.79, 1.56 49.78, 0 41.37 M13.79 55.16 C4.57 53.78, 0.58 50.64, 0 41.37 M0 41.37 C1.29 30.22, -0.97 23.59, 0 13.79 M0 41.37 C0.62 35.77, 0.8 28.2, 0 13.79 M0 13.79 C1.54 3.48, 6.05 1.37, 13.79 0 M0 13.79 C0.81 2.86, 4.14 0.68, 13.79 0" stroke="#1971c2" stroke-width="2" fill="none"></path></g><g transform="translate(832.7734603881833 123.86957473164466) rotate(0 53.529945373535156 12.5)"><text x="53.529945373535156" y="0" font-family="Virgil, Segoe UI Emoji" font-size="20px" fill="#1971c2" text-anchor="middle" style="white-space: pre;" direction="ltr" dominant-baseline="text-before-edge">Участник А</text></g><g stroke-linecap="round" transform="translate(1176.3923441569004 108.78861159687904) rotate(0 76.98577880859375 27.580963134765625)"><path d="M13.79 0 C43.93 -0.23, 74.92 0.47, 140.18 0 M13.79 0 C45.13 -1.06, 79.01 -0.48, 140.18 0 M140.18 0 C148.55 1.36, 153.48 6.41, 153.97 13.79 M140.18 0 C150.03 0.99, 155.51 6.81, 153.97 13.79 M153.97 13.79 C155.26 22.96, 153.22 33.64, 153.97 41.37 M153.97 13.79 C153.66 21.61, 153.75 27.88, 153.97 41.37 M153.97 41.37 C152.51 50.94, 149.12 55.4, 140.18 55.16 M153.97 41.37 C153.42 50.46, 148.48 53.99, 140.18 55.16 M140.18 55.16 C99.69 54.74, 55.72 52.27, 13.79 55.16 M140.18 55.16 C101.17 55.05, 62.14 53.84, 13.79 55.16 M13.79 55.16 C4.57 53.96, 0.51 50.63, 0 41.37 M13.79 55.16 C5.45 56.58, -1.1 52.24, 0 41.37 M0 41.37 C-1.3 37.07, -0.09 31.56, 0 13.79 M0 41.37 C0.49 30.53, 0.45 21.49, 0 13.79 M0 13.79 C0.7 3.09, 4.2 0.59, 13.79 0 M0 13.79 C-0.55 3.13, 2.79 -1.19, 13.79 0" stroke="#1971c2" stroke-width="2" fill="none"></path></g><g transform="translate(1201.098177591959 123.86957473164466) rotate(0 52.279945373535156 12.5)"><text x="52.279945373535156" y="0" font-family="Virgil, Segoe UI Emoji" font-size="20px" fill="#1971c2" text-anchor="middle" style="white-space: pre;" direction="ltr" dominant-baseline="text-before-edge">Участник Б</text></g><g mask="url(#mask--_DxBwhIPvn1n5w3BjHLC)" stroke-linecap="round"><g transform="translate(966.574798583984 137.88549740684948) rotate(0 103.14934285481775 -0.7764452111257469)"><path d="M0.63 -0.54 C34.81 -0.76, 171.18 -0.52, 205.28 -0.73 M-0.49 1.79 C34.03 1.18, 172.78 -2.02, 207.46 -2.41" stroke="#1971c2" stroke-width="2" fill="none"></path></g><g transform="translate(966.574798583984 137.88549740684948) rotate(0 103.14934285481775 -0.7764452111257469)"><path d="M-1.79 -8.6 C-0.36 -8.85, 2.03 -8.53, 3.73 -7.63 C5.43 -6.74, 7.41 -4.98, 8.39 -3.22 C9.37 -1.46, 10.18 1.12, 9.59 2.9 C9 4.69, 6.61 6.48, 4.87 7.47 C3.12 8.46, 0.75 9.12, -0.87 8.84 C-2.49 8.57, -3.58 7.33, -4.88 5.82 C-6.18 4.32, -8.5 1.78, -8.68 -0.18 C-8.86 -2.14, -7.42 -4.3, -5.98 -5.94 C-4.54 -7.58, -1.37 -9.43, -0.03 -10.04 C1.3 -10.64, 1.87 -9.68, 2.05 -9.56 M0.57 -10.27 C2.54 -10.44, 4.65 -7.7, 5.99 -6.39 C7.32 -5.07, 7.95 -4.09, 8.57 -2.37 C9.19 -0.65, 10.32 2.42, 9.69 3.95 C9.05 5.48, 6.73 6.21, 4.75 6.8 C2.77 7.4, -0.46 7.77, -2.18 7.52 C-3.9 7.26, -4.43 6.69, -5.56 5.25 C-6.7 3.82, -9 0.76, -8.98 -1.09 C-8.96 -2.95, -7.1 -4.7, -5.42 -5.88 C-3.75 -7.05, 0.32 -7.56, 1.06 -8.16 C1.79 -8.76, -0.62 -9.44, -1.04 -9.47" stroke="none" stroke-width="0" fill="#1971c2"></path></g><g transform="translate(966.574798583984 137.88549740684948) rotate(0 103.14934285481775 -0.7764452111257469)"><path d="M205.03 -10.47 C206.46 -10.72, 208.86 -10.4, 210.56 -9.51 C212.25 -8.61, 214.24 -6.85, 215.22 -5.09 C216.19 -3.33, 217.01 -0.75, 216.42 1.03 C215.83 2.81, 213.44 4.61, 211.69 5.6 C209.95 6.59, 207.58 7.25, 205.96 6.97 C204.33 6.7, 203.25 5.46, 201.95 3.95 C200.64 2.45, 198.33 -0.09, 198.15 -2.05 C197.96 -4.01, 199.41 -6.17, 200.85 -7.81 C202.29 -9.46, 205.46 -11.31, 206.79 -11.91 C208.13 -12.51, 208.7 -11.55, 208.88 -11.43 M207.39 -12.14 C209.37 -12.31, 211.48 -9.57, 212.82 -8.26 C214.15 -6.94, 214.78 -5.97, 215.4 -4.24 C216.01 -2.52, 217.15 0.55, 216.51 2.08 C215.88 3.61, 213.55 4.34, 211.58 4.93 C209.6 5.52, 206.37 5.9, 204.65 5.64 C202.93 5.39, 202.4 4.82, 201.26 3.38 C200.13 1.95, 197.82 -1.11, 197.85 -2.97 C197.87 -4.82, 199.73 -6.57, 201.4 -7.75 C203.08 -8.93, 207.15 -9.43, 207.88 -10.03 C208.61 -10.63, 206.21 -11.31, 205.79 -11.34" stroke="none" stroke-width="0" fill="#1971c2"></path></g></g><mask id="mask--_DxBwhIPvn1n5w3BjHLC"><rect x="0" y="0" fill="#fff" width="1272.8734842936196" height="239.4383878291011"></rect><rect x="1021.724187215169" y="112.10905219572373" fill="#000" width="95.99990844726562" height="50" opacity="1"></rect></mask><g transform="translate(1021.724187215169 112.10905219572373) rotate(0 48.33464178311624 25.463183831544484)"><text x="47.99995422363281" y="0" font-family="Virgil, Segoe UI Emoji" font-size="20px" fill="#1971c2" text-anchor="middle" style="white-space: pre;" direction="ltr" dominant-baseline="text-before-edge">отношение</text><text x="47.99995422363281" y="25" font-family="Virgil, Segoe UI Emoji" font-size="20px" fill="#1971c2" text-anchor="middle" style="white-space: pre;" direction="ltr" dominant-baseline="text-before-edge">обмена</text></g><g stroke-linecap="round" transform="translate(809.3176269531247 288.8251665692096) rotate(0 76.98577880859375 27.580963134765625)"><path d="M13.79 0 C40.62 2.72, 68.99 0.27, 140.18 0 M13.79 0 C60.6 -0.71, 107.52 -0.18, 140.18 0 M140.18 0 C150.8 -0.54, 154.68 5.96, 153.97 13.79 M140.18 0 C148.14 -0.78, 153.24 3.67, 153.97 13.79 M153.97 13.79 C155.19 22.08, 153.41 30.03, 153.97 41.37 M153.97 13.79 C153.7 22.54, 153.55 30.86, 153.97 41.37 M153.97 41.37 C154.69 48.79, 147.38 57.13, 140.18 55.16 M153.97 41.37 C154.93 51.09, 147.5 55.43, 140.18 55.16 M140.18 55.16 C111.74 57.23, 79.26 55.65, 13.79 55.16 M140.18 55.16 C110.22 55.82, 79.04 55.93, 13.79 55.16 M13.79 55.16 C2.75 54.36, 0.82 49.15, 0 41.37 M13.79 55.16 C6.24 54.94, 1.89 52.24, 0 41.37 M0 41.37 C-0.97 31.8, 1.52 20.02, 0 13.79 M0 41.37 C-0.18 34.54, -0.73 28.47, 0 13.79 M0 13.79 C-1.43 5.42, 2.69 -0.36, 13.79 0 M0 13.79 C-1.58 5.61, 5.69 -1.62, 13.79 0" stroke="#1e1e1e" stroke-width="2" fill="none"></path></g><g transform="translate(832.0634613037106 303.90612970397524) rotate(0 54.23994445800781 12.5)"><text x="54.23994445800781" y="0" font-family="Virgil, Segoe UI Emoji" font-size="20px" fill="#1e1e1e" text-anchor="middle" style="white-space: pre;" direction="ltr" dominant-baseline="text-before-edge">Участник В</text></g><g stroke-linecap="round" transform="translate(1176.3923441569004 288.8251665692096) rotate(0 76.98577880859375 27.580963134765625)"><path d="M13.79 0 C63.32 0.03, 111.94 1.09, 140.18 0 M13.79 0 C57.86 -1.48, 100.85 -0.53, 140.18 0 M140.18 0 C148.3 -0.68, 153.33 3.79, 153.97 13.79 M140.18 0 C149.85 -0.68, 153.12 6.1, 153.97 13.79 M153.97 13.79 C154.28 21.04, 154.15 28.33, 153.97 41.37 M153.97 13.79 C154.22 21.06, 152.87 31.08, 153.97 41.37 M153.97 41.37 C154.81 51.02, 147.74 55.4, 140.18 55.16 M153.97 41.37 C152.54 48.88, 150.3 57.03, 140.18 55.16 M140.18 55.16 C91.2 55.65, 44.69 55.89, 13.79 55.16 M140.18 55.16 C93.57 55.68, 49.22 55.38, 13.79 55.16 M13.79 55.16 C6.02 54.97, 1.64 52.02, 0 41.37 M13.79 55.16 C6.89 53.96, 1.77 49.28, 0 41.37 M0 41.37 C-1.7 30.7, 0.4 20.33, 0 13.79 M0 41.37 C-0.5 35.28, -0.74 28.17, 0 13.79 M0 13.79 C-1.38 5.47, 5.55 -1.41, 13.79 0 M0 13.79 C0.71 6.6, 4.08 0.7, 13.79 0" stroke="#1971c2" stroke-width="2" fill="none"></path></g><g transform="translate(1200.9181772867832 303.90612970397524) rotate(0 52.45994567871094 12.5)"><text x="52.45994567871094" y="0" font-family="Virgil, Segoe UI Emoji" font-size="20px" fill="#1971c2" text-anchor="middle" style="white-space: pre;" direction="ltr" dominant-baseline="text-before-edge">Участник Г</text></g><g mask="url(#mask-lypuGW_xQ53aJ5qv7cKau)" stroke-linecap="round"><g transform="translate(891.367908664398 174.23537006276274) rotate(0 0.9108199126148975 53.52512949590539)"><path d="M0.34 0.52 C0.83 18.37, 2.24 90.5, 2.63 108.2 M-0.94 -0.26 C-0.51 17.8, 1.55 88.66, 2.1 106.69" stroke="#1e1e1e" stroke-width="2" fill="none"></path></g><g transform="translate(891.367908664398 174.23537006276274) rotate(0 0.9108199126148975 53.52512949590539)"><path d="M4.17 -7.37 C5.77 -6.95, 6.22 -5.43, 7 -3.85 C7.78 -2.27, 9.2 0.36, 8.85 2.13 C8.49 3.89, 6.42 5.64, 4.87 6.73 C3.32 7.83, 1.15 8.78, -0.47 8.68 C-2.09 8.59, -3.58 7.43, -4.86 6.16 C-6.14 4.89, -7.91 2.71, -8.15 1.06 C-8.4 -0.58, -7.2 -2.27, -6.34 -3.72 C-5.47 -5.17, -4.88 -6.99, -2.96 -7.63 C-1.03 -8.26, 3.82 -7.84, 5.19 -7.53 C6.57 -7.23, 5.43 -6.03, 5.32 -5.81 M-0.34 -7.45 C1.25 -7.8, 2.01 -7.97, 3.44 -7.02 C4.87 -6.07, 7.25 -3.69, 8.25 -1.75 C9.25 0.18, 10.21 2.99, 9.44 4.58 C8.68 6.17, 5.65 6.99, 3.66 7.77 C1.67 8.55, -0.96 9.39, -2.48 9.26 C-4 9.13, -4.31 8.47, -5.46 6.98 C-6.61 5.49, -9.23 2.44, -9.37 0.33 C-9.5 -1.78, -7.68 -4.14, -6.28 -5.67 C-4.89 -7.2, -1.79 -8.6, -0.99 -8.87 C-0.19 -9.14, -1.28 -7.52, -1.47 -7.31" stroke="none" stroke-width="0" fill="#1e1e1e"></path></g><g transform="translate(891.367908664398 174.23537006276274) rotate(0 0.9108199126148975 53.52512949590539)"><path d="M5.93 98.8 C7.52 99.22, 7.98 100.74, 8.76 102.32 C9.54 103.9, 10.96 106.53, 10.61 108.3 C10.25 110.06, 8.18 111.81, 6.63 112.9 C5.07 114, 2.91 114.95, 1.29 114.85 C-0.34 114.76, -1.82 113.6, -3.1 112.33 C-4.38 111.06, -6.15 108.88, -6.39 107.23 C-6.64 105.59, -5.45 103.9, -4.58 102.45 C-3.71 101, -3.12 99.18, -1.2 98.54 C0.73 97.91, 5.57 98.33, 6.95 98.64 C8.33 98.94, 7.19 100.14, 7.08 100.36 M1.42 98.72 C3.01 98.37, 3.77 98.2, 5.2 99.15 C6.63 100.1, 9.01 102.48, 10.01 104.42 C11.01 106.35, 11.97 109.16, 11.2 110.75 C10.44 112.34, 7.4 113.16, 5.42 113.94 C3.43 114.72, 0.8 115.56, -0.72 115.43 C-2.24 115.3, -2.56 114.64, -3.7 113.15 C-4.85 111.66, -7.47 108.61, -7.61 106.5 C-7.75 104.39, -5.92 102.03, -4.52 100.5 C-3.13 98.97, -0.03 97.57, 0.77 97.3 C1.57 97.03, 0.48 98.65, 0.29 98.87" stroke="none" stroke-width="0" fill="#1e1e1e"></path></g></g><mask id="mask-lypuGW_xQ53aJ5qv7cKau"><rect x="0" y="0" fill="#fff" width="993.1895484896277" height="381.2856290545735"></rect><rect x="844.27877435338" y="202.76049955866802" fill="#000" width="95.99990844726562" height="50" opacity="1"></rect></mask><g transform="translate(844.27877435338 202.7604995586679) rotate(0 47.93280515962738 25.447531397626904)"><text x="47.99995422363281" y="0" font-family="Virgil, Segoe UI Emoji" font-size="20px" fill="#1e1e1e" text-anchor="middle" style="white-space: pre;" direction="ltr" dominant-baseline="text-before-edge">отношение</text><text x="47.99995422363281" y="25" font-family="Virgil, Segoe UI Emoji" font-size="20px" fill="#1e1e1e" text-anchor="middle" style="white-space: pre;" direction="ltr" dominant-baseline="text-before-edge">обмена</text></g><g mask="url(#mask-DsR199mhwuXiwriz8tXsC)" stroke-linecap="round"><g transform="translate(1251.6247552808345 167.7305045717278) rotate(0 2.670935235627894 56.713982406618356)"><path d="M0.86 -0.32 C1.68 18.52, 5.13 95.35, 5.77 114.25 M-0.15 -1.54 C0.48 17.48, 4.42 93.27, 5.04 112.55" stroke="#1971c2" stroke-width="2" fill="none"></path></g><g transform="translate(1251.6247552808345 167.7305045717278) rotate(0 2.670935235627894 56.713982406618356)"><path d="M2.69 -9.34 C4.49 -9.23, 5.88 -8.22, 6.95 -6.83 C8.02 -5.45, 8.95 -2.91, 9.12 -1.03 C9.3 0.85, 9.15 2.99, 8 4.45 C6.84 5.92, 4.05 7.19, 2.2 7.76 C0.35 8.33, -1.39 8.65, -3.1 7.86 C-4.82 7.07, -7.53 4.94, -8.1 3.02 C-8.67 1.11, -7.34 -1.9, -6.52 -3.6 C-5.71 -5.31, -5.19 -6.46, -3.23 -7.2 C-1.26 -7.94, 3.67 -8.02, 5.25 -8.03 C6.82 -8.04, 6.42 -7.43, 6.22 -7.26 M3.13 -8.14 C5.26 -7.64, 8.31 -5.76, 9.23 -4.4 C10.16 -3.05, 9.29 -1.73, 8.7 -0.01 C8.11 1.72, 6.77 4.39, 5.69 5.94 C4.62 7.49, 4.12 9.13, 2.26 9.27 C0.4 9.41, -3.79 8.06, -5.47 6.77 C-7.14 5.48, -7.54 3.42, -7.79 1.51 C-8.04 -0.4, -7.72 -3.18, -6.96 -4.7 C-6.2 -6.23, -4.72 -6.89, -3.24 -7.64 C-1.75 -8.38, 1.14 -9.15, 1.95 -9.18 C2.77 -9.22, 1.54 -8.2, 1.66 -7.83" stroke="none" stroke-width="0" fill="#1971c2"></path></g><g transform="translate(1251.6247552808345 167.7305045717278) rotate(0 2.670935235627894 56.713982406618356)"><path d="M6.87 103.54 C8.67 103.65, 10.06 104.66, 11.13 106.04 C12.21 107.43, 13.13 109.96, 13.3 111.85 C13.48 113.73, 13.33 115.86, 12.18 117.33 C11.02 118.79, 8.23 120.07, 6.38 120.64 C4.53 121.21, 2.8 121.53, 1.08 120.74 C-0.64 119.95, -3.35 117.81, -3.92 115.9 C-4.49 113.99, -3.15 110.98, -2.34 109.27 C-1.53 107.57, -1.01 106.42, 0.96 105.68 C2.92 104.94, 7.86 104.85, 9.43 104.84 C11 104.83, 10.6 105.44, 10.4 105.61 M7.31 104.74 C9.44 105.24, 12.49 107.12, 13.42 108.47 C14.35 109.83, 13.47 111.14, 12.88 112.87 C12.29 114.59, 10.95 117.27, 9.87 118.81 C8.8 120.36, 8.3 122.01, 6.44 122.15 C4.58 122.29, 0.39 120.94, -1.29 119.65 C-2.96 118.35, -3.36 116.3, -3.61 114.39 C-3.86 112.47, -3.54 109.7, -2.78 108.17 C-2.02 106.65, -0.54 105.99, 0.95 105.24 C2.43 104.49, 5.32 103.72, 6.13 103.69 C6.95 103.66, 5.73 104.68, 5.84 105.05" stroke="none" stroke-width="0" fill="#1971c2"></path></g></g><mask id="mask-DsR199mhwuXiwriz8tXsC"><rect x="0" y="0" fill="#fff" width="1356.9666257520903" height="381.15846938496463"></rect><rect x="1206.2957362928296" y="199.44448697834605" fill="#000" width="95.99990844726562" height="50" opacity="1"></rect></mask><g transform="translate(1206.2957362928296 199.44448697834605) rotate(0 48.13588177198085 24.638686304972566)"><text x="47.99995422363281" y="0" font-family="Virgil, Segoe UI Emoji" font-size="20px" fill="#1971c2" text-anchor="middle" style="white-space: pre;" direction="ltr" dominant-baseline="text-before-edge">отношение</text><text x="47.99995422363281" y="25" font-family="Virgil, Segoe UI Emoji" font-size="20px" fill="#1971c2" text-anchor="middle" style="white-space: pre;" direction="ltr" dominant-baseline="text-before-edge">обмена</text></g><g stroke-linecap="round" transform="translate(25.888366699218864 546.0902219077514) rotate(0 76.98577880859375 27.580963134765625)"><path d="M13.79 0 C55.99 -1.01, 98.57 -0.48, 140.18 0 M13.79 0 C51.62 -0.05, 89.48 -1.18, 140.18 0 M140.18 0 C150.19 -1.41, 155.4 4.4, 153.97 13.79 M140.18 0 C151.26 1.68, 156.26 3.39, 153.97 13.79 M153.97 13.79 C155.19 24.88, 152.31 34.18, 153.97 41.37 M153.97 13.79 C153.12 22.36, 153.19 32.39, 153.97 41.37 M153.97 41.37 C152.06 50.2, 148 56.04, 140.18 55.16 M153.97 41.37 C155.06 48.94, 150.08 57.17, 140.18 55.16 M140.18 55.16 C106.24 56.85, 69.34 55.4, 13.79 55.16 M140.18 55.16 C104.62 55.93, 70.5 56.35, 13.79 55.16 M13.79 55.16 C6.2 56.57, -1.21 50, 0 41.37 M13.79 55.16 C2.45 55.14, 0.93 51.68, 0 41.37 M0 41.37 C-0.63 35.72, -0.82 29.19, 0 13.79 M0 41.37 C-0.72 32.35, 0.04 22.82, 0 13.79 M0 13.79 C-0.19 4.78, 3.21 -0.41, 13.79 0 M0 13.79 C-1.17 3.12, 2.68 -0.24, 13.79 0" stroke="#c2255c" stroke-width="2" fill="none"></path></g><g transform="translate(49.34420013427746 561.171185042517) rotate(0 53.529945373535156 12.5)"><text x="53.529945373535156" y="0" font-family="Virgil, Segoe UI Emoji" font-size="20px" fill="#c2255c" text-anchor="middle" style="white-space: pre;" direction="ltr" dominant-baseline="text-before-edge">Участник А</text></g><g stroke-linecap="round" transform="translate(392.9630839029952 546.0902219077514) rotate(0 76.98577880859375 27.580963134765625)"><path d="M13.79 0 C51.62 0.42, 90.55 -1.27, 140.18 0 M13.79 0 C61.32 -0.2, 108.74 0.41, 140.18 0 M140.18 0 C151.02 1.46, 155.97 3.55, 153.97 13.79 M140.18 0 C151.14 -1.29, 155.65 6.18, 153.97 13.79 M153.97 13.79 C154.36 22.55, 152.48 30.7, 153.97 41.37 M153.97 13.79 C152.82 20.45, 153.09 27.91, 153.97 41.37 M153.97 41.37 C154.92 49.16, 149.99 56.91, 140.18 55.16 M153.97 41.37 C153.45 51.26, 151.32 56.45, 140.18 55.16 M140.18 55.16 C97.87 55.72, 57.56 53.22, 13.79 55.16 M140.18 55.16 C101.58 56.54, 60.78 55.55, 13.79 55.16 M13.79 55.16 C2.73 55.14, 0.81 51.53, 0 41.37 M13.79 55.16 C2.58 54.82, -0.26 49.79, 0 41.37 M0 41.37 C1.11 31.28, -0.21 22.38, 0 13.79 M0 41.37 C-0.05 31.47, -0.65 21.17, 0 13.79 M0 13.79 C-1.02 3.31, 2.93 -0.21, 13.79 0 M0 13.79 C0.28 2.94, 2.34 -1.47, 13.79 0" stroke="#1e1e1e" stroke-width="2" fill="none"></path></g><g transform="translate(417.6689173380538 561.171185042517) rotate(0 52.279945373535156 12.5)"><text x="52.279945373535156" y="0" font-family="Virgil, Segoe UI Emoji" font-size="20px" fill="#1e1e1e" text-anchor="middle" style="white-space: pre;" direction="ltr" dominant-baseline="text-before-edge">Участник Б</text></g><g mask="url(#mask-vGOiwvIaBJ3GptQCD_ooO)" stroke-linecap="round"><g transform="translate(183.14553833007824 575.1871077177218) rotate(0 103.14934285481775 -0.7764452111258606)"><path d="M-0.57 0.87 C33.55 0.41, 170.63 -1.49, 205.19 -2.03 M1.33 0.29 C35.77 -0.08, 173.16 -0.45, 207.32 -0.75" stroke="#1e1e1e" stroke-width="2" fill="none"></path></g><g transform="translate(183.14553833007824 575.1871077177218) rotate(0 103.14934285481775 -0.7764452111258606)"><path d="M-1.5 -8.11 C0.4 -8.47, 3.57 -7.92, 5.1 -6.91 C6.63 -5.91, 7.24 -4, 7.69 -2.07 C8.14 -0.14, 8.47 2.83, 7.79 4.64 C7.1 6.46, 5.38 8.17, 3.59 8.83 C1.8 9.48, -1.04 9.18, -2.97 8.57 C-4.91 7.96, -6.88 6.76, -8.02 5.17 C-9.16 3.58, -10.05 0.77, -9.81 -0.98 C-9.58 -2.74, -8.07 -4.07, -6.61 -5.38 C-5.15 -6.7, -2.11 -8.36, -1.05 -8.87 C0.01 -9.38, -0.23 -8.85, -0.26 -8.45 M-1.65 -6.87 C0.24 -7.28, 2.77 -7.57, 4.33 -6.55 C5.89 -5.53, 7.37 -2.92, 7.71 -0.77 C8.04 1.39, 7.3 4.65, 6.36 6.37 C5.42 8.08, 3.62 9.21, 2.08 9.52 C0.55 9.82, -1.35 8.71, -2.86 8.2 C-4.36 7.69, -6.08 7.88, -6.95 6.47 C-7.81 5.06, -7.92 1.86, -8.03 -0.25 C-8.13 -2.37, -8.54 -5.12, -7.58 -6.2 C-6.63 -7.28, -3.33 -6.38, -2.31 -6.75 C-1.29 -7.12, -1.77 -8.3, -1.46 -8.42" stroke="none" stroke-width="0" fill="#1e1e1e"></path></g><g transform="translate(183.14553833007824 575.1871077177218) rotate(0 103.14934285481775 -0.7764452111258606)"><path d="M206.4 -9.73 C208.29 -10.09, 211.46 -9.54, 213 -8.54 C214.53 -7.53, 215.14 -5.62, 215.58 -3.69 C216.03 -1.77, 216.36 1.21, 215.68 3.02 C214.99 4.84, 213.28 6.55, 211.48 7.21 C209.69 7.86, 206.85 7.56, 204.92 6.95 C202.99 6.34, 201.01 5.14, 199.87 3.55 C198.73 1.95, 197.84 -0.85, 198.08 -2.61 C198.31 -4.37, 199.82 -5.69, 201.28 -7 C202.74 -8.32, 205.78 -9.98, 206.84 -10.49 C207.9 -11, 207.67 -10.48, 207.64 -10.08 M206.24 -8.49 C208.13 -8.9, 210.66 -9.19, 212.22 -8.17 C213.78 -7.16, 215.26 -4.54, 215.6 -2.39 C215.94 -0.24, 215.19 3.03, 214.25 4.75 C213.31 6.46, 211.51 7.59, 209.97 7.89 C208.44 8.2, 206.54 7.08, 205.04 6.58 C203.53 6.07, 201.81 6.26, 200.95 4.85 C200.08 3.44, 199.97 0.24, 199.86 -1.88 C199.76 -3.99, 199.36 -6.74, 200.31 -7.82 C201.26 -8.91, 204.56 -8, 205.58 -8.37 C206.6 -8.74, 206.12 -9.92, 206.43 -10.05" stroke="none" stroke-width="0" fill="#1e1e1e"></path></g></g><mask id="mask-vGOiwvIaBJ3GptQCD_ooO"><rect x="0" y="0" fill="#fff" width="489.44422403971373" height="676.7399981399734"></rect><rect x="238.29492696126317" y="549.410662506596" fill="#000" width="95.99990844726562" height="50" opacity="1"></rect></mask><g transform="translate(238.29492696126317 549.410662506596) rotate(0 48.22363073030024 25.19623562619074)"><text x="47.99995422363281" y="0" font-family="Virgil, Segoe UI Emoji" font-size="20px" fill="#1e1e1e" text-anchor="middle" style="white-space: pre;" direction="ltr" dominant-baseline="text-before-edge">отношение</text><text x="47.99995422363281" y="25" font-family="Virgil, Segoe UI Emoji" font-size="20px" fill="#1e1e1e" text-anchor="middle" style="white-space: pre;" direction="ltr" dominant-baseline="text-before-edge">обмена</text></g><g stroke-linecap="round" transform="translate(25.888366699218864 726.1267768800819) rotate(0 76.98577880859375 27.580963134765625)"><path d="M13.79 0 C38.61 0.91, 66.06 1.13, 140.18 0 M13.79 0 C61.68 0.1, 108.77 1.35, 140.18 0 M140.18 0 C150.08 -1.51, 153.58 5.19, 153.97 13.79 M140.18 0 C148.82 -1.47, 152.17 3.4, 153.97 13.79 M153.97 13.79 C153.72 18.72, 154.96 27.36, 153.97 41.37 M153.97 13.79 C153.83 20.43, 154.9 27.01, 153.97 41.37 M153.97 41.37 C154.59 49.85, 148.55 54.68, 140.18 55.16 M153.97 41.37 C155.21 51.75, 147.74 55.43, 140.18 55.16 M140.18 55.16 C103.44 54.96, 63.3 54.31, 13.79 55.16 M140.18 55.16 C101.5 55.62, 64.45 55.44, 13.79 55.16 M13.79 55.16 C4.81 54.3, -0.47 51.56, 0 41.37 M13.79 55.16 C2.84 54.79, -2.14 52, 0 41.37 M0 41.37 C-0.02 32.18, -0.62 24.74, 0 13.79 M0 41.37 C0.35 34.15, -0.75 27.72, 0 13.79 M0 13.79 C-1.59 2.85, 5.69 -0.18, 13.79 0 M0 13.79 C-1.79 5.91, 3.54 1.55, 13.79 0" stroke="#c2255c" stroke-width="2" fill="none"></path></g><g transform="translate(48.6342010498048 741.2077400148476) rotate(0 54.23994445800781 12.5)"><text x="54.23994445800781" y="0" font-family="Virgil, Segoe UI Emoji" font-size="20px" fill="#c2255c" text-anchor="middle" style="white-space: pre;" direction="ltr" dominant-baseline="text-before-edge">Участник В</text></g><g stroke-linecap="round" transform="translate(392.9630839029952 726.1267768800819) rotate(0 76.98577880859375 27.580963134765625)"><path d="M13.79 0 C62.19 0.96, 106.63 0.5, 140.18 0 M13.79 0 C44.99 -1.62, 75.3 -0.57, 140.18 0 M140.18 0 C148.9 -1.28, 152.4 3.56, 153.97 13.79 M140.18 0 C147.74 0.95, 151.78 4.18, 153.97 13.79 M153.97 13.79 C152.68 20.78, 155.84 26.09, 153.97 41.37 M153.97 13.79 C154.51 22.55, 153.79 31.77, 153.97 41.37 M153.97 41.37 C155.05 51.6, 147.95 55.4, 140.18 55.16 M153.97 41.37 C154.01 51.79, 151.21 56.78, 140.18 55.16 M140.18 55.16 C109.91 54.79, 80.65 52.23, 13.79 55.16 M140.18 55.16 C104.23 54.31, 67.84 55.24, 13.79 55.16 M13.79 55.16 C3.07 54.83, -1.86 51.82, 0 41.37 M13.79 55.16 C4.21 56.87, -0.22 50.78, 0 41.37 M0 41.37 C-1.23 33.35, -0.16 28.89, 0 13.79 M0 41.37 C-0.53 34.21, 0.82 28.71, 0 13.79 M0 13.79 C-1.56 5.74, 3.68 1.34, 13.79 0 M0 13.79 C-0.55 3.88, 4.33 0.41, 13.79 0" stroke="#1e1e1e" stroke-width="2" fill="none"></path></g><g transform="translate(417.488917032878 741.2077400148476) rotate(0 52.45994567871094 12.5)"><text x="52.45994567871094" y="0" font-family="Virgil, Segoe UI Emoji" font-size="20px" fill="#1e1e1e" text-anchor="middle" style="white-space: pre;" direction="ltr" dominant-baseline="text-before-edge">Участник Г</text></g><g mask="url(#mask-RCFLLXEW0HydbCaVRsXuw)" stroke-linecap="round"><g transform="translate(107.93864841049219 611.5369803736351) rotate(0 0.9108199126148406 53.52512949590539)"><path d="M0.92 -0.67 C1.17 17.41, 2.48 90.07, 2.7 107.87 M-0.05 1.59 C0.01 19.4, 1.91 88.62, 2.21 106.18" stroke="#c2255c" stroke-width="2" fill="none"></path></g><g transform="translate(107.93864841049219 611.5369803736351) rotate(0 0.9108199126148406 53.52512949590539)"><path d="M0.3 -9.45 C1.98 -9.66, 4.15 -9.27, 5.69 -8.09 C7.23 -6.91, 9.11 -4.07, 9.52 -2.37 C9.93 -0.66, 9.1 0.72, 8.13 2.14 C7.17 3.57, 5.51 5.23, 3.72 6.17 C1.93 7.11, -0.87 8.3, -2.61 7.78 C-4.34 7.25, -5.89 4.68, -6.68 3.02 C-7.47 1.36, -7.73 -0.51, -7.36 -2.18 C-6.99 -3.85, -6.02 -5.87, -4.46 -7 C-2.9 -8.13, 0.55 -8.67, 1.99 -8.96 C3.42 -9.26, 3.97 -8.86, 4.16 -8.78 M3.48 -7.93 C5.42 -7.55, 8.08 -7.04, 8.94 -5.92 C9.81 -4.81, 9.13 -3.17, 8.69 -1.21 C8.26 0.75, 7.49 4.51, 6.35 5.84 C5.21 7.17, 3.46 6.75, 1.88 6.78 C0.29 6.8, -1.68 6.76, -3.18 5.97 C-4.67 5.17, -6.53 3.79, -7.12 2.02 C-7.71 0.25, -7.18 -2.98, -6.71 -4.66 C-6.24 -6.35, -6.07 -7.51, -4.29 -8.08 C-2.52 -8.65, 2.84 -7.89, 3.93 -8.07 C5.01 -8.26, 2.48 -9.38, 2.2 -9.21" stroke="none" stroke-width="0" fill="#c2255c"></path></g><g transform="translate(107.93864841049219 611.5369803736351) rotate(0 0.9108199126148406 53.52512949590539)"><path d="M1.58 97.41 C3.27 97.2, 5.43 97.59, 6.97 98.77 C8.51 99.95, 10.4 102.78, 10.81 104.49 C11.21 106.19, 10.38 107.58, 9.42 109 C8.45 110.42, 6.8 112.09, 5.01 113.02 C3.22 113.96, 0.41 115.16, -1.32 114.63 C-3.06 114.11, -4.6 111.54, -5.39 109.88 C-6.19 108.22, -6.45 106.34, -6.08 104.67 C-5.71 103, -4.73 100.99, -3.17 99.86 C-1.62 98.73, 1.84 98.19, 3.27 97.89 C4.71 97.59, 5.25 98, 5.44 98.08 M4.76 98.93 C6.71 99.3, 9.36 99.81, 10.23 100.93 C11.1 102.05, 10.41 103.68, 9.98 105.64 C9.54 107.6, 8.77 111.36, 7.63 112.7 C6.5 114.03, 4.75 113.61, 3.16 113.63 C1.57 113.65, -0.39 113.61, -1.89 112.82 C-3.39 112.03, -5.24 110.65, -5.83 108.88 C-6.42 107.1, -5.89 103.88, -5.42 102.19 C-4.95 100.51, -4.78 99.34, -3.01 98.77 C-1.24 98.21, 4.13 98.97, 5.21 98.78 C6.29 98.59, 3.76 97.47, 3.49 97.64" stroke="none" stroke-width="0" fill="#c2255c"></path></g></g><mask id="mask-RCFLLXEW0HydbCaVRsXuw"><rect x="0" y="0" fill="#fff" width="209.76028823572187" height="818.5872393654458"></rect><rect x="60.84951409947422" y="640.0621098695406" fill="#000" width="95.99990844726562" height="50" opacity="1"></rect></mask><g transform="translate(60.84951409947416 640.0621098695404) rotate(0 48.41016278767495 25.07650653645385)"><text x="47.99995422363281" y="0" font-family="Virgil, Segoe UI Emoji" font-size="20px" fill="#c2255c" text-anchor="middle" style="white-space: pre;" direction="ltr" dominant-baseline="text-before-edge">отношение</text><text x="47.99995422363281" y="25" font-family="Virgil, Segoe UI Emoji" font-size="20px" fill="#c2255c" text-anchor="middle" style="white-space: pre;" direction="ltr" dominant-baseline="text-before-edge">обмена</text></g><g mask="url(#mask-6tkjQpp0DrhvE6773WDkH)" stroke-linecap="round"><g transform="translate(468.1954950269293 605.0321148826001) rotate(0 2.670935235627951 56.71398240661847)"><path d="M0.42 -0.91 C1.13 17.92, 4.33 94.86, 5.11 113.78 M-0.82 1.23 C-0.37 19.61, 3.21 93.12, 4.03 111.85" stroke="#1e1e1e" stroke-width="2" fill="none"></path></g><g transform="translate(468.1954950269293 605.0321148826001) rotate(0 2.670935235627951 56.71398240661847)"><path d="M-1.91 -9.29 C-0.21 -9.88, 1.86 -10.49, 3.48 -9.83 C5.09 -9.18, 7.03 -7.33, 7.79 -5.36 C8.55 -3.4, 8.45 0.15, 8.04 1.97 C7.63 3.79, 6.65 4.65, 5.33 5.55 C4.02 6.45, 1.91 7.47, 0.16 7.39 C-1.59 7.3, -3.71 6.31, -5.18 5.03 C-6.65 3.74, -8.44 1.61, -8.67 -0.32 C-8.9 -2.24, -8.02 -4.88, -6.58 -6.5 C-5.15 -8.12, -1.18 -9.56, -0.06 -10.02 C1.06 -10.49, 0.38 -9.61, 0.13 -9.29 M1.81 -9.95 C3.15 -9.35, 5.3 -6.15, 6.44 -4.59 C7.58 -3.03, 8.58 -2.18, 8.66 -0.58 C8.73 1.02, 8.12 3.61, 6.89 5.01 C5.66 6.41, 3.12 7.8, 1.29 7.81 C-0.55 7.81, -2.42 6.2, -4.13 5.05 C-5.84 3.9, -8.66 2.43, -8.99 0.9 C-9.31 -0.63, -7.01 -2.39, -6.07 -4.14 C-5.14 -5.88, -4.85 -8.85, -3.37 -9.55 C-1.88 -10.26, 1.82 -8.18, 2.84 -8.36 C3.86 -8.54, 2.56 -10.48, 2.77 -10.64" stroke="none" stroke-width="0" fill="#1e1e1e"></path></g><g transform="translate(468.1954950269293 605.0321148826001) rotate(0 2.670935235627951 56.71398240661847)"><path d="M1.71 103.46 C3.4 102.88, 5.48 102.27, 7.09 102.92 C8.71 103.58, 10.64 105.42, 11.4 107.39 C12.16 109.36, 12.06 112.91, 11.65 114.73 C11.24 116.55, 10.26 117.4, 8.95 118.3 C7.63 119.21, 5.53 120.23, 3.78 120.14 C2.02 120.05, -0.09 119.06, -1.57 117.78 C-3.04 116.5, -4.82 114.36, -5.06 112.44 C-5.29 110.52, -4.4 107.87, -2.97 106.25 C-1.53 104.63, 2.44 103.2, 3.55 102.73 C4.67 102.27, 3.99 103.14, 3.74 103.46 M5.43 102.81 C6.76 103.41, 8.91 106.6, 10.05 108.16 C11.19 109.72, 12.2 110.57, 12.27 112.17 C12.35 113.77, 11.73 116.37, 10.5 117.77 C9.27 119.16, 6.74 120.56, 4.9 120.56 C3.06 120.57, 1.19 118.95, -0.52 117.8 C-2.23 116.65, -5.05 115.18, -5.37 113.65 C-5.7 112.12, -3.4 110.36, -2.46 108.62 C-1.52 106.88, -1.24 103.91, 0.24 103.2 C1.73 102.5, 5.43 104.58, 6.45 104.4 C7.48 104.21, 6.17 102.27, 6.38 102.12" stroke="none" stroke-width="0" fill="#1e1e1e"></path></g></g><mask id="mask-6tkjQpp0DrhvE6773WDkH"><rect x="0" y="0" fill="#fff" width="573.5373654981852" height="818.460079695837"></rect><rect x="422.86647603892425" y="636.7460972892186" fill="#000" width="95.99990844726562" height="50" opacity="1"></rect></mask><g transform="translate(422.86647603892425 636.7460972892186) rotate(0 47.473140694736514 24.724823158234358)"><text x="47.99995422363281" y="0" font-family="Virgil, Segoe UI Emoji" font-size="20px" fill="#1e1e1e" text-anchor="middle" style="white-space: pre;" direction="ltr" dominant-baseline="text-before-edge">отношение</text><text x="47.99995422363281" y="25" font-family="Virgil, Segoe UI Emoji" font-size="20px" fill="#1e1e1e" text-anchor="middle" style="white-space: pre;" direction="ltr" dominant-baseline="text-before-edge">обмена</text></g><g stroke-linecap="round" transform="translate(829.1587320963532 543.0744239748083) rotate(0 76.98577880859375 27.580963134765625)"><path d="M13.79 0 C61.25 -1.1, 109.83 1.58, 140.18 0 M13.79 0 C57.69 -0.15, 101.93 -0.24, 140.18 0 M140.18 0 C148.91 1, 152.44 4.27, 153.97 13.79 M140.18 0 C147.23 1.44, 153.58 6.31, 153.97 13.79 M153.97 13.79 C153.58 20.79, 152.71 28.16, 153.97 41.37 M153.97 13.79 C153.02 21.13, 153.21 28.88, 153.97 41.37 M153.97 41.37 C155.06 50.39, 147.82 56.3, 140.18 55.16 M153.97 41.37 C152.91 52.11, 148.82 54.45, 140.18 55.16 M140.18 55.16 C105.66 53.63, 67.99 54.94, 13.79 55.16 M140.18 55.16 C111.72 55.91, 80.98 55.49, 13.79 55.16 M13.79 55.16 C2.79 56.67, -0.68 49.61, 0 41.37 M13.79 55.16 C5.27 54.41, 0.58 50.47, 0 41.37 M0 41.37 C-0.07 33.59, 1.18 21.73, 0 13.79 M0 41.37 C-0.08 33.15, 0.94 26.37, 0 13.79 M0 13.79 C1.03 3.04, 5.48 -1.77, 13.79 0 M0 13.79 C1.03 6.54, 4.84 0.28, 13.79 0" stroke="#1e1e1e" stroke-width="2" fill="none"></path></g><g transform="translate(852.6145655314118 558.1553871095739) rotate(0 53.529945373535156 12.5)"><text x="53.529945373535156" y="0" font-family="Virgil, Segoe UI Emoji" font-size="20px" fill="#1e1e1e" text-anchor="middle" style="white-space: pre;" direction="ltr" dominant-baseline="text-before-edge">Участник А</text></g><g stroke-linecap="round" transform="translate(1196.2334493001295 543.0744239748083) rotate(0 76.98577880859375 27.580963134765625)"><path d="M13.79 0 C40.87 -2.26, 65.73 -0.74, 140.18 0 M13.79 0 C47.24 1.04, 80.39 0.38, 140.18 0 M140.18 0 C147.51 1.25, 153.63 6.08, 153.97 13.79 M140.18 0 C149.16 0.21, 152.38 4.12, 153.97 13.79 M153.97 13.79 C153.58 20.91, 152.35 25.56, 153.97 41.37 M153.97 13.79 C154.3 20.21, 152.97 27.37, 153.97 41.37 M153.97 41.37 C153.05 51.91, 148.89 54.54, 140.18 55.16 M153.97 41.37 C153.71 50.98, 148.22 57.4, 140.18 55.16 M140.18 55.16 C106.53 56.65, 76.81 56.93, 13.79 55.16 M140.18 55.16 C101.32 55.39, 63.92 54.16, 13.79 55.16 M13.79 55.16 C5.18 54.51, 0.5 50.48, 0 41.37 M13.79 55.16 C5.71 53.5, -1.27 50.26, 0 41.37 M0 41.37 C-0.89 30.41, 1.15 19.59, 0 13.79 M0 41.37 C0.26 35.04, 0.19 29.39, 0 13.79 M0 13.79 C0.89 6.28, 4.8 0.25, 13.79 0 M0 13.79 C1.41 4.33, 6.01 -1.26, 13.79 0" stroke="#6741d9" stroke-width="2" fill="none"></path></g><g transform="translate(1220.939282735188 558.1553871095739) rotate(0 52.279945373535156 12.5)"><text x="52.279945373535156" y="0" font-family="Virgil, Segoe UI Emoji" font-size="20px" fill="#6741d9" text-anchor="middle" style="white-space: pre;" direction="ltr" dominant-baseline="text-before-edge">Участник Б</text></g><g mask="url(#mask-2KvUAfAbJz_7UdAmaz9Hz)" stroke-linecap="round"><g transform="translate(986.4159037272126 572.1713097847787) rotate(0 103.14934285481775 -0.7764452111257469)"><path d="M-0.14 -0.4 C34.44 -0.72, 172.07 -1.98, 206.42 -2.07 M-1.67 -1.66 C32.86 -1.8, 171.08 -0.58, 205.54 -0.8" stroke="#1e1e1e" stroke-width="2" fill="none"></path></g><g transform="translate(986.4159037272126 572.1713097847787) rotate(0 103.14934285481775 -0.7764452111257469)"><path d="M-1.87 -8.73 C-0.34 -9.47, 1.2 -8.95, 2.81 -8.19 C4.43 -7.43, 7.16 -5.97, 7.82 -4.18 C8.48 -2.39, 7.38 0.72, 6.76 2.58 C6.13 4.43, 5.47 5.97, 4.09 6.95 C2.72 7.93, 0.29 8.6, -1.51 8.45 C-3.3 8.31, -5.71 7.41, -6.68 6.1 C-7.66 4.78, -7.37 2.33, -7.38 0.56 C-7.39 -1.21, -7.65 -3.09, -6.74 -4.53 C-5.83 -5.96, -2.75 -7.37, -1.91 -8.05 C-1.08 -8.72, -1.76 -8.58, -1.76 -8.58 M2.45 -7.24 C3.9 -6.61, 3.8 -6.01, 4.9 -4.54 C6.01 -3.07, 9.15 0.05, 9.08 1.56 C9 3.08, 5.93 3.67, 4.46 4.56 C2.98 5.45, 1.89 6.33, 0.23 6.89 C-1.43 7.44, -3.95 8.51, -5.48 7.89 C-7.02 7.26, -8.49 5.29, -9.01 3.14 C-9.52 0.99, -9.18 -3.37, -8.56 -5.02 C-7.93 -6.67, -7.13 -6.23, -5.27 -6.76 C-3.41 -7.3, 1.63 -7.74, 2.59 -8.22 C3.55 -8.71, 0.49 -9.58, 0.49 -9.65" stroke="none" stroke-width="0" fill="#1e1e1e"></path></g><g transform="translate(986.4159037272126 572.1713097847787) rotate(0 103.14934285481775 -0.7764452111257469)"><path d="M203.81 -9.13 C205.34 -9.87, 206.88 -9.34, 208.49 -8.58 C210.11 -7.83, 212.84 -6.37, 213.5 -4.58 C214.16 -2.78, 213.06 0.32, 212.44 2.18 C211.81 4.03, 211.15 5.57, 209.77 6.55 C208.4 7.53, 205.97 8.2, 204.17 8.06 C202.38 7.91, 199.97 7.02, 199 5.7 C198.02 4.38, 198.31 1.93, 198.3 0.16 C198.29 -1.61, 198.03 -3.49, 198.94 -4.93 C199.85 -6.36, 202.93 -7.77, 203.77 -8.45 C204.6 -9.12, 203.92 -8.98, 203.92 -8.98 M208.13 -7.64 C209.58 -7.01, 209.48 -6.41, 210.58 -4.94 C211.69 -3.47, 214.83 -0.35, 214.76 1.16 C214.68 2.68, 211.61 3.27, 210.14 4.16 C208.66 5.05, 207.57 5.93, 205.91 6.49 C204.25 7.04, 201.73 8.11, 200.2 7.49 C198.66 6.86, 197.19 4.9, 196.67 2.75 C196.16 0.6, 196.5 -3.76, 197.12 -5.42 C197.75 -7.07, 198.55 -6.62, 200.41 -7.16 C202.27 -7.69, 207.31 -8.14, 208.27 -8.62 C209.23 -9.1, 206.17 -9.98, 206.17 -10.05" stroke="none" stroke-width="0" fill="#1e1e1e"></path></g></g><mask id="mask-2KvUAfAbJz_7UdAmaz9Hz"><rect x="0" y="0" fill="#fff" width="1292.7145894368482" height="673.7242002070303"></rect><rect x="1041.5652923583975" y="546.394864573653" fill="#000" width="95.99990844726562" height="50" opacity="1"></rect></mask><g transform="translate(1041.5652923583975 546.394864573653) rotate(0 47.22904711896081 24.541536801308325)"><text x="47.99995422363281" y="0" font-family="Virgil, Segoe UI Emoji" font-size="20px" fill="#1e1e1e" text-anchor="middle" style="white-space: pre;" direction="ltr" dominant-baseline="text-before-edge">отношение</text><text x="47.99995422363281" y="25" font-family="Virgil, Segoe UI Emoji" font-size="20px" fill="#1e1e1e" text-anchor="middle" style="white-space: pre;" direction="ltr" dominant-baseline="text-before-edge">обмена</text></g><g stroke-linecap="round" transform="translate(829.1587320963532 723.1109789471391) rotate(0 76.98577880859375 27.580963134765625)"><path d="M13.79 0 C54.03 -1.24, 91.96 -1.57, 140.18 0 M13.79 0 C59.51 -0.85, 104.73 -1.15, 140.18 0 M140.18 0 C148.35 -1.28, 152.31 4.38, 153.97 13.79 M140.18 0 C149.66 -1.66, 151.71 3.12, 153.97 13.79 M153.97 13.79 C153.55 18.31, 154.87 25.03, 153.97 41.37 M153.97 13.79 C153.79 24.1, 153.4 35.02, 153.97 41.37 M153.97 41.37 C153.08 51.3, 149.79 53.79, 140.18 55.16 M153.97 41.37 C155.39 51.91, 151.11 55.17, 140.18 55.16 M140.18 55.16 C113.48 53.34, 82.81 54.61, 13.79 55.16 M140.18 55.16 C106.9 54.38, 72.09 54.97, 13.79 55.16 M13.79 55.16 C6.42 56.14, -0.43 49.81, 0 41.37 M13.79 55.16 C4.4 56.64, -0.23 48.29, 0 41.37 M0 41.37 C-1.41 31.45, -1.63 20.66, 0 13.79 M0 41.37 C0.58 30.66, 0.59 19.62, 0 13.79 M0 13.79 C0.03 4.09, 4.15 0.92, 13.79 0 M0 13.79 C-0.57 2.87, 5.71 2.11, 13.79 0" stroke="#1e1e1e" stroke-width="2" fill="none"></path></g><g transform="translate(851.9045664469392 738.1919420819047) rotate(0 54.23994445800781 12.5)"><text x="54.23994445800781" y="0" font-family="Virgil, Segoe UI Emoji" font-size="20px" fill="#1e1e1e" text-anchor="middle" style="white-space: pre;" direction="ltr" dominant-baseline="text-before-edge">Участник В</text></g><g stroke-linecap="round" transform="translate(1196.2334493001295 723.1109789471391) rotate(0 76.98577880859375 27.580963134765625)"><path d="M13.79 0 C43.28 0.84, 71.76 0.99, 140.18 0 M13.79 0 C52.38 -0.38, 91.15 0.16, 140.18 0 M140.18 0 C149.62 -1.44, 152.01 3.32, 153.97 13.79 M140.18 0 C147.54 -2.01, 155.22 4.39, 153.97 13.79 M153.97 13.79 C155.47 19.43, 153.51 25.81, 153.97 41.37 M153.97 13.79 C153.39 22.93, 154.04 30.64, 153.97 41.37 M153.97 41.37 C155.2 51.74, 150.88 55.17, 140.18 55.16 M153.97 41.37 C152.2 49.61, 147.3 56.89, 140.18 55.16 M140.18 55.16 C105.9 56.03, 72.85 56.5, 13.79 55.16 M140.18 55.16 C112.32 55.48, 82.43 54.62, 13.79 55.16 M13.79 55.16 C4.43 56.45, -0.2 48.59, 0 41.37 M13.79 55.16 C6.7 53.94, 1.18 48.77, 0 41.37 M0 41.37 C1.93 32.09, 0.49 23.61, 0 13.79 M0 41.37 C-0.16 33.17, -0.39 25.93, 0 13.79 M0 13.79 C-0.5 3.1, 5.57 1.84, 13.79 0 M0 13.79 C-2.25 6, 6.28 2.29, 13.79 0" stroke="#6741d9" stroke-width="2" fill="none"></path></g><g transform="translate(1220.7592824300123 738.1919420819047) rotate(0 52.45994567871094 12.5)"><text x="52.45994567871094" y="0" font-family="Virgil, Segoe UI Emoji" font-size="20px" fill="#6741d9" text-anchor="middle" style="white-space: pre;" direction="ltr" dominant-baseline="text-before-edge">Участник Г</text></g><g mask="url(#mask-vyiSI2xoIyKiXPC4q-S2M)" stroke-linecap="round"><g transform="translate(911.2090138076265 608.521182440692) rotate(0 0.9108199126148975 53.52512949590539)"><path d="M-0.11 0.11 C0.09 17.76, 0.77 89.11, 0.99 106.8 M-1.63 -0.87 C-1.04 16.88, 2.97 90.2, 3.26 108.21" stroke="#1e1e1e" stroke-width="2" fill="none"></path></g><g transform="translate(911.2090138076265 608.521182440692) rotate(0 0.9108199126148975 53.52512949590539)"><path d="M1.15 -7.97 C3.1 -7.67, 6.4 -6.44, 7.61 -4.87 C8.82 -3.3, 8.72 -0.52, 8.41 1.45 C8.1 3.42, 7.14 5.69, 5.76 6.93 C4.37 8.17, 1.93 8.87, 0.11 8.9 C-1.71 8.94, -3.85 8.25, -5.17 7.13 C-6.48 6.01, -7.22 3.89, -7.78 2.18 C-8.34 0.48, -9.35 -1.26, -8.52 -3.09 C-7.69 -4.93, -4.79 -8.12, -2.79 -8.84 C-0.79 -9.56, 2.26 -7.45, 3.5 -7.39 C4.73 -7.33, 4.87 -8.43, 4.63 -8.48 M-4.19 -7.02 C-2.64 -8.18, 0.07 -10.14, 1.71 -9.5 C3.35 -8.87, 4.43 -5.13, 5.66 -3.23 C6.88 -1.33, 9.32 0.44, 9.07 1.91 C8.83 3.38, 5.54 4.56, 4.2 5.59 C2.86 6.62, 2.83 7.81, 1.05 8.08 C-0.74 8.36, -4.8 8.47, -6.51 7.25 C-8.21 6.03, -8.97 2.56, -9.18 0.75 C-9.38 -1.06, -8.94 -2.11, -7.74 -3.59 C-6.53 -5.08, -2.85 -7.62, -1.95 -8.15 C-1.06 -8.68, -2.35 -7.13, -2.36 -6.76" stroke="none" stroke-width="0" fill="#1e1e1e"></path></g><g transform="translate(911.2090138076265 608.521182440692) rotate(0 0.9108199126148975 53.52512949590539)"><path d="M4.52 100.13 C6.48 100.42, 9.78 101.65, 10.99 103.22 C12.2 104.79, 12.1 107.58, 11.79 109.55 C11.48 111.52, 10.52 113.79, 9.13 115.03 C7.75 116.27, 5.31 116.97, 3.49 117 C1.67 117.03, -0.48 116.35, -1.79 115.23 C-3.11 114.11, -3.85 111.98, -4.41 110.28 C-4.96 108.58, -5.97 106.84, -5.14 105 C-4.31 103.17, -1.42 99.97, 0.59 99.26 C2.59 98.54, 5.64 100.64, 6.88 100.7 C8.11 100.76, 8.25 99.67, 8.01 99.62 M-0.82 101.08 C0.74 99.91, 3.45 97.96, 5.09 98.59 C6.73 99.22, 7.81 102.96, 9.03 104.87 C10.26 106.77, 12.69 108.54, 12.45 110.01 C12.21 111.48, 8.92 112.66, 7.58 113.68 C6.24 114.71, 6.21 115.9, 4.43 116.18 C2.64 116.46, -1.43 116.57, -3.13 115.35 C-4.83 114.12, -5.6 110.65, -5.8 108.85 C-6.01 107.04, -5.56 105.99, -4.36 104.5 C-3.15 103.02, 0.53 100.47, 1.43 99.94 C2.32 99.42, 1.03 100.97, 1.01 101.33" stroke="none" stroke-width="0" fill="#1e1e1e"></path></g></g><mask id="mask-vyiSI2xoIyKiXPC4q-S2M"><rect x="0" y="0" fill="#fff" width="1013.0306536328562" height="815.5714414325028"></rect><rect x="864.1198794966085" y="637.0463119365972" fill="#000" width="95.99990844726562" height="50" opacity="1"></rect></mask><g transform="translate(864.1198794966085 637.0463119365971) rotate(0 47.905937979100145 25.14186016974054)"><text x="47.99995422363281" y="0" font-family="Virgil, Segoe UI Emoji" font-size="20px" fill="#1e1e1e" text-anchor="middle" style="white-space: pre;" direction="ltr" dominant-baseline="text-before-edge">отношение</text><text x="47.99995422363281" y="25" font-family="Virgil, Segoe UI Emoji" font-size="20px" fill="#1e1e1e" text-anchor="middle" style="white-space: pre;" direction="ltr" dominant-baseline="text-before-edge">обмена</text></g><g mask="url(#mask-ysRRiM16izdL09INAfgjl)" stroke-linecap="round"><g transform="translate(1271.4658604240635 602.0163169496573) rotate(0 2.670935235627894 56.71398240661847)"><path d="M-0.61 -0.77 C0.25 18.15, 3.33 94.41, 4.34 113.3 M1.27 1.44 C2.57 20.58, 5.94 96.11, 6.53 114.77" stroke="#6741d9" stroke-width="2" fill="none"></path></g><g transform="translate(1271.4658604240635 602.0163169496573) rotate(0 2.670935235627894 56.71398240661847)"><path d="M1.33 -8.36 C2.82 -8, 4.86 -6.58, 5.81 -5.24 C6.76 -3.9, 7.14 -2.01, 7.04 -0.35 C6.93 1.32, 6.18 3.44, 5.15 4.72 C4.13 6, 2.7 6.98, 0.88 7.33 C-0.95 7.67, -4.41 7.88, -5.81 6.78 C-7.21 5.69, -7.24 2.42, -7.53 0.74 C-7.83 -0.94, -8.26 -1.65, -7.57 -3.3 C-6.87 -4.95, -4.8 -8.15, -3.37 -9.14 C-1.93 -10.14, 0.29 -9.26, 1.06 -9.27 C1.82 -9.28, 1.02 -9.27, 1.21 -9.19 M0.88 -7.44 C2.78 -6.64, 6.55 -5.62, 7.44 -4.44 C8.34 -3.25, 6.56 -1.9, 6.25 -0.34 C5.93 1.22, 6.93 3.56, 5.58 4.94 C4.23 6.32, 0.22 8.01, -1.85 7.94 C-3.91 7.88, -5.61 5.69, -6.8 4.55 C-7.99 3.41, -9.04 2.73, -8.99 1.12 C-8.93 -0.5, -7.55 -3.7, -6.48 -5.15 C-5.41 -6.59, -4.18 -7.18, -2.58 -7.53 C-0.98 -7.89, 2.34 -7.33, 3.13 -7.28 C3.92 -7.22, 2.17 -7.34, 2.18 -7.2" stroke="none" stroke-width="0" fill="#6741d9"></path></g><g transform="translate(1271.4658604240635 602.0163169496573) rotate(0 2.670935235627894 56.71398240661847)"><path d="M8.48 107.18 C9.97 107.54, 12 108.96, 12.95 110.3 C13.9 111.64, 14.29 113.54, 14.18 115.2 C14.07 116.86, 13.33 118.98, 12.3 120.26 C11.27 121.54, 9.85 122.52, 8.02 122.87 C6.19 123.21, 2.74 123.42, 1.34 122.33 C-0.07 121.23, -0.1 117.96, -0.39 116.28 C-0.68 114.6, -1.12 113.89, -0.42 112.24 C0.27 110.6, 2.34 107.39, 3.78 106.4 C5.22 105.41, 7.44 106.28, 8.2 106.27 C8.96 106.27, 8.17 106.27, 8.36 106.35 M8.03 108.1 C9.92 108.9, 13.69 109.92, 14.59 111.11 C15.48 112.29, 13.7 113.64, 13.39 115.2 C13.08 116.76, 14.07 119.1, 12.72 120.48 C11.37 121.86, 7.36 123.55, 5.3 123.49 C3.23 123.42, 1.54 121.23, 0.35 120.09 C-0.84 118.95, -1.9 118.27, -1.84 116.66 C-1.79 115.04, -0.4 111.84, 0.67 110.4 C1.73 108.95, 2.96 108.36, 4.57 108.01 C6.17 107.65, 9.48 108.21, 10.28 108.26 C11.07 108.32, 9.31 108.2, 9.33 108.34" stroke="none" stroke-width="0" fill="#6741d9"></path></g></g><mask id="mask-ysRRiM16izdL09INAfgjl"><rect x="0" y="0" fill="#fff" width="1376.8077308953193" height="815.4442817628941"></rect><rect x="1226.1368414360586" y="633.7302993562757" fill="#000" width="95.99990844726562" height="50" opacity="1"></rect></mask><g transform="translate(1226.1368414360586 633.7302993562757) rotate(0 48.28939107546125 25.286274606720553)"><text x="47.99995422363281" y="0" font-family="Virgil, Segoe UI Emoji" font-size="20px" fill="#6741d9" text-anchor="middle" style="white-space: pre;" direction="ltr" dominant-baseline="text-before-edge">отношение</text><text x="47.99995422363281" y="25" font-family="Virgil, Segoe UI Emoji" font-size="20px" fill="#6741d9" text-anchor="middle" style="white-space: pre;" direction="ltr" dominant-baseline="text-before-edge">обмена</text></g><g transform="translate(134.82489522298147 11.484273274739735) rotate(0 138.72604370117188 22.5)"><text x="0" y="0" font-family="Virgil, Segoe UI Emoji" font-size="36px" fill="#f08c00" text-anchor="start" style="white-space: pre;" direction="ltr" dominant-baseline="text-before-edge">БА Участника А</text></g><g transform="translate(948.0677439371742 10) rotate(0 136.47604370117188 22.5)"><text x="0" y="0" font-family="Virgil, Segoe UI Emoji" font-size="36px" fill="#1971c2" text-anchor="start" style="white-space: pre;" direction="ltr" dominant-baseline="text-before-edge">БА Участника Б</text></g><g transform="translate(176.03063456217467 452.1905771891272) rotate(0 140.00405883789062 22.5)"><text x="0" y="0" font-family="Virgil, Segoe UI Emoji" font-size="36px" fill="#c2255c" text-anchor="start" style="white-space: pre;" direction="ltr" dominant-baseline="text-before-edge">БА Участника В</text></g><g stroke-linecap="round" transform="translate(444.77701822916663 968.4561335245758) rotate(0 76.98577880859375 27.580963134765625)"><path d="M13.79 0 C62.44 -0.63, 108.13 1.01, 140.18 0 M13.79 0 C43.42 0.13, 72.33 1.33, 140.18 0 M140.18 0 C147.49 -0.21, 155.02 5.61, 153.97 13.79 M140.18 0 C148.26 0.73, 153.66 6.26, 153.97 13.79 M153.97 13.79 C154.21 25.35, 154.91 35.62, 153.97 41.37 M153.97 13.79 C154.44 20.66, 154.51 28.31, 153.97 41.37 M153.97 41.37 C153.2 49.57, 150.09 56.58, 140.18 55.16 M153.97 41.37 C154.03 51.36, 147.59 53.41, 140.18 55.16 M140.18 55.16 C110.31 55.9, 84.09 52.34, 13.79 55.16 M140.18 55.16 C108.59 54.38, 76.02 54.49, 13.79 55.16 M13.79 55.16 C4.84 55.03, -0.7 50.71, 0 41.37 M13.79 55.16 C5.76 55.75, -0.55 50.73, 0 41.37 M0 41.37 C-1 31.52, 0.55 22.03, 0 13.79 M0 41.37 C-0.67 31.1, -1.01 20.59, 0 13.79 M0 13.79 C-1.81 2.95, 6.26 -1.77, 13.79 0 M0 13.79 C-0.29 3.58, 3.32 0.35, 13.79 0" stroke="#868e96" stroke-width="2" fill="none"></path></g><g transform="translate(468.2328516642252 983.5370966593414) rotate(0 53.529945373535156 12.5)"><text x="53.529945373535156" y="0" font-family="Virgil, Segoe UI Emoji" font-size="20px" fill="#868e96" text-anchor="middle" style="white-space: pre;" direction="ltr" dominant-baseline="text-before-edge">Участник А</text></g><g stroke-linecap="round" transform="translate(811.8517354329421 968.4561335245758) rotate(0 76.98577880859375 27.580963134765625)"><path d="M13.79 0 C52 -0.39, 91.33 -0.8, 140.18 0 M13.79 0 C39.86 -0.53, 68.33 0.08, 140.18 0 M140.18 0 C148.41 0.63, 153.7 6.04, 153.97 13.79 M140.18 0 C151.64 0.46, 151.84 4.81, 153.97 13.79 M153.97 13.79 C153.7 22.09, 152.17 33.04, 153.97 41.37 M153.97 13.79 C153.76 19.2, 154.51 26.33, 153.97 41.37 M153.97 41.37 C154.03 51.25, 147.82 53.64, 140.18 55.16 M153.97 41.37 C152.15 48.83, 147.25 52.91, 140.18 55.16 M140.18 55.16 C89.24 53.05, 40.17 54.44, 13.79 55.16 M140.18 55.16 C111.62 54.32, 82.48 54.45, 13.79 55.16 M13.79 55.16 C5.61 55.67, -0.47 50.71, 0 41.37 M13.79 55.16 C5.07 55.3, -1.1 49.44, 0 41.37 M0 41.37 C1.15 34.62, 1.8 26.3, 0 13.79 M0 41.37 C-0.63 33.11, 1.11 25.61, 0 13.79 M0 13.79 C-0.25 3.71, 3.48 0.31, 13.79 0 M0 13.79 C-1.04 3.31, 4.94 1.5, 13.79 0" stroke="#868e96" stroke-width="2" fill="none"></path></g><g transform="translate(836.5575688680007 983.5370966593414) rotate(0 52.279945373535156 12.5)"><text x="52.279945373535156" y="0" font-family="Virgil, Segoe UI Emoji" font-size="20px" fill="#868e96" text-anchor="middle" style="white-space: pre;" direction="ltr" dominant-baseline="text-before-edge">Участник Б</text></g><g mask="url(#mask-tEmMBLuZeHo_0STO2p9ir)" stroke-linecap="round"><g transform="translate(602.034189860026 997.5530193345462) rotate(0 103.14934285481775 -0.7764452111257469)"><path d="M0.24 -1.04 C34.48 -1.07, 171.77 -1.04, 205.93 -1.14 M-1.09 1.04 C32.92 0.71, 170.02 -2.81, 204.78 -3.05" stroke="#868e96" stroke-width="2" fill="none"></path></g><g transform="translate(602.034189860026 997.5530193345462) rotate(0 103.14934285481775 -0.7764452111257469)"><path d="M-1.52 -9.8 C0.35 -10.2, 2.93 -9.1, 4.7 -8.29 C6.48 -7.48, 8.53 -6.4, 9.12 -4.97 C9.72 -3.54, 9.08 -1.36, 8.26 0.27 C7.44 1.91, 5.83 3.58, 4.2 4.86 C2.56 6.13, 0.31 7.98, -1.54 7.92 C-3.39 7.85, -5.7 5.97, -6.92 4.48 C-8.13 2.98, -8.91 0.73, -8.86 -1.07 C-8.8 -2.87, -7.9 -5, -6.59 -6.33 C-5.28 -7.66, -2.37 -8.64, -1.02 -9.03 C0.34 -9.41, 1.52 -8.7, 1.54 -8.64 M0.91 -10.56 C3.07 -10.85, 5.96 -9, 7.06 -7.76 C8.16 -6.52, 7.28 -4.79, 7.5 -3.11 C7.73 -1.43, 9.32 0.79, 8.4 2.31 C7.48 3.83, 3.72 5.06, 2 5.99 C0.29 6.93, -0.19 8.58, -1.86 7.91 C-3.54 7.24, -6.93 3.84, -8.07 1.97 C-9.2 0.1, -9 -1.83, -8.67 -3.32 C-8.35 -4.81, -7.63 -6.19, -6.11 -6.98 C-4.59 -7.77, -0.59 -7.73, 0.43 -8.04 C1.45 -8.36, -0.1 -8.7, 0.03 -8.88" stroke="none" stroke-width="0" fill="#868e96"></path></g><g transform="translate(602.034189860026 997.5530193345462) rotate(0 103.14934285481775 -0.7764452111257469)"><path d="M203.01 -11.82 C204.89 -12.22, 207.47 -11.11, 209.24 -10.31 C211.02 -9.5, 213.07 -8.41, 213.66 -6.99 C214.26 -5.56, 213.62 -3.38, 212.8 -1.74 C211.98 -0.11, 210.37 1.56, 208.73 2.84 C207.1 4.11, 204.85 5.96, 203 5.9 C201.15 5.83, 198.84 3.96, 197.62 2.46 C196.4 0.96, 195.63 -1.29, 195.68 -3.09 C195.74 -4.89, 196.64 -7.02, 197.95 -8.35 C199.25 -9.67, 202.17 -10.66, 203.52 -11.04 C204.88 -11.43, 206.06 -10.71, 206.08 -10.66 M205.45 -12.58 C207.61 -12.87, 210.5 -11.02, 211.6 -9.78 C212.7 -8.53, 211.82 -6.81, 212.04 -5.13 C212.27 -3.45, 213.86 -1.23, 212.94 0.29 C212.02 1.81, 208.25 3.04, 206.54 3.97 C204.83 4.91, 204.35 6.56, 202.67 5.89 C201 5.22, 197.6 1.83, 196.47 -0.05 C195.33 -1.92, 195.54 -3.84, 195.87 -5.34 C196.19 -6.83, 196.91 -8.21, 198.43 -9 C199.94 -9.78, 203.95 -9.74, 204.97 -10.06 C205.99 -10.38, 204.44 -10.72, 204.57 -10.9" stroke="none" stroke-width="0" fill="#868e96"></path></g></g><mask id="mask-tEmMBLuZeHo_0STO2p9ir"><rect x="0" y="0" fill="#fff" width="908.3328755696615" height="1099.1059097567977"></rect><rect x="657.1835784912109" y="971.7765741234205" fill="#000" width="95.99990844726562" height="50" opacity="1"></rect></mask><g transform="translate(657.1835784912109 971.7765741234205) rotate(0 47.26853311195504 24.767336810687425)"><text x="47.99995422363281" y="0" font-family="Virgil, Segoe UI Emoji" font-size="20px" fill="#868e96" text-anchor="middle" style="white-space: pre;" direction="ltr" dominant-baseline="text-before-edge">отношение</text><text x="47.99995422363281" y="25" font-family="Virgil, Segoe UI Emoji" font-size="20px" fill="#868e96" text-anchor="middle" style="white-space: pre;" direction="ltr" dominant-baseline="text-before-edge">обмена</text></g><g stroke-linecap="round" transform="translate(444.77701822916663 1148.4926884969066) rotate(0 76.98577880859375 27.580963134765625)"><path d="M13.79 0 C47.56 2.24, 82.77 0.22, 140.18 0 M13.79 0 C56.69 -0.72, 96.68 -0.82, 140.18 0 M140.18 0 C149.94 0.88, 153.81 4.2, 153.97 13.79 M140.18 0 C148.51 -2.22, 155.29 2.63, 153.97 13.79 M153.97 13.79 C152.71 24.55, 155.13 33.92, 153.97 41.37 M153.97 13.79 C152.97 22.26, 152.83 31.26, 153.97 41.37 M153.97 41.37 C155.88 50.29, 147.72 54.19, 140.18 55.16 M153.97 41.37 C152.75 50.47, 149.75 53.48, 140.18 55.16 M140.18 55.16 C110.21 54.62, 80.64 56.33, 13.79 55.16 M140.18 55.16 C99.24 55.32, 57.41 54.76, 13.79 55.16 M13.79 55.16 C3.59 55.72, -1.66 51.79, 0 41.37 M13.79 55.16 C4.74 57.32, -1.51 49.87, 0 41.37 M0 41.37 C-1.41 37.49, -1.53 30.03, 0 13.79 M0 41.37 C-0.3 33.76, 0.3 27.91, 0 13.79 M0 13.79 C0.75 3.64, 3.95 0.2, 13.79 0 M0 13.79 C-2.21 5.93, 4.95 -2.1, 13.79 0" stroke="#868e96" stroke-width="2" fill="none"></path></g><g transform="translate(467.52285257975257 1163.5736516316722) rotate(0 54.23994445800781 12.5)"><text x="54.23994445800781" y="0" font-family="Virgil, Segoe UI Emoji" font-size="20px" fill="#868e96" text-anchor="middle" style="white-space: pre;" direction="ltr" dominant-baseline="text-before-edge">Участник В</text></g><g stroke-linecap="round" transform="translate(811.8517354329421 1148.4926884969066) rotate(0 76.98577880859375 27.580963134765625)"><path d="M13.79 0 C58.95 0.34, 104.29 2.58, 140.18 0 M13.79 0 C54.5 0.33, 94.57 -0.31, 140.18 0 M140.18 0 C148.62 -1.93, 155.11 2.89, 153.97 13.79 M140.18 0 C150.85 -2.15, 153.08 3.45, 153.97 13.79 M153.97 13.79 C154.85 21.5, 152.65 30.74, 153.97 41.37 M153.97 13.79 C154.67 19.84, 152.89 25.68, 153.97 41.37 M153.97 41.37 C152.91 50.49, 149.7 53.7, 140.18 55.16 M153.97 41.37 C152.5 49.14, 149.65 55.02, 140.18 55.16 M140.18 55.16 C107.17 55.33, 73.29 56.21, 13.79 55.16 M140.18 55.16 C100.99 54.82, 61.97 55.16, 13.79 55.16 M13.79 55.16 C4.73 57.04, -1.31 49.96, 0 41.37 M13.79 55.16 C2.32 53.2, -2.09 48.67, 0 41.37 M0 41.37 C-0.64 29.68, 0.55 19.31, 0 13.79 M0 41.37 C0.33 34.16, -0.36 28.01, 0 13.79 M0 13.79 C-1.92 5.76, 4.9 -1.82, 13.79 0 M0 13.79 C1.41 3.46, 2.54 -1.63, 13.79 0" stroke="#868e96" stroke-width="2" fill="none"></path></g><g transform="translate(836.3775685628249 1163.5736516316722) rotate(0 52.45994567871094 12.5)"><text x="52.45994567871094" y="0" font-family="Virgil, Segoe UI Emoji" font-size="20px" fill="#868e96" text-anchor="middle" style="white-space: pre;" direction="ltr" dominant-baseline="text-before-edge">Участник Г</text></g><g mask="url(#mask-rn6hiq-FHi7PxDKhxY6fr)" stroke-linecap="round"><g transform="translate(526.8272999404395 1033.9028919904595) rotate(0 0.9108199126148406 53.52512949590539)"><path d="M1.18 0.24 C1.33 17.95, 0.55 89.27, 0.71 107.16 M0.35 -0.68 C0.86 17.17, 2.63 91.05, 2.84 108.75" stroke="#868e96" stroke-width="2" fill="none"></path></g><g transform="translate(526.8272999404395 1033.9028919904595) rotate(0 0.9108199126148406 53.52512949590539)"><path d="M-3.4 -7.81 C-1.84 -8.92, 0.86 -9.27, 2.79 -8.86 C4.71 -8.46, 7.13 -7.03, 8.17 -5.39 C9.21 -3.74, 9.09 -1.01, 9.05 1.01 C9 3.03, 9.15 5.46, 7.9 6.74 C6.66 8.01, 3.47 8.7, 1.58 8.68 C-0.31 8.65, -2.12 7.55, -3.44 6.58 C-4.76 5.6, -5.69 4.37, -6.35 2.81 C-7.02 1.26, -8.05 -0.81, -7.44 -2.73 C-6.83 -4.66, -3.5 -7.98, -2.68 -8.73 C-1.86 -9.48, -2.52 -7.43, -2.5 -7.23 M-1.57 -8.99 C-0.23 -9.87, 2.76 -9.21, 4.31 -8.2 C5.86 -7.18, 6.93 -4.88, 7.72 -2.9 C8.52 -0.91, 9.48 1.93, 9.08 3.69 C8.69 5.44, 6.71 6.85, 5.37 7.62 C4.02 8.38, 2.91 8.52, 0.99 8.29 C-0.92 8.05, -4.95 7.57, -6.11 6.2 C-7.27 4.84, -6 1.95, -5.97 0.07 C-5.93 -1.82, -6.51 -3.69, -5.89 -5.1 C-5.27 -6.51, -2.89 -7.74, -2.26 -8.4 C-1.63 -9.05, -2.25 -9.35, -2.09 -9.01" stroke="none" stroke-width="0" fill="#868e96"></path></g><g transform="translate(526.8272999404395 1033.9028919904595) rotate(0 0.9108199126148406 53.52512949590539)"><path d="M-1.74 100.71 C-0.18 99.59, 2.51 99.25, 4.44 99.65 C6.37 100.05, 8.78 101.48, 9.82 103.13 C10.87 104.77, 10.74 107.5, 10.7 109.52 C10.66 111.54, 10.8 113.97, 9.56 115.25 C8.32 116.53, 5.13 117.22, 3.24 117.19 C1.35 117.17, -0.46 116.07, -1.78 115.09 C-3.11 114.11, -4.03 112.88, -4.7 111.33 C-5.36 109.78, -6.4 107.7, -5.78 105.78 C-5.17 103.86, -1.85 100.53, -1.02 99.78 C-0.2 99.03, -0.86 101.09, -0.85 101.28 M0.08 99.53 C1.43 98.64, 4.41 99.3, 5.96 100.32 C7.51 101.33, 8.58 103.64, 9.38 105.62 C10.17 107.6, 11.13 110.45, 10.74 112.2 C10.35 113.95, 8.37 115.37, 7.02 116.13 C5.67 116.9, 4.56 117.04, 2.65 116.8 C0.74 116.56, -3.3 116.09, -4.46 114.72 C-5.62 113.35, -4.35 110.47, -4.31 108.58 C-4.27 106.7, -4.85 104.83, -4.24 103.42 C-3.62 102.01, -1.24 100.77, -0.6 100.12 C0.03 99.47, -0.6 99.16, -0.44 99.51" stroke="none" stroke-width="0" fill="#868e96"></path></g></g><mask id="mask-rn6hiq-FHi7PxDKhxY6fr"><rect x="0" y="0" fill="#fff" width="628.6489397656692" height="1240.9531509822702"></rect><rect x="479.7381656294215" y="1062.4280214863647" fill="#000" width="95.99990844726562" height="50" opacity="1"></rect></mask><g transform="translate(479.7381656294215 1062.4280214863647) rotate(0 48.681148952236356 25.510744423726692)"><text x="47.99995422363281" y="0" font-family="Virgil, Segoe UI Emoji" font-size="20px" fill="#868e96" text-anchor="middle" style="white-space: pre;" direction="ltr" dominant-baseline="text-before-edge">отношение</text><text x="47.99995422363281" y="25" font-family="Virgil, Segoe UI Emoji" font-size="20px" fill="#868e96" text-anchor="middle" style="white-space: pre;" direction="ltr" dominant-baseline="text-before-edge">обмена</text></g><g mask="url(#mask-iA6uGzoTSkebRQUy4vzQr)" stroke-linecap="round"><g transform="translate(887.0841465568761 1027.3980264994248) rotate(0 2.670935235627894 56.71398240661841)"><path d="M0.34 0.53 C1.4 19.38, 4.49 94.57, 5.24 113.19 M-0.94 -0.24 C0.05 18.78, 3.44 95.73, 4.24 114.6" stroke="#868e96" stroke-width="2" fill="none"></path></g><g transform="translate(887.0841465568761 1027.3980264994248) rotate(0 2.670935235627894 56.71398240661841)"><path d="M-0.02 -8.45 C1.6 -8.55, 3.11 -7.42, 4.59 -6.19 C6.07 -4.97, 8.45 -2.8, 8.87 -1.1 C9.29 0.6, 7.98 2.59, 7.12 4 C6.26 5.42, 5.1 6.58, 3.69 7.39 C2.27 8.2, 0.47 9.13, -1.37 8.87 C-3.2 8.62, -6.18 7.57, -7.32 5.87 C-8.46 4.17, -8.44 0.51, -8.21 -1.32 C-7.98 -3.14, -7.25 -3.86, -5.96 -5.07 C-4.67 -6.27, -1.49 -8.21, -0.47 -8.53 C0.54 -8.85, -0.13 -7.15, 0.15 -6.99 M-2.69 -7.2 C-1.08 -7.45, 2.05 -6.71, 3.69 -5.97 C5.33 -5.23, 6.29 -4.1, 7.12 -2.74 C7.95 -1.38, 9.28 0.52, 8.68 2.21 C8.08 3.9, 4.85 6.41, 3.52 7.39 C2.19 8.37, 2.24 8.3, 0.7 8.1 C-0.83 7.89, -4.08 7.35, -5.7 6.16 C-7.32 4.96, -8.75 2.88, -9.03 0.95 C-9.3 -0.98, -8.49 -4.17, -7.34 -5.44 C-6.19 -6.7, -3.08 -6.54, -2.13 -6.66 C-1.17 -6.77, -1.5 -5.96, -1.63 -6.12" stroke="none" stroke-width="0" fill="#868e96"></path></g><g transform="translate(887.0841465568761 1027.3980264994248) rotate(0 2.670935235627894 56.71398240661841)"><path d="M3.89 105.63 C5.51 105.53, 7.01 106.66, 8.49 107.88 C9.98 109.1, 12.35 111.27, 12.77 112.97 C13.2 114.67, 11.89 116.66, 11.03 118.08 C10.16 119.49, 9.01 120.65, 7.59 121.46 C6.18 122.28, 4.37 123.2, 2.54 122.95 C0.7 122.69, -2.28 121.64, -3.42 119.94 C-4.56 118.24, -4.53 114.58, -4.3 112.76 C-4.08 110.93, -3.35 110.21, -2.06 109 C-0.77 107.8, 2.41 105.86, 3.43 105.54 C4.45 105.22, 3.78 106.92, 4.06 107.09 M1.21 106.87 C2.83 106.63, 5.96 107.36, 7.59 108.1 C9.23 108.84, 10.2 109.97, 11.03 111.33 C11.86 112.7, 13.19 114.59, 12.59 116.28 C11.99 117.97, 8.75 120.48, 7.42 121.46 C6.09 122.45, 6.14 122.38, 4.61 122.17 C3.07 121.96, -0.17 121.42, -1.79 120.23 C-3.41 119.04, -4.85 116.95, -5.12 115.02 C-5.4 113.09, -4.59 109.9, -3.44 108.64 C-2.29 107.37, 0.83 107.53, 1.78 107.41 C2.73 107.3, 2.4 108.11, 2.28 107.96" stroke="none" stroke-width="0" fill="#868e96"></path></g></g><mask id="mask-iA6uGzoTSkebRQUy4vzQr"><rect x="0" y="0" fill="#fff" width="992.426017028132" height="1240.8259913126617"></rect><rect x="841.7551275688711" y="1059.1120089060432" fill="#000" width="95.99990844726562" height="50" opacity="1"></rect></mask><g transform="translate(841.7551275688711 1059.1120089060432) rotate(0 47.479844483281454 25.46897008762693)"><text x="47.99995422363281" y="0" font-family="Virgil, Segoe UI Emoji" font-size="20px" fill="#868e96" text-anchor="middle" style="white-space: pre;" direction="ltr" dominant-baseline="text-before-edge">отношение</text><text x="47.99995422363281" y="25" font-family="Virgil, Segoe UI Emoji" font-size="20px" fill="#868e96" text-anchor="middle" style="white-space: pre;" direction="ltr" dominant-baseline="text-before-edge">обмена</text></g><g transform="translate(941.4237213134758 446.9524892171223) rotate(0 136.800048828125 22.5)"><text x="0" y="0" font-family="Virgil, Segoe UI Emoji" font-size="36px" fill="#6741d9" text-anchor="start" style="white-space: pre;" direction="ltr" dominant-baseline="text-before-edge">БА Участника Г</text></g><g transform="translate(342.881210327148 880.1588287353507) rotate(0 363.49206542968756 22.5)"><text x="0" y="0" font-family="Virgil, Segoe UI Emoji" font-size="36px" fill="#868e96" text-anchor="start" style="white-space: pre;" direction="ltr" dominant-baseline="text-before-edge">БА Экосистемы Участников А, Б, В, Г ???</text></g></svg>